solid Created by stlwrite.m 09-Jan-2012 13:16:32
facet normal 3.8285139E-01 9.2380995E-01 0.0000000E+00
outer loop
vertex -1.4143000E-02 -1.7143000E-02 -1.1102230E-16
vertex -1.4143000E-02 -1.7143000E-02 -8.9999996E-03
vertex -1.6264001E-02 -1.6264001E-02 -1.1102230E-16
endloop
endfacet
facet normal 3.8285139E-01 9.2380995E-01 0.0000000E+00
outer loop
vertex -1.6264001E-02 -1.6264001E-02 -1.1102230E-16
vertex -1.4143000E-02 -1.7143000E-02 -8.9999996E-03
vertex -1.6264001E-02 -1.6264001E-02 -8.9999996E-03
endloop
endfacet
facet normal 9.2380995E-01 3.8285139E-01 0.0000000E+00
outer loop
vertex -1.7143000E-02 -1.4143000E-02 -1.1102230E-16
vertex -1.6264001E-02 -1.6264001E-02 -8.9999996E-03
vertex -1.7143000E-02 -1.4143000E-02 -8.9999996E-03
endloop
endfacet
facet normal 9.2380995E-01 -3.8285139E-01 0.0000000E+00
outer loop
vertex -1.6264001E-02 -1.2022000E-02 -1.1102230E-16
vertex -1.7143000E-02 -1.4143000E-02 -8.9999996E-03
vertex -1.6264001E-02 -1.2022000E-02 -8.9999996E-03
endloop
endfacet
facet normal 3.8285178E-01 -9.2380983E-01 0.0000000E+00
outer loop
vertex -1.4143000E-02 -1.1143000E-02 -1.1102230E-16
vertex -1.6264001E-02 -1.2022000E-02 -8.9999996E-03
vertex -1.4143000E-02 -1.1143000E-02 -8.9999996E-03
endloop
endfacet
facet normal 3.8285178E-01 -9.2380983E-01 0.0000000E+00
outer loop
vertex -1.4143000E-02 -1.1143000E-02 -1.1102230E-16
vertex -1.6264001E-02 -1.2022000E-02 -1.1102230E-16
vertex -1.6264001E-02 -1.2022000E-02 -8.9999996E-03
endloop
endfacet
facet normal 9.2380995E-01 -3.8285139E-01 0.0000000E+00
outer loop
vertex -1.6264001E-02 -1.2022000E-02 -1.1102230E-16
vertex -1.7143000E-02 -1.4143000E-02 -1.1102230E-16
vertex -1.7143000E-02 -1.4143000E-02 -8.9999996E-03
endloop
endfacet
facet normal 9.2380995E-01 3.8285139E-01 0.0000000E+00
outer loop
vertex -1.7143000E-02 -1.4143000E-02 -1.1102230E-16
vertex -1.6264001E-02 -1.6264001E-02 -1.1102230E-16
vertex -1.6264001E-02 -1.6264001E-02 -8.9999996E-03
endloop
endfacet
facet normal 0.0000000E+00 0.0000000E+00 1.0000000E+00
outer loop
vertex 1.7142000E-02 -1.4144000E-02 -1.1102230E-16
vertex 1.6263001E-02 -1.6264999E-02 -1.1102230E-16
vertex 1.7678000E-02 -1.7679000E-02 -1.1102230E-16
endloop
endfacet
facet normal -0.0000000E+00 0.0000000E+00 1.0000000E+00
outer loop
vertex 2.2120999E-02 -2.1230001E-03 -1.1102230E-16
vertex 1.7678000E-02 -1.7679000E-02 -1.1102230E-16
vertex 2.5000000E-02 -1.0000000E-06 -1.1102230E-16
endloop
endfacet
facet normal 0.0000000E+00 -0.0000000E+00 1.0000000E+00
outer loop
vertex 2.3000000E-02 -2.0000000E-06 -1.1102230E-16
vertex 2.5000000E-02 -1.0000000E-06 -1.1102230E-16
vertex 2.2120999E-02 2.1200001E-03 -1.1102230E-16
endloop
endfacet
facet normal -0.0000000E+00 0.0000000E+00 1.0000000E+00
outer loop
vertex 2.3000000E-02 -2.0000000E-06 -1.1102230E-16
vertex 2.2120999E-02 -2.1230001E-03 -1.1102230E-16
vertex 2.5000000E-02 -1.0000000E-06 -1.1102230E-16
endloop
endfacet
facet normal 0.0000000E+00 0.0000000E+00 1.0000000E+00
outer loop
vertex 2.5000000E-02 -1.0000000E-06 -1.1102230E-16
vertex 1.7678000E-02 1.7676000E-02 -1.1102230E-16
vertex 2.2120999E-02 2.1200001E-03 -1.1102230E-16
endloop
endfacet
facet normal 0.0000000E+00 0.0000000E+00 1.0000000E+00
outer loop
vertex 2.2120999E-02 2.1200001E-03 -1.1102230E-16
vertex 1.7678000E-02 1.7676000E-02 -1.1102230E-16
vertex 1.7142000E-02 1.4141000E-02 -1.1102230E-16
endloop
endfacet
facet normal 0.0000000E+00 0.0000000E+00 1.0000000E+00
outer loop
vertex 2.0000000E-02 2.9980000E-03 -1.1102230E-16
vertex 1.7142000E-02 1.4141000E-02 -1.1102230E-16
vertex 1.6264001E-02 1.2019000E-02 -1.1102230E-16
endloop
endfacet
facet normal 0.0000000E+00 0.0000000E+00 1.0000000E+00
outer loop
vertex 1.7879000E-02 2.1200001E-03 -1.1102230E-16
vertex 1.6264001E-02 1.2019000E-02 -1.1102230E-16
vertex 1.4143000E-02 1.1141000E-02 -1.1102230E-16
endloop
endfacet
facet normal 0.0000000E+00 -0.0000000E+00 1.0000000E+00
outer loop
vertex 1.2500000E-02 -1.0000000E-06 -1.1102230E-16
vertex 1.4143000E-02 1.1141000E-02 -1.1102230E-16
vertex 8.8390000E-03 8.8379998E-03 -1.1102230E-16
endloop
endfacet
facet normal 0.0000000E+00 0.0000000E+00 9.9999994E-01
outer loop
vertex 1.2500000E-02 -1.0000000E-06 -1.1102230E-16
vertex 1.7879000E-02 2.1200001E-03 -1.1102230E-16
vertex 1.4143000E-02 1.1141000E-02 -1.1102230E-16
endloop
endfacet
facet normal -0.0000000E+00 0.0000000E+00 1.0000000E+00
outer loop
vertex 1.2500000E-02 -1.0000000E-06 -1.1102230E-16
vertex 1.7000001E-02 -2.0000000E-06 -1.1102230E-16
vertex 1.7879000E-02 2.1200001E-03 -1.1102230E-16
endloop
endfacet
facet normal 0.0000000E+00 0.0000000E+00 1.0000000E+00
outer loop
vertex 1.2500000E-02 -1.0000000E-06 -1.1102230E-16
vertex 1.7879000E-02 -2.1230001E-03 -1.1102230E-16
vertex 1.7000001E-02 -2.0000000E-06 -1.1102230E-16
endloop
endfacet
facet normal 0.0000000E+00 0.0000000E+00 1.0000000E+00
outer loop
vertex 1.2500000E-02 -1.0000000E-06 -1.1102230E-16
vertex 1.4142000E-02 -1.1144000E-02 -1.1102230E-16
vertex 1.7879000E-02 -2.1230001E-03 -1.1102230E-16
endloop
endfacet
facet normal 0.0000000E+00 0.0000000E+00 1.0000000E+00
outer loop
vertex 1.2500000E-02 -1.0000000E-06 -1.1102230E-16
vertex 8.8390000E-03 -8.8400003E-03 -1.1102230E-16
vertex 1.4142000E-02 -1.1144000E-02 -1.1102230E-16
endloop
endfacet
facet normal 0.0000000E+00 0.0000000E+00 1.0000000E+00
outer loop
vertex 1.4142000E-02 -1.1144000E-02 -1.1102230E-16
vertex 8.8390000E-03 -8.8400003E-03 -1.1102230E-16
vertex 1.2020000E-02 -1.2022000E-02 -1.1102230E-16
endloop
endfacet
facet normal 0.0000000E+00 0.0000000E+00 9.9999994E-01
outer loop
vertex 1.2020000E-02 -1.2022000E-02 -1.1102230E-16
vertex 8.8390000E-03 -8.8400003E-03 -1.1102230E-16
vertex 1.1142000E-02 -1.4144000E-02 -1.1102230E-16
endloop
endfacet
facet normal 0.0000000E+00 0.0000000E+00 1.0000000E+00
outer loop
vertex 1.1142000E-02 -1.4144000E-02 -1.1102230E-16
vertex 8.8390000E-03 -8.8400003E-03 -1.1102230E-16
vertex 0.0000000E+00 -1.2501000E-02 -1.1102230E-16
endloop
endfacet
facet normal 0.0000000E+00 0.0000000E+00 1.0000000E+00
outer loop
vertex 1.2020000E-02 -1.6264999E-02 -1.1102230E-16
vertex 0.0000000E+00 -1.2501000E-02 -1.1102230E-16
vertex 0.0000000E+00 -2.5001001E-02 -1.1102230E-16
endloop
endfacet
facet normal 0.0000000E+00 0.0000000E+00 1.0000000E+00
outer loop
vertex 1.4142000E-02 -1.7144000E-02 -1.1102230E-16
vertex 0.0000000E+00 -2.5001001E-02 -1.1102230E-16
vertex 1.7678000E-02 -1.7679000E-02 -1.1102230E-16
endloop
endfacet
facet normal 0.0000000E+00 0.0000000E+00 1.0000000E+00
outer loop
vertex 1.6263001E-02 -1.6264999E-02 -1.1102230E-16
vertex 1.4142000E-02 -1.7144000E-02 -1.1102230E-16
vertex 1.7678000E-02 -1.7679000E-02 -1.1102230E-16
endloop
endfacet
facet normal 0.0000000E+00 0.0000000E+00 9.9999994E-01
outer loop
vertex 1.4143000E-02 1.1141000E-02 -1.1102230E-16
vertex 1.2021000E-02 1.2019000E-02 -1.1102230E-16
vertex 8.8390000E-03 8.8379998E-03 -1.1102230E-16
endloop
endfacet
facet normal 0.0000000E+00 0.0000000E+00 1.0000000E+00
outer loop
vertex 8.8390000E-03 8.8379998E-03 -1.1102230E-16
vertex 1.2021000E-02 1.2019000E-02 -1.1102230E-16
vertex 1.1143000E-02 1.4141000E-02 -1.1102230E-16
endloop
endfacet
facet normal 0.0000000E+00 0.0000000E+00 1.0000000E+00
outer loop
vertex 0.0000000E+00 1.2499000E-02 -1.1102230E-16
vertex 1.1143000E-02 1.4141000E-02 -1.1102230E-16
vertex 1.2021000E-02 1.6262000E-02 -1.1102230E-16
endloop
endfacet
facet normal 0.0000000E+00 0.0000000E+00 1.0000000E+00
outer loop
vertex 0.0000000E+00 2.4999000E-02 -1.1102230E-16
vertex 1.2021000E-02 1.6262000E-02 -1.1102230E-16
vertex 1.4143000E-02 1.7140999E-02 -1.1102230E-16
endloop
endfacet
facet normal 0.0000000E+00 0.0000000E+00 1.0000000E+00
outer loop
vertex 1.7678000E-02 1.7676000E-02 -1.1102230E-16
vertex 1.4143000E-02 1.7140999E-02 -1.1102230E-16
vertex 1.6264001E-02 1.6262000E-02 -1.1102230E-16
endloop
endfacet
facet normal 0.0000000E+00 -0.0000000E+00 9.9999994E-01
outer loop
vertex 1.7142000E-02 1.4141000E-02 -1.1102230E-16
vertex 1.7678000E-02 1.7676000E-02 -1.1102230E-16
vertex 1.6264001E-02 1.6262000E-02 -1.1102230E-16
endloop
endfacet
facet normal 0.0000000E+00 -0.0000000E+00 1.0000000E+00
outer loop
vertex -1.7142000E-02 1.4141000E-02 -1.1102230E-16
vertex -1.6263001E-02 1.6263001E-02 -1.1102230E-16
vertex -1.7678000E-02 1.7676000E-02 -1.1102230E-16
endloop
endfacet
facet normal 0.0000000E+00 0.0000000E+00 1.0000000E+00
outer loop
vertex -2.5000000E-02 -1.0000000E-06 -1.1102230E-16
vertex -1.7142000E-02 1.4141000E-02 -1.1102230E-16
vertex -1.7678000E-02 1.7676000E-02 -1.1102230E-16
endloop
endfacet
facet normal 0.0000000E+00 0.0000000E+00 1.0000000E+00
outer loop
vertex -2.5000000E-02 -1.0000000E-06 -1.1102230E-16
vertex -1.6263001E-02 1.2020000E-02 -1.1102230E-16
vertex -1.7142000E-02 1.4141000E-02 -1.1102230E-16
endloop
endfacet
facet normal 0.0000000E+00 0.0000000E+00 1.0000000E+00
outer loop
vertex -2.5000000E-02 -1.0000000E-06 -1.1102230E-16
vertex -1.2500000E-02 -1.0000000E-06 -1.1102230E-16
vertex -1.6263001E-02 1.2020000E-02 -1.1102230E-16
endloop
endfacet
facet normal -0.0000000E+00 0.0000000E+00 1.0000000E+00
outer loop
vertex -2.5000000E-02 -1.0000000E-06 -1.1102230E-16
vertex -1.6264001E-02 -1.2022000E-02 -1.1102230E-16
vertex -1.2500000E-02 -1.0000000E-06 -1.1102230E-16
endloop
endfacet
facet normal 0.0000000E+00 0.0000000E+00 9.9999994E-01
outer loop
vertex -2.5000000E-02 -1.0000000E-06 -1.1102230E-16
vertex -1.7143000E-02 -1.4143000E-02 -1.1102230E-16
vertex -1.6264001E-02 -1.2022000E-02 -1.1102230E-16
endloop
endfacet
facet normal 0.0000000E+00 0.0000000E+00 1.0000000E+00
outer loop
vertex -2.5000000E-02 -1.0000000E-06 -1.1102230E-16
vertex -1.7678000E-02 -1.7679000E-02 -1.1102230E-16
vertex -1.7143000E-02 -1.4143000E-02 -1.1102230E-16
endloop
endfacet
facet normal 0.0000000E+00 0.0000000E+00 1.0000000E+00
outer loop
vertex -1.7143000E-02 -1.4143000E-02 -1.1102230E-16
vertex -1.7678000E-02 -1.7679000E-02 -1.1102230E-16
vertex -1.6264001E-02 -1.6264001E-02 -1.1102230E-16
endloop
endfacet
facet normal 0.0000000E+00 0.0000000E+00 1.0000000E+00
outer loop
vertex -1.6264001E-02 -1.6264001E-02 -1.1102230E-16
vertex -1.7678000E-02 -1.7679000E-02 -1.1102230E-16
vertex -1.4143000E-02 -1.7143000E-02 -1.1102230E-16
endloop
endfacet
facet normal 0.0000000E+00 0.0000000E+00 1.0000000E+00
outer loop
vertex -1.4143000E-02 -1.7143000E-02 -1.1102230E-16
vertex -1.7678000E-02 -1.7679000E-02 -1.1102230E-16
vertex 0.0000000E+00 -2.5001001E-02 -1.1102230E-16
endloop
endfacet
facet normal -0.0000000E+00 0.0000000E+00 1.0000000E+00
outer loop
vertex -1.2021000E-02 -1.6264001E-02 -1.1102230E-16
vertex 0.0000000E+00 -2.5001001E-02 -1.1102230E-16
vertex 0.0000000E+00 -1.2501000E-02 -1.1102230E-16
endloop
endfacet
facet normal 0.0000000E+00 0.0000000E+00 9.9999994E-01
outer loop
vertex -1.1142000E-02 -1.4143000E-02 -1.1102230E-16
vertex 0.0000000E+00 -1.2501000E-02 -1.1102230E-16
vertex -8.8390000E-03 -8.8400003E-03 -1.1102230E-16
endloop
endfacet
facet normal 0.0000000E+00 -0.0000000E+00 1.0000000E+00
outer loop
vertex -1.2021000E-02 -1.2022000E-02 -1.1102230E-16
vertex -8.8390000E-03 -8.8400003E-03 -1.1102230E-16
vertex -1.4143000E-02 -1.1143000E-02 -1.1102230E-16
endloop
endfacet
facet normal -0.0000000E+00 0.0000000E+00 1.0000000E+00
outer loop
vertex -1.2021000E-02 -1.2022000E-02 -1.1102230E-16
vertex -1.1142000E-02 -1.4143000E-02 -1.1102230E-16
vertex -8.8390000E-03 -8.8400003E-03 -1.1102230E-16
endloop
endfacet
facet normal -0.0000000E+00 0.0000000E+00 1.0000000E+00
outer loop
vertex 0.0000000E+00 1.2499000E-02 -1.1102230E-16
vertex 8.8390000E-03 8.8379998E-03 -1.1102230E-16
vertex 1.1143000E-02 1.4141000E-02 -1.1102230E-16
endloop
endfacet
facet normal 0.0000000E+00 0.0000000E+00 1.0000000E+00
outer loop
vertex -8.8390000E-03 -8.8400003E-03 -1.1102230E-16
vertex -1.2500000E-02 -1.0000000E-06 -1.1102230E-16
vertex -1.4143000E-02 -1.1143000E-02 -1.1102230E-16
endloop
endfacet
facet normal 0.0000000E+00 -0.0000000E+00 1.0000000E+00
outer loop
vertex -1.4143000E-02 -1.1143000E-02 -1.1102230E-16
vertex -1.2500000E-02 -1.0000000E-06 -1.1102230E-16
vertex -1.6264001E-02 -1.2022000E-02 -1.1102230E-16
endloop
endfacet
facet normal 0.0000000E+00 0.0000000E+00 1.0000000E+00
outer loop
vertex -1.6263001E-02 1.2020000E-02 -1.1102230E-16
vertex -1.2500000E-02 -1.0000000E-06 -1.1102230E-16
vertex -1.4142000E-02 1.1141000E-02 -1.1102230E-16
endloop
endfacet
facet normal 0.0000000E+00 0.0000000E+00 1.0000000E+00
outer loop
vertex -1.4142000E-02 1.1141000E-02 -1.1102230E-16
vertex -1.2500000E-02 -1.0000000E-06 -1.1102230E-16
vertex -8.8390000E-03 8.8379998E-03 -1.1102230E-16
endloop
endfacet
facet normal -0.0000000E+00 0.0000000E+00 1.0000000E+00
outer loop
vertex -1.2020000E-02 1.2020000E-02 -1.1102230E-16
vertex -8.8390000E-03 8.8379998E-03 -1.1102230E-16
vertex -1.1142000E-02 1.4141000E-02 -1.1102230E-16
endloop
endfacet
facet normal 0.0000000E+00 0.0000000E+00 9.9999994E-01
outer loop
vertex -1.2020000E-02 1.2020000E-02 -1.1102230E-16
vertex -1.4142000E-02 1.1141000E-02 -1.1102230E-16
vertex -8.8390000E-03 8.8379998E-03 -1.1102230E-16
endloop
endfacet
facet normal 0.0000000E+00 -0.0000000E+00 9.9999994E-01
outer loop
vertex -8.8390000E-03 8.8379998E-03 -1.1102230E-16
vertex 0.0000000E+00 1.2499000E-02 -1.1102230E-16
vertex -1.1142000E-02 1.4141000E-02 -1.1102230E-16
endloop
endfacet
facet normal -0.0000000E+00 -0.0000000E+00 1.0000000E+00
outer loop
vertex -1.1142000E-02 1.4141000E-02 -1.1102230E-16
vertex 0.0000000E+00 1.2499000E-02 -1.1102230E-16
vertex -1.2020000E-02 1.6263001E-02 -1.1102230E-16
endloop
endfacet
facet normal -0.0000000E+00 0.0000000E+00 1.0000000E+00
outer loop
vertex -1.2020000E-02 1.6263001E-02 -1.1102230E-16
vertex 0.0000000E+00 1.2499000E-02 -1.1102230E-16
vertex 0.0000000E+00 2.4999000E-02 -1.1102230E-16
endloop
endfacet
facet normal 0.0000000E+00 -0.0000000E+00 1.0000000E+00
outer loop
vertex -1.4142000E-02 1.7140999E-02 -1.1102230E-16
vertex 0.0000000E+00 2.4999000E-02 -1.1102230E-16
vertex -1.7678000E-02 1.7676000E-02 -1.1102230E-16
endloop
endfacet
facet normal 0.0000000E+00 -0.0000000E+00 1.0000000E+00
outer loop
vertex -1.6263001E-02 1.6263001E-02 -1.1102230E-16
vertex -1.4142000E-02 1.7140999E-02 -1.1102230E-16
vertex -1.7678000E-02 1.7676000E-02 -1.1102230E-16
endloop
endfacet
facet normal 0.0000000E+00 0.0000000E+00 1.0000000E+00
outer loop
vertex 1.7879000E-02 -2.1230001E-03 -1.1102230E-16
vertex 1.6263001E-02 -1.2022000E-02 -1.1102230E-16
vertex 2.0000000E-02 -3.0020000E-03 -1.1102230E-16
endloop
endfacet
facet normal 0.0000000E+00 0.0000000E+00 1.0000000E+00
outer loop
vertex 1.7879000E-02 -2.1230001E-03 -1.1102230E-16
vertex 1.4142000E-02 -1.1144000E-02 -1.1102230E-16
vertex 1.6263001E-02 -1.2022000E-02 -1.1102230E-16
endloop
endfacet
facet normal 0.0000000E+00 -0.0000000E+00 1.0000000E+00
outer loop
vertex 1.7879000E-02 2.1200001E-03 -1.1102230E-16
vertex 2.0000000E-02 2.9980000E-03 -1.1102230E-16
vertex 1.6264001E-02 1.2019000E-02 -1.1102230E-16
endloop
endfacet
facet normal -0.0000000E+00 -0.0000000E+00 1.0000000E+00
outer loop
vertex 2.0000000E-02 2.9980000E-03 -1.1102230E-16
vertex 2.2120999E-02 2.1200001E-03 -1.1102230E-16
vertex 1.7142000E-02 1.4141000E-02 -1.1102230E-16
endloop
endfacet
facet normal 0.0000000E+00 -0.0000000E+00 9.9999994E-01
outer loop
vertex 1.7678000E-02 -1.7679000E-02 -1.1102230E-16
vertex 2.2120999E-02 -2.1230001E-03 -1.1102230E-16
vertex 1.7142000E-02 -1.4144000E-02 -1.1102230E-16
endloop
endfacet
facet normal 0.0000000E+00 0.0000000E+00 1.0000000E+00
outer loop
vertex 1.7142000E-02 -1.4144000E-02 -1.1102230E-16
vertex 2.2120999E-02 -2.1230001E-03 -1.1102230E-16
vertex 2.0000000E-02 -3.0020000E-03 -1.1102230E-16
endloop
endfacet
facet normal -0.0000000E+00 0.0000000E+00 1.0000000E+00
outer loop
vertex 1.6263001E-02 -1.2022000E-02 -1.1102230E-16
vertex 1.7142000E-02 -1.4144000E-02 -1.1102230E-16
vertex 2.0000000E-02 -3.0020000E-03 -1.1102230E-16
endloop
endfacet
facet normal 0.0000000E+00 0.0000000E+00 9.9999994E-01
outer loop
vertex 1.4142000E-02 -1.7144000E-02 -1.1102230E-16
vertex 1.2020000E-02 -1.6264999E-02 -1.1102230E-16
vertex 0.0000000E+00 -2.5001001E-02 -1.1102230E-16
endloop
endfacet
facet normal 0.0000000E+00 0.0000000E+00 1.0000000E+00
outer loop
vertex 1.2020000E-02 -1.6264999E-02 -1.1102230E-16
vertex 1.1142000E-02 -1.4144000E-02 -1.1102230E-16
vertex 0.0000000E+00 -1.2501000E-02 -1.1102230E-16
endloop
endfacet
facet normal -0.0000000E+00 0.0000000E+00 9.9999994E-01
outer loop
vertex -1.4142000E-02 1.7140999E-02 -1.1102230E-16
vertex -1.2020000E-02 1.6263001E-02 -1.1102230E-16
vertex 0.0000000E+00 2.4999000E-02 -1.1102230E-16
endloop
endfacet
facet normal -0.0000000E+00 0.0000000E+00 1.0000000E+00
outer loop
vertex -1.1142000E-02 -1.4143000E-02 -1.1102230E-16
vertex -1.2021000E-02 -1.6264001E-02 -1.1102230E-16
vertex 0.0000000E+00 -1.2501000E-02 -1.1102230E-16
endloop
endfacet
facet normal 0.0000000E+00 0.0000000E+00 1.0000000E+00
outer loop
vertex -1.2021000E-02 -1.6264001E-02 -1.1102230E-16
vertex -1.4143000E-02 -1.7143000E-02 -1.1102230E-16
vertex 0.0000000E+00 -2.5001001E-02 -1.1102230E-16
endloop
endfacet
facet normal 0.0000000E+00 0.0000000E+00 1.0000000E+00
outer loop
vertex 0.0000000E+00 2.4999000E-02 -1.1102230E-16
vertex 0.0000000E+00 1.2499000E-02 -1.1102230E-16
vertex 1.2021000E-02 1.6262000E-02 -1.1102230E-16
endloop
endfacet
facet normal 0.0000000E+00 0.0000000E+00 1.0000000E+00
outer loop
vertex 0.0000000E+00 2.4999000E-02 -1.1102230E-16
vertex 1.4143000E-02 1.7140999E-02 -1.1102230E-16
vertex 1.7678000E-02 1.7676000E-02 -1.1102230E-16
endloop
endfacet
facet normal 0.0000000E+00 0.0000000E+00 -9.9999994E-01
outer loop
vertex 1.7142000E-02 1.4141000E-02 -8.9999996E-03
vertex 1.6264001E-02 1.6262000E-02 -8.9999996E-03
vertex 1.7678000E-02 1.7676000E-02 -8.9999996E-03
endloop
endfacet
facet normal 0.0000000E+00 0.0000000E+00 -1.0000000E+00
outer loop
vertex 2.2120999E-02 2.1200001E-03 -8.9999996E-03
vertex 1.7678000E-02 1.7676000E-02 -8.9999996E-03
vertex 2.5000000E-02 -1.0000000E-06 -8.9999996E-03
endloop
endfacet
facet normal 0.0000000E+00 -0.0000000E+00 -1.0000000E+00
outer loop
vertex 2.3000000E-02 -2.0000000E-06 -8.9999996E-03
vertex 2.5000000E-02 -1.0000000E-06 -8.9999996E-03
vertex 2.2120999E-02 -2.1230001E-03 -8.9999996E-03
endloop
endfacet
facet normal 0.0000000E+00 0.0000000E+00 -1.0000000E+00
outer loop
vertex 2.3000000E-02 -2.0000000E-06 -8.9999996E-03
vertex 2.2120999E-02 2.1200001E-03 -8.9999996E-03
vertex 2.5000000E-02 -1.0000000E-06 -8.9999996E-03
endloop
endfacet
facet normal 0.0000000E+00 0.0000000E+00 -1.0000000E+00
outer loop
vertex 2.5000000E-02 -1.0000000E-06 -8.9999996E-03
vertex 1.7678000E-02 -1.7679000E-02 -8.9999996E-03
vertex 2.2120999E-02 -2.1230001E-03 -8.9999996E-03
endloop
endfacet
facet normal 0.0000000E+00 0.0000000E+00 -1.0000000E+00
outer loop
vertex 2.2120999E-02 -2.1230001E-03 -8.9999996E-03
vertex 1.7678000E-02 -1.7679000E-02 -8.9999996E-03
vertex 1.7142000E-02 -1.4144000E-02 -8.9999996E-03
endloop
endfacet
facet normal 0.0000000E+00 0.0000000E+00 -1.0000000E+00
outer loop
vertex 2.0000000E-02 -3.0020000E-03 -8.9999996E-03
vertex 1.7142000E-02 -1.4144000E-02 -8.9999996E-03
vertex 1.6263001E-02 -1.2022000E-02 -8.9999996E-03
endloop
endfacet
facet normal 0.0000000E+00 0.0000000E+00 -1.0000000E+00
outer loop
vertex 1.7879000E-02 -2.1230001E-03 -8.9999996E-03
vertex 1.6263001E-02 -1.2022000E-02 -8.9999996E-03
vertex 1.4142000E-02 -1.1144000E-02 -8.9999996E-03
endloop
endfacet
facet normal 0.0000000E+00 -0.0000000E+00 -1.0000000E+00
outer loop
vertex 8.8269999E-03 -1.4000000E-03 -8.9999996E-03
vertex 1.4142000E-02 -1.1144000E-02 -8.9999996E-03
vertex 6.3200002E-03 -6.3209999E-03 -8.9999996E-03
endloop
endfacet
facet normal 0.0000000E+00 0.0000000E+00 -1.0000000E+00
outer loop
vertex 8.8269999E-03 -1.4000000E-03 -8.9999996E-03
vertex 1.7879000E-02 -2.1230001E-03 -8.9999996E-03
vertex 1.4142000E-02 -1.1144000E-02 -8.9999996E-03
endloop
endfacet
facet normal 0.0000000E+00 0.0000000E+00 -1.0000000E+00
outer loop
vertex 8.8269999E-03 -1.4000000E-03 -8.9999996E-03
vertex 1.7000001E-02 -2.0000000E-06 -8.9999996E-03
vertex 1.7879000E-02 -2.1230001E-03 -8.9999996E-03
endloop
endfacet
facet normal 0.0000000E+00 0.0000000E+00 -1.0000000E+00
outer loop
vertex 8.8269999E-03 -1.4000000E-03 -8.9999996E-03
vertex 7.9629999E-03 4.0560002E-03 -8.9999996E-03
vertex 1.7000001E-02 -2.0000000E-06 -8.9999996E-03
endloop
endfacet
facet normal 0.0000000E+00 0.0000000E+00 -9.9999994E-01
outer loop
vertex 1.7000001E-02 -2.0000000E-06 -8.9999996E-03
vertex 7.9629999E-03 4.0560002E-03 -8.9999996E-03
vertex 1.7879000E-02 2.1200001E-03 -8.9999996E-03
endloop
endfacet
facet normal 0.0000000E+00 0.0000000E+00 -1.0000000E+00
outer loop
vertex 1.7879000E-02 2.1200001E-03 -8.9999996E-03
vertex 7.9629999E-03 4.0560002E-03 -8.9999996E-03
vertex 1.4143000E-02 1.1141000E-02 -8.9999996E-03
endloop
endfacet
facet normal 0.0000000E+00 -0.0000000E+00 -1.0000000E+00
outer loop
vertex 1.6264001E-02 1.2019000E-02 -8.9999996E-03
vertex 1.7879000E-02 2.1200001E-03 -8.9999996E-03
vertex 1.4143000E-02 1.1141000E-02 -8.9999996E-03
endloop
endfacet
facet normal 0.0000000E+00 0.0000000E+00 -9.9999994E-01
outer loop
vertex 1.6264001E-02 1.2019000E-02 -8.9999996E-03
vertex 2.0000000E-02 2.9980000E-03 -8.9999996E-03
vertex 1.7879000E-02 2.1200001E-03 -8.9999996E-03
endloop
endfacet
facet normal 0.0000000E+00 0.0000000E+00 -1.0000000E+00
outer loop
vertex 1.6264001E-02 1.2019000E-02 -8.9999996E-03
vertex 1.7142000E-02 1.4141000E-02 -8.9999996E-03
vertex 2.0000000E-02 2.9980000E-03 -8.9999996E-03
endloop
endfacet
facet normal 0.0000000E+00 0.0000000E+00 -1.0000000E+00
outer loop
vertex 2.0000000E-02 2.9980000E-03 -8.9999996E-03
vertex 1.7142000E-02 1.4141000E-02 -8.9999996E-03
vertex 2.2120999E-02 2.1200001E-03 -8.9999996E-03
endloop
endfacet
facet normal 0.0000000E+00 0.0000000E+00 -1.0000000E+00
outer loop
vertex 2.2120999E-02 2.1200001E-03 -8.9999996E-03
vertex 1.7142000E-02 1.4141000E-02 -8.9999996E-03
vertex 1.7678000E-02 1.7676000E-02 -8.9999996E-03
endloop
endfacet
facet normal 0.0000000E+00 -0.0000000E+00 -1.0000000E+00
outer loop
vertex 1.1142000E-02 -1.4144000E-02 -8.9999996E-03
vertex 1.2020000E-02 -1.6264999E-02 -8.9999996E-03
vertex 0.0000000E+00 -2.5001001E-02 -8.9999996E-03
endloop
endfacet
facet normal -0.0000000E+00 0.0000000E+00 -1.0000000E+00
outer loop
vertex 1.3980001E-03 -8.8290004E-03 -8.9999996E-03
vertex 0.0000000E+00 -2.5001001E-02 -8.9999996E-03
vertex -4.0580002E-03 -7.9640001E-03 -8.9999996E-03
endloop
endfacet
facet normal 0.0000000E+00 -0.0000000E+00 -1.0000000E+00
outer loop
vertex 1.3980001E-03 -8.8290004E-03 -8.9999996E-03
vertex 1.1142000E-02 -1.4144000E-02 -8.9999996E-03
vertex 0.0000000E+00 -2.5001001E-02 -8.9999996E-03
endloop
endfacet
facet normal 0.0000000E+00 0.0000000E+00 -1.0000000E+00
outer loop
vertex 1.3980001E-03 -8.8290004E-03 -8.9999996E-03
vertex 6.3200002E-03 -6.3209999E-03 -8.9999996E-03
vertex 1.1142000E-02 -1.4144000E-02 -8.9999996E-03
endloop
endfacet
facet normal 0.0000000E+00 0.0000000E+00 -1.0000000E+00
outer loop
vertex 1.1142000E-02 -1.4144000E-02 -8.9999996E-03
vertex 6.3200002E-03 -6.3209999E-03 -8.9999996E-03
vertex 1.2020000E-02 -1.2022000E-02 -8.9999996E-03
endloop
endfacet
facet normal 0.0000000E+00 0.0000000E+00 -1.0000000E+00
outer loop
vertex 1.2020000E-02 -1.2022000E-02 -8.9999996E-03
vertex 6.3200002E-03 -6.3209999E-03 -8.9999996E-03
vertex 1.4142000E-02 -1.1144000E-02 -8.9999996E-03
endloop
endfacet
facet normal 0.0000000E+00 -0.0000000E+00 -1.0000000E+00
outer loop
vertex -1.7143000E-02 -1.4143000E-02 -8.9999996E-03
vertex -1.6264001E-02 -1.6264001E-02 -8.9999996E-03
vertex -1.7678000E-02 -1.7679000E-02 -8.9999996E-03
endloop
endfacet
facet normal 0.0000000E+00 0.0000000E+00 -1.0000000E+00
outer loop
vertex -2.5000000E-02 -1.0000000E-06 -8.9999996E-03
vertex -1.7143000E-02 -1.4143000E-02 -8.9999996E-03
vertex -1.7678000E-02 -1.7679000E-02 -8.9999996E-03
endloop
endfacet
facet normal 0.0000000E+00 0.0000000E+00 -9.9999994E-01
outer loop
vertex -2.5000000E-02 -1.0000000E-06 -8.9999996E-03
vertex -1.6264001E-02 -1.2022000E-02 -8.9999996E-03
vertex -1.7143000E-02 -1.4143000E-02 -8.9999996E-03
endloop
endfacet
facet normal 0.0000000E+00 0.0000000E+00 -1.0000000E+00
outer loop
vertex -2.5000000E-02 -1.0000000E-06 -8.9999996E-03
vertex -1.4143000E-02 -1.1143000E-02 -8.9999996E-03
vertex -1.6264001E-02 -1.2022000E-02 -8.9999996E-03
endloop
endfacet
facet normal 0.0000000E+00 0.0000000E+00 -1.0000000E+00
outer loop
vertex -2.5000000E-02 -1.0000000E-06 -8.9999996E-03
vertex -7.9629999E-03 -4.0580002E-03 -8.9999996E-03
vertex -1.4143000E-02 -1.1143000E-02 -8.9999996E-03
endloop
endfacet
facet normal 0.0000000E+00 0.0000000E+00 -1.0000000E+00
outer loop
vertex -2.5000000E-02 -1.0000000E-06 -8.9999996E-03
vertex -8.8269999E-03 1.3970000E-03 -8.9999996E-03
vertex -7.9629999E-03 -4.0580002E-03 -8.9999996E-03
endloop
endfacet
facet normal 0.0000000E+00 0.0000000E+00 -1.0000000E+00
outer loop
vertex -2.5000000E-02 -1.0000000E-06 -8.9999996E-03
vertex -1.4142000E-02 1.1141000E-02 -8.9999996E-03
vertex -8.8269999E-03 1.3970000E-03 -8.9999996E-03
endloop
endfacet
facet normal 0.0000000E+00 0.0000000E+00 -1.0000000E+00
outer loop
vertex -2.5000000E-02 -1.0000000E-06 -8.9999996E-03
vertex -1.6263001E-02 1.2020000E-02 -8.9999996E-03
vertex -1.4142000E-02 1.1141000E-02 -8.9999996E-03
endloop
endfacet
facet normal 0.0000000E+00 0.0000000E+00 -1.0000000E+00
outer loop
vertex -2.5000000E-02 -1.0000000E-06 -8.9999996E-03
vertex -1.7142000E-02 1.4141000E-02 -8.9999996E-03
vertex -1.6263001E-02 1.2020000E-02 -8.9999996E-03
endloop
endfacet
facet normal 0.0000000E+00 0.0000000E+00 -1.0000000E+00
outer loop
vertex -2.5000000E-02 -1.0000000E-06 -8.9999996E-03
vertex -1.7678000E-02 1.7676000E-02 -8.9999996E-03
vertex -1.7142000E-02 1.4141000E-02 -8.9999996E-03
endloop
endfacet
facet normal 0.0000000E+00 0.0000000E+00 -1.0000000E+00
outer loop
vertex -1.7142000E-02 1.4141000E-02 -8.9999996E-03
vertex -1.7678000E-02 1.7676000E-02 -8.9999996E-03
vertex -1.6263001E-02 1.6263001E-02 -8.9999996E-03
endloop
endfacet
facet normal 0.0000000E+00 0.0000000E+00 -1.0000000E+00
outer loop
vertex -1.6263001E-02 1.6263001E-02 -8.9999996E-03
vertex -1.7678000E-02 1.7676000E-02 -8.9999996E-03
vertex -1.4142000E-02 1.7140999E-02 -8.9999996E-03
endloop
endfacet
facet normal 0.0000000E+00 0.0000000E+00 -1.0000000E+00
outer loop
vertex -1.4142000E-02 1.7140999E-02 -8.9999996E-03
vertex -1.7678000E-02 1.7676000E-02 -8.9999996E-03
vertex 0.0000000E+00 2.4999000E-02 -8.9999996E-03
endloop
endfacet
facet normal 0.0000000E+00 0.0000000E+00 -1.0000000E+00
outer loop
vertex -1.2020000E-02 1.6263001E-02 -8.9999996E-03
vertex 0.0000000E+00 2.4999000E-02 -8.9999996E-03
vertex -1.1142000E-02 1.4141000E-02 -8.9999996E-03
endloop
endfacet
facet normal 0.0000000E+00 0.0000000E+00 -1.0000000E+00
outer loop
vertex -1.2020000E-02 1.6263001E-02 -8.9999996E-03
vertex -1.4142000E-02 1.7140999E-02 -8.9999996E-03
vertex 0.0000000E+00 2.4999000E-02 -8.9999996E-03
endloop
endfacet
facet normal -0.0000000E+00 0.0000000E+00 -1.0000000E+00
outer loop
vertex 1.4143000E-02 1.1141000E-02 -8.9999996E-03
vertex 7.9629999E-03 4.0560002E-03 -8.9999996E-03
vertex 1.2021000E-02 1.2019000E-02 -8.9999996E-03
endloop
endfacet
facet normal 0.0000000E+00 0.0000000E+00 -1.0000000E+00
outer loop
vertex 1.2021000E-02 1.2019000E-02 -8.9999996E-03
vertex 7.9629999E-03 4.0560002E-03 -8.9999996E-03
vertex 4.0580002E-03 7.9619996E-03 -8.9999996E-03
endloop
endfacet
facet normal -0.0000000E+00 0.0000000E+00 -1.0000000E+00
outer loop
vertex 1.1143000E-02 1.4141000E-02 -8.9999996E-03
vertex 4.0580002E-03 7.9619996E-03 -8.9999996E-03
vertex 0.0000000E+00 2.4999000E-02 -8.9999996E-03
endloop
endfacet
facet normal 0.0000000E+00 0.0000000E+00 -1.0000000E+00
outer loop
vertex 1.2021000E-02 1.6262000E-02 -8.9999996E-03
vertex 0.0000000E+00 2.4999000E-02 -8.9999996E-03
vertex 1.4143000E-02 1.7140999E-02 -8.9999996E-03
endloop
endfacet
facet normal -0.0000000E+00 0.0000000E+00 -1.0000000E+00
outer loop
vertex 1.2021000E-02 1.6262000E-02 -8.9999996E-03
vertex 1.1143000E-02 1.4141000E-02 -8.9999996E-03
vertex 0.0000000E+00 2.4999000E-02 -8.9999996E-03
endloop
endfacet
facet normal 0.0000000E+00 0.0000000E+00 -9.9999994E-01
outer loop
vertex 4.0580002E-03 7.9619996E-03 -8.9999996E-03
vertex -1.3980001E-03 8.8259997E-03 -8.9999996E-03
vertex 0.0000000E+00 2.4999000E-02 -8.9999996E-03
endloop
endfacet
facet normal 0.0000000E+00 0.0000000E+00 -1.0000000E+00
outer loop
vertex 0.0000000E+00 2.4999000E-02 -8.9999996E-03
vertex -1.3980001E-03 8.8259997E-03 -8.9999996E-03
vertex -1.1142000E-02 1.4141000E-02 -8.9999996E-03
endloop
endfacet
facet normal 0.0000000E+00 0.0000000E+00 -9.9999994E-01
outer loop
vertex -1.1142000E-02 1.4141000E-02 -8.9999996E-03
vertex -1.3980001E-03 8.8259997E-03 -8.9999996E-03
vertex -6.3200002E-03 6.3189999E-03 -8.9999996E-03
endloop
endfacet
facet normal 0.0000000E+00 -0.0000000E+00 -1.0000000E+00
outer loop
vertex -1.2020000E-02 1.2020000E-02 -8.9999996E-03
vertex -6.3200002E-03 6.3189999E-03 -8.9999996E-03
vertex -1.4142000E-02 1.1141000E-02 -8.9999996E-03
endloop
endfacet
facet normal 0.0000000E+00 0.0000000E+00 -1.0000000E+00
outer loop
vertex -1.2020000E-02 1.2020000E-02 -8.9999996E-03
vertex -1.1142000E-02 1.4141000E-02 -8.9999996E-03
vertex -6.3200002E-03 6.3189999E-03 -8.9999996E-03
endloop
endfacet
facet normal -0.0000000E+00 0.0000000E+00 -1.0000000E+00
outer loop
vertex -6.3200002E-03 6.3189999E-03 -8.9999996E-03
vertex -8.8269999E-03 1.3970000E-03 -8.9999996E-03
vertex -1.4142000E-02 1.1141000E-02 -8.9999996E-03
endloop
endfacet
facet normal 0.0000000E+00 0.0000000E+00 -1.0000000E+00
outer loop
vertex -1.4143000E-02 -1.1143000E-02 -8.9999996E-03
vertex -7.9629999E-03 -4.0580002E-03 -8.9999996E-03
vertex -1.2021000E-02 -1.2022000E-02 -8.9999996E-03
endloop
endfacet
facet normal 0.0000000E+00 0.0000000E+00 -1.0000000E+00
outer loop
vertex -1.2021000E-02 -1.2022000E-02 -8.9999996E-03
vertex -7.9629999E-03 -4.0580002E-03 -8.9999996E-03
vertex -4.0580002E-03 -7.9640001E-03 -8.9999996E-03
endloop
endfacet
facet normal 0.0000000E+00 0.0000000E+00 -9.9999994E-01
outer loop
vertex -1.1142000E-02 -1.4143000E-02 -8.9999996E-03
vertex -4.0580002E-03 -7.9640001E-03 -8.9999996E-03
vertex 0.0000000E+00 -2.5001001E-02 -8.9999996E-03
endloop
endfacet
facet normal 0.0000000E+00 -0.0000000E+00 -1.0000000E+00
outer loop
vertex -1.2021000E-02 -1.6264001E-02 -8.9999996E-03
vertex 0.0000000E+00 -2.5001001E-02 -8.9999996E-03
vertex -1.4143000E-02 -1.7143000E-02 -8.9999996E-03
endloop
endfacet
facet normal 0.0000000E+00 0.0000000E+00 -1.0000000E+00
outer loop
vertex -1.2021000E-02 -1.6264001E-02 -8.9999996E-03
vertex -1.1142000E-02 -1.4143000E-02 -8.9999996E-03
vertex 0.0000000E+00 -2.5001001E-02 -8.9999996E-03
endloop
endfacet
facet normal 0.0000000E+00 -0.0000000E+00 -1.0000000E+00
outer loop
vertex 2.0000000E-02 -3.0020000E-03 -8.9999996E-03
vertex 2.2120999E-02 -2.1230001E-03 -8.9999996E-03
vertex 1.7142000E-02 -1.4144000E-02 -8.9999996E-03
endloop
endfacet
facet normal 0.0000000E+00 -0.0000000E+00 -1.0000000E+00
outer loop
vertex 1.7879000E-02 -2.1230001E-03 -8.9999996E-03
vertex 2.0000000E-02 -3.0020000E-03 -8.9999996E-03
vertex 1.6263001E-02 -1.2022000E-02 -8.9999996E-03
endloop
endfacet
facet normal 0.0000000E+00 -0.0000000E+00 -1.0000000E+00
outer loop
vertex 1.6263001E-02 -1.6264999E-02 -8.9999996E-03
vertex 1.7678000E-02 -1.7679000E-02 -8.9999996E-03
vertex 1.4142000E-02 -1.7144000E-02 -8.9999996E-03
endloop
endfacet
facet normal 0.0000000E+00 0.0000000E+00 -1.0000000E+00
outer loop
vertex 1.6263001E-02 -1.6264999E-02 -8.9999996E-03
vertex 1.7142000E-02 -1.4144000E-02 -8.9999996E-03
vertex 1.7678000E-02 -1.7679000E-02 -8.9999996E-03
endloop
endfacet
facet normal 0.0000000E+00 -0.0000000E+00 -1.0000000E+00
outer loop
vertex 1.2020000E-02 -1.6264999E-02 -8.9999996E-03
vertex 1.4142000E-02 -1.7144000E-02 -8.9999996E-03
vertex 0.0000000E+00 -2.5001001E-02 -8.9999996E-03
endloop
endfacet
facet normal 0.0000000E+00 0.0000000E+00 -1.0000000E+00
outer loop
vertex 0.0000000E+00 -2.5001001E-02 -8.9999996E-03
vertex 1.4142000E-02 -1.7144000E-02 -8.9999996E-03
vertex 1.7678000E-02 -1.7679000E-02 -8.9999996E-03
endloop
endfacet
facet normal 0.0000000E+00 0.0000000E+00 -1.0000000E+00
outer loop
vertex 1.6264001E-02 1.6262000E-02 -8.9999996E-03
vertex 1.4143000E-02 1.7140999E-02 -8.9999996E-03
vertex 1.7678000E-02 1.7676000E-02 -8.9999996E-03
endloop
endfacet
facet normal -0.0000000E+00 0.0000000E+00 -1.0000000E+00
outer loop
vertex 1.7678000E-02 1.7676000E-02 -8.9999996E-03
vertex 1.4143000E-02 1.7140999E-02 -8.9999996E-03
vertex 0.0000000E+00 2.4999000E-02 -8.9999996E-03
endloop
endfacet
facet normal 0.0000000E+00 -0.0000000E+00 -1.0000000E+00
outer loop
vertex 1.1143000E-02 1.4141000E-02 -8.9999996E-03
vertex 1.2021000E-02 1.2019000E-02 -8.9999996E-03
vertex 4.0580002E-03 7.9619996E-03 -8.9999996E-03
endloop
endfacet
facet normal 0.0000000E+00 0.0000000E+00 -1.0000000E+00
outer loop
vertex -1.1142000E-02 -1.4143000E-02 -8.9999996E-03
vertex -1.2021000E-02 -1.2022000E-02 -8.9999996E-03
vertex -4.0580002E-03 -7.9640001E-03 -8.9999996E-03
endloop
endfacet
facet normal 0.0000000E+00 -0.0000000E+00 -1.0000000E+00
outer loop
vertex -1.6264001E-02 -1.6264001E-02 -8.9999996E-03
vertex -1.4143000E-02 -1.7143000E-02 -8.9999996E-03
vertex -1.7678000E-02 -1.7679000E-02 -8.9999996E-03
endloop
endfacet
facet normal 0.0000000E+00 0.0000000E+00 -1.0000000E+00
outer loop
vertex -1.7678000E-02 -1.7679000E-02 -8.9999996E-03
vertex -1.4143000E-02 -1.7143000E-02 -8.9999996E-03
vertex 0.0000000E+00 -2.5001001E-02 -8.9999996E-03
endloop
endfacet
facet normal -3.8269776E-01 -9.2387366E-01 -0.0000000E+00
outer loop
vertex -1.4143000E-02 -1.1143000E-02 -1.1102230E-16
vertex -1.4143000E-02 -1.1143000E-02 -8.9999996E-03
vertex -1.2021000E-02 -1.2022000E-02 -1.1102230E-16
endloop
endfacet
facet normal -3.8269776E-01 -9.2387366E-01 -0.0000000E+00
outer loop
vertex -1.2021000E-02 -1.2022000E-02 -1.1102230E-16
vertex -1.4143000E-02 -1.1143000E-02 -8.9999996E-03
vertex -1.2021000E-02 -1.2022000E-02 -8.9999996E-03
endloop
endfacet
facet normal -9.2380983E-01 -3.8285178E-01 -0.0000000E+00
outer loop
vertex -1.1142000E-02 -1.4143000E-02 -1.1102230E-16
vertex -1.2021000E-02 -1.2022000E-02 -8.9999996E-03
vertex -1.1142000E-02 -1.4143000E-02 -8.9999996E-03
endloop
endfacet
facet normal -9.2380983E-01 3.8285178E-01 0.0000000E+00
outer loop
vertex -1.2021000E-02 -1.6264001E-02 -1.1102230E-16
vertex -1.1142000E-02 -1.4143000E-02 -8.9999996E-03
vertex -1.2021000E-02 -1.6264001E-02 -8.9999996E-03
endloop
endfacet
facet normal -3.8269734E-01 9.2387372E-01 0.0000000E+00
outer loop
vertex -1.4143000E-02 -1.7143000E-02 -1.1102230E-16
vertex -1.2021000E-02 -1.6264001E-02 -8.9999996E-03
vertex -1.4143000E-02 -1.7143000E-02 -8.9999996E-03
endloop
endfacet
facet normal -3.8269734E-01 9.2387372E-01 0.0000000E+00
outer loop
vertex -1.4143000E-02 -1.7143000E-02 -1.1102230E-16
vertex -1.2021000E-02 -1.6264001E-02 -1.1102230E-16
vertex -1.2021000E-02 -1.6264001E-02 -8.9999996E-03
endloop
endfacet
facet normal -9.2380983E-01 3.8285178E-01 0.0000000E+00
outer loop
vertex -1.2021000E-02 -1.6264001E-02 -1.1102230E-16
vertex -1.1142000E-02 -1.4143000E-02 -1.1102230E-16
vertex -1.1142000E-02 -1.4143000E-02 -8.9999996E-03
endloop
endfacet
facet normal -9.2380983E-01 -3.8285178E-01 0.0000000E+00
outer loop
vertex -1.1142000E-02 -1.4143000E-02 -1.1102230E-16
vertex -1.2021000E-02 -1.2022000E-02 -1.1102230E-16
vertex -1.2021000E-02 -1.2022000E-02 -8.9999996E-03
endloop
endfacet
facet normal -3.8248006E-01 -9.2396367E-01 -0.0000000E+00
outer loop
vertex 2.0000000E-02 2.9980000E-03 -1.1102230E-16
vertex 2.0000000E-02 2.9980000E-03 -8.9999996E-03
vertex 2.2120999E-02 2.1200001E-03 -1.1102230E-16
endloop
endfacet
facet normal -3.8248006E-01 -9.2396367E-01 -0.0000000E+00
outer loop
vertex 2.2120999E-02 2.1200001E-03 -1.1102230E-16
vertex 2.0000000E-02 2.9980000E-03 -8.9999996E-03
vertex 2.2120999E-02 2.1200001E-03 -8.9999996E-03
endloop
endfacet
facet normal -9.2387348E-01 -3.8269818E-01 -0.0000000E+00
outer loop
vertex 2.3000000E-02 -2.0000000E-06 -1.1102230E-16
vertex 2.2120999E-02 2.1200001E-03 -8.9999996E-03
vertex 2.3000000E-02 -2.0000000E-06 -8.9999996E-03
endloop
endfacet
facet normal -9.2380965E-01 3.8285217E-01 0.0000000E+00
outer loop
vertex 2.2120999E-02 -2.1230001E-03 -1.1102230E-16
vertex 2.3000000E-02 -2.0000000E-06 -8.9999996E-03
vertex 2.2120999E-02 -2.1230001E-03 -8.9999996E-03
endloop
endfacet
facet normal -3.8285190E-01 9.2380971E-01 0.0000000E+00
outer loop
vertex 2.0000000E-02 -3.0020000E-03 -1.1102230E-16
vertex 2.2120999E-02 -2.1230001E-03 -8.9999996E-03
vertex 2.0000000E-02 -3.0020000E-03 -8.9999996E-03
endloop
endfacet
facet normal -3.8285190E-01 9.2380971E-01 0.0000000E+00
outer loop
vertex 2.0000000E-02 -3.0020000E-03 -1.1102230E-16
vertex 2.2120999E-02 -2.1230001E-03 -1.1102230E-16
vertex 2.2120999E-02 -2.1230001E-03 -8.9999996E-03
endloop
endfacet
facet normal -9.2380965E-01 3.8285217E-01 0.0000000E+00
outer loop
vertex 2.2120999E-02 -2.1230001E-03 -1.1102230E-16
vertex 2.3000000E-02 -2.0000000E-06 -1.1102230E-16
vertex 2.3000000E-02 -2.0000000E-06 -8.9999996E-03
endloop
endfacet
facet normal -9.2387348E-01 -3.8269818E-01 0.0000000E+00
outer loop
vertex 2.3000000E-02 -2.0000000E-06 -1.1102230E-16
vertex 2.2120999E-02 2.1200001E-03 -1.1102230E-16
vertex 2.2120999E-02 2.1200001E-03 -8.9999996E-03
endloop
endfacet
facet normal 3.8232595E-01 9.2402756E-01 0.0000000E+00
outer loop
vertex 1.4143000E-02 1.1141000E-02 -1.1102230E-16
vertex 1.4143000E-02 1.1141000E-02 -8.9999996E-03
vertex 1.2021000E-02 1.2019000E-02 -1.1102230E-16
endloop
endfacet
facet normal 3.8232595E-01 9.2402756E-01 0.0000000E+00
outer loop
vertex 1.2021000E-02 1.2019000E-02 -1.1102230E-16
vertex 1.4143000E-02 1.1141000E-02 -8.9999996E-03
vertex 1.2021000E-02 1.2019000E-02 -8.9999996E-03
endloop
endfacet
facet normal 9.2402744E-01 3.8232607E-01 0.0000000E+00
outer loop
vertex 1.1143000E-02 1.4141000E-02 -1.1102230E-16
vertex 1.2021000E-02 1.2019000E-02 -8.9999996E-03
vertex 1.1143000E-02 1.4141000E-02 -8.9999996E-03
endloop
endfacet
facet normal 9.2396384E-01 -3.8247988E-01 0.0000000E+00
outer loop
vertex 1.2021000E-02 1.6262000E-02 -1.1102230E-16
vertex 1.1143000E-02 1.4141000E-02 -8.9999996E-03
vertex 1.2021000E-02 1.6262000E-02 -8.9999996E-03
endloop
endfacet
facet normal 3.8269734E-01 -9.2387372E-01 0.0000000E+00
outer loop
vertex 1.4143000E-02 1.7140999E-02 -1.1102230E-16
vertex 1.2021000E-02 1.6262000E-02 -8.9999996E-03
vertex 1.4143000E-02 1.7140999E-02 -8.9999996E-03
endloop
endfacet
facet normal 3.8269734E-01 -9.2387372E-01 0.0000000E+00
outer loop
vertex 1.4143000E-02 1.7140999E-02 -1.1102230E-16
vertex 1.2021000E-02 1.6262000E-02 -1.1102230E-16
vertex 1.2021000E-02 1.6262000E-02 -8.9999996E-03
endloop
endfacet
facet normal 9.2396384E-01 -3.8247988E-01 0.0000000E+00
outer loop
vertex 1.2021000E-02 1.6262000E-02 -1.1102230E-16
vertex 1.1143000E-02 1.4141000E-02 -1.1102230E-16
vertex 1.1143000E-02 1.4141000E-02 -8.9999996E-03
endloop
endfacet
facet normal 9.2402744E-01 3.8232607E-01 0.0000000E+00
outer loop
vertex 1.1143000E-02 1.4141000E-02 -1.1102230E-16
vertex 1.2021000E-02 1.2019000E-02 -1.1102230E-16
vertex 1.2021000E-02 1.2019000E-02 -8.9999996E-03
endloop
endfacet
facet normal -3.8270721E-01 9.2386973E-01 0.0000000E+00
outer loop
vertex 0.0000000E+00 2.4999000E-02 -1.1102230E-16
vertex 0.0000000E+00 2.4999000E-02 -8.9999996E-03
vertex -1.7678000E-02 1.7676000E-02 -1.1102230E-16
endloop
endfacet
facet normal -3.8270721E-01 9.2386973E-01 0.0000000E+00
outer loop
vertex -1.7678000E-02 1.7676000E-02 -1.1102230E-16
vertex 0.0000000E+00 2.4999000E-02 -8.9999996E-03
vertex -1.7678000E-02 1.7676000E-02 -8.9999996E-03
endloop
endfacet
facet normal -9.2388052E-01 3.8268107E-01 0.0000000E+00
outer loop
vertex -2.5000000E-02 -1.0000000E-06 -1.1102230E-16
vertex -1.7678000E-02 1.7676000E-02 -8.9999996E-03
vertex -2.5000000E-02 -1.0000000E-06 -8.9999996E-03
endloop
endfacet
facet normal -9.2388815E-01 -3.8266256E-01 -0.0000000E+00
outer loop
vertex -1.7678000E-02 -1.7679000E-02 -1.1102230E-16
vertex -2.5000000E-02 -1.0000000E-06 -8.9999996E-03
vertex -1.7678000E-02 -1.7679000E-02 -8.9999996E-03
endloop
endfacet
facet normal -3.8266256E-01 -9.2388815E-01 -0.0000000E+00
outer loop
vertex 0.0000000E+00 -2.5001001E-02 -1.1102230E-16
vertex -1.7678000E-02 -1.7679000E-02 -8.9999996E-03
vertex 0.0000000E+00 -2.5001001E-02 -8.9999996E-03
endloop
endfacet
facet normal -3.8266256E-01 -9.2388815E-01 0.0000000E+00
outer loop
vertex 0.0000000E+00 -2.5001001E-02 -1.1102230E-16
vertex -1.7678000E-02 -1.7679000E-02 -1.1102230E-16
vertex -1.7678000E-02 -1.7679000E-02 -8.9999996E-03
endloop
endfacet
facet normal -9.2388815E-01 -3.8266256E-01 0.0000000E+00
outer loop
vertex -1.7678000E-02 -1.7679000E-02 -1.1102230E-16
vertex -2.5000000E-02 -1.0000000E-06 -1.1102230E-16
vertex -2.5000000E-02 -1.0000000E-06 -8.9999996E-03
endloop
endfacet
facet normal -9.2388052E-01 3.8268107E-01 0.0000000E+00
outer loop
vertex -2.5000000E-02 -1.0000000E-06 -1.1102230E-16
vertex -1.7678000E-02 1.7676000E-02 -1.1102230E-16
vertex -1.7678000E-02 1.7676000E-02 -8.9999996E-03
endloop
endfacet
facet normal 3.8285178E-01 9.2380983E-01 0.0000000E+00
outer loop
vertex -1.4142000E-02 1.1141000E-02 -1.1102230E-16
vertex -1.4142000E-02 1.1141000E-02 -8.9999996E-03
vertex -1.6263001E-02 1.2020000E-02 -1.1102230E-16
endloop
endfacet
facet normal 3.8285178E-01 9.2380983E-01 0.0000000E+00
outer loop
vertex -1.6263001E-02 1.2020000E-02 -1.1102230E-16
vertex -1.4142000E-02 1.1141000E-02 -8.9999996E-03
vertex -1.6263001E-02 1.2020000E-02 -8.9999996E-03
endloop
endfacet
facet normal 9.2380983E-01 3.8285151E-01 0.0000000E+00
outer loop
vertex -1.7142000E-02 1.4141000E-02 -1.1102230E-16
vertex -1.6263001E-02 1.2020000E-02 -8.9999996E-03
vertex -1.7142000E-02 1.4141000E-02 -8.9999996E-03
endloop
endfacet
facet normal 9.2387372E-01 -3.8269734E-01 0.0000000E+00
outer loop
vertex -1.6263001E-02 1.6263001E-02 -1.1102230E-16
vertex -1.7142000E-02 1.4141000E-02 -8.9999996E-03
vertex -1.6263001E-02 1.6263001E-02 -8.9999996E-03
endloop
endfacet
facet normal 3.8247952E-01 -9.2396402E-01 0.0000000E+00
outer loop
vertex -1.4142000E-02 1.7140999E-02 -1.1102230E-16
vertex -1.6263001E-02 1.6263001E-02 -8.9999996E-03
vertex -1.4142000E-02 1.7140999E-02 -8.9999996E-03
endloop
endfacet
facet normal 3.8247952E-01 -9.2396402E-01 0.0000000E+00
outer loop
vertex -1.4142000E-02 1.7140999E-02 -1.1102230E-16
vertex -1.6263001E-02 1.6263001E-02 -1.1102230E-16
vertex -1.6263001E-02 1.6263001E-02 -8.9999996E-03
endloop
endfacet
facet normal 9.2387372E-01 -3.8269734E-01 0.0000000E+00
outer loop
vertex -1.6263001E-02 1.6263001E-02 -1.1102230E-16
vertex -1.7142000E-02 1.4141000E-02 -1.1102230E-16
vertex -1.7142000E-02 1.4141000E-02 -8.9999996E-03
endloop
endfacet
facet normal 9.2380983E-01 3.8285151E-01 0.0000000E+00
outer loop
vertex -1.7142000E-02 1.4141000E-02 -1.1102230E-16
vertex -1.6263001E-02 1.2020000E-02 -1.1102230E-16
vertex -1.6263001E-02 1.2020000E-02 -8.9999996E-03
endloop
endfacet
facet normal 3.8269824E-01 9.2387342E-01 0.0000000E+00
outer loop
vertex 1.4142000E-02 -1.7144000E-02 -1.1102230E-16
vertex 1.4142000E-02 -1.7144000E-02 -8.9999996E-03
vertex 1.2020000E-02 -1.6264999E-02 -1.1102230E-16
endloop
endfacet
facet normal 3.8269824E-01 9.2387342E-01 0.0000000E+00
outer loop
vertex 1.2020000E-02 -1.6264999E-02 -1.1102230E-16
vertex 1.4142000E-02 -1.7144000E-02 -8.9999996E-03
vertex 1.2020000E-02 -1.6264999E-02 -8.9999996E-03
endloop
endfacet
facet normal 9.2396361E-01 3.8248035E-01 0.0000000E+00
outer loop
vertex 1.1142000E-02 -1.4144000E-02 -1.1102230E-16
vertex 1.2020000E-02 -1.6264999E-02 -8.9999996E-03
vertex 1.1142000E-02 -1.4144000E-02 -8.9999996E-03
endloop
endfacet
facet normal 9.2402732E-01 -3.8232645E-01 0.0000000E+00
outer loop
vertex 1.2020000E-02 -1.2022000E-02 -1.1102230E-16
vertex 1.1142000E-02 -1.4144000E-02 -8.9999996E-03
vertex 1.2020000E-02 -1.2022000E-02 -8.9999996E-03
endloop
endfacet
facet normal 3.8232607E-01 -9.2402744E-01 0.0000000E+00
outer loop
vertex 1.4142000E-02 -1.1144000E-02 -1.1102230E-16
vertex 1.2020000E-02 -1.2022000E-02 -8.9999996E-03
vertex 1.4142000E-02 -1.1144000E-02 -8.9999996E-03
endloop
endfacet
facet normal 3.8232607E-01 -9.2402744E-01 0.0000000E+00
outer loop
vertex 1.4142000E-02 -1.1144000E-02 -1.1102230E-16
vertex 1.2020000E-02 -1.2022000E-02 -1.1102230E-16
vertex 1.2020000E-02 -1.2022000E-02 -8.9999996E-03
endloop
endfacet
facet normal 9.2402732E-01 -3.8232645E-01 0.0000000E+00
outer loop
vertex 1.2020000E-02 -1.2022000E-02 -1.1102230E-16
vertex 1.1142000E-02 -1.4144000E-02 -1.1102230E-16
vertex 1.1142000E-02 -1.4144000E-02 -8.9999996E-03
endloop
endfacet
facet normal 9.2396361E-01 3.8248035E-01 0.0000000E+00
outer loop
vertex 1.1142000E-02 -1.4144000E-02 -1.1102230E-16
vertex 1.2020000E-02 -1.6264999E-02 -1.1102230E-16
vertex 1.2020000E-02 -1.6264999E-02 -8.9999996E-03
endloop
endfacet
facet normal -3.8232571E-01 -9.2402756E-01 -0.0000000E+00
outer loop
vertex -1.4142000E-02 1.7140999E-02 -1.1102230E-16
vertex -1.4142000E-02 1.7140999E-02 -8.9999996E-03
vertex -1.2020000E-02 1.6263001E-02 -1.1102230E-16
endloop
endfacet
facet normal -3.8232571E-01 -9.2402756E-01 -0.0000000E+00
outer loop
vertex -1.2020000E-02 1.6263001E-02 -1.1102230E-16
vertex -1.4142000E-02 1.7140999E-02 -8.9999996E-03
vertex -1.2020000E-02 1.6263001E-02 -8.9999996E-03
endloop
endfacet
facet normal -9.2402744E-01 -3.8232628E-01 -0.0000000E+00
outer loop
vertex -1.1142000E-02 1.4141000E-02 -1.1102230E-16
vertex -1.2020000E-02 1.6263001E-02 -8.9999996E-03
vertex -1.1142000E-02 1.4141000E-02 -8.9999996E-03
endloop
endfacet
facet normal -9.2396361E-01 3.8248035E-01 0.0000000E+00
outer loop
vertex -1.2020000E-02 1.2020000E-02 -1.1102230E-16
vertex -1.1142000E-02 1.4141000E-02 -8.9999996E-03
vertex -1.2020000E-02 1.2020000E-02 -8.9999996E-03
endloop
endfacet
facet normal -3.8269788E-01 9.2387354E-01 0.0000000E+00
outer loop
vertex -1.4142000E-02 1.1141000E-02 -1.1102230E-16
vertex -1.2020000E-02 1.2020000E-02 -8.9999996E-03
vertex -1.4142000E-02 1.1141000E-02 -8.9999996E-03
endloop
endfacet
facet normal -3.8269788E-01 9.2387354E-01 0.0000000E+00
outer loop
vertex -1.4142000E-02 1.1141000E-02 -1.1102230E-16
vertex -1.2020000E-02 1.2020000E-02 -1.1102230E-16
vertex -1.2020000E-02 1.2020000E-02 -8.9999996E-03
endloop
endfacet
facet normal -9.2396361E-01 3.8248035E-01 0.0000000E+00
outer loop
vertex -1.2020000E-02 1.2020000E-02 -1.1102230E-16
vertex -1.1142000E-02 1.4141000E-02 -1.1102230E-16
vertex -1.1142000E-02 1.4141000E-02 -8.9999996E-03
endloop
endfacet
facet normal -9.2402744E-01 -3.8232628E-01 0.0000000E+00
outer loop
vertex -1.1142000E-02 1.4141000E-02 -1.1102230E-16
vertex -1.2020000E-02 1.6263001E-02 -1.1102230E-16
vertex -1.2020000E-02 1.6263001E-02 -8.9999996E-03
endloop
endfacet
facet normal -3.8285139E-01 -9.2380995E-01 -0.0000000E+00
outer loop
vertex 1.4143000E-02 1.7140999E-02 -1.1102230E-16
vertex 1.4143000E-02 1.7140999E-02 -8.9999996E-03
vertex 1.6264001E-02 1.6262000E-02 -1.1102230E-16
endloop
endfacet
facet normal -3.8285139E-01 -9.2380995E-01 -0.0000000E+00
outer loop
vertex 1.6264001E-02 1.6262000E-02 -1.1102230E-16
vertex 1.4143000E-02 1.7140999E-02 -8.9999996E-03
vertex 1.6264001E-02 1.6262000E-02 -8.9999996E-03
endloop
endfacet
facet normal -9.2396402E-01 -3.8247952E-01 -0.0000000E+00
outer loop
vertex 1.7142000E-02 1.4141000E-02 -1.1102230E-16
vertex 1.6264001E-02 1.6262000E-02 -8.9999996E-03
vertex 1.7142000E-02 1.4141000E-02 -8.9999996E-03
endloop
endfacet
facet normal -9.2402756E-01 3.8232571E-01 0.0000000E+00
outer loop
vertex 1.6264001E-02 1.2019000E-02 -1.1102230E-16
vertex 1.7142000E-02 1.4141000E-02 -8.9999996E-03
vertex 1.6264001E-02 1.2019000E-02 -8.9999996E-03
endloop
endfacet
facet normal -3.8247988E-01 9.2396384E-01 0.0000000E+00
outer loop
vertex 1.4143000E-02 1.1141000E-02 -1.1102230E-16
vertex 1.6264001E-02 1.2019000E-02 -8.9999996E-03
vertex 1.4143000E-02 1.1141000E-02 -8.9999996E-03
endloop
endfacet
facet normal -3.8247988E-01 9.2396384E-01 0.0000000E+00
outer loop
vertex 1.4143000E-02 1.1141000E-02 -1.1102230E-16
vertex 1.6264001E-02 1.2019000E-02 -1.1102230E-16
vertex 1.6264001E-02 1.2019000E-02 -8.9999996E-03
endloop
endfacet
facet normal -9.2402756E-01 3.8232571E-01 0.0000000E+00
outer loop
vertex 1.6264001E-02 1.2019000E-02 -1.1102230E-16
vertex 1.7142000E-02 1.4141000E-02 -1.1102230E-16
vertex 1.7142000E-02 1.4141000E-02 -8.9999996E-03
endloop
endfacet
facet normal -9.2396402E-01 -3.8247952E-01 0.0000000E+00
outer loop
vertex 1.7142000E-02 1.4141000E-02 -1.1102230E-16
vertex 1.6264001E-02 1.6262000E-02 -1.1102230E-16
vertex 1.6264001E-02 1.6262000E-02 -8.9999996E-03
endloop
endfacet
facet normal -3.8247988E-01 -9.2396384E-01 -0.0000000E+00
outer loop
vertex 1.4142000E-02 -1.1144000E-02 -1.1102230E-16
vertex 1.4142000E-02 -1.1144000E-02 -8.9999996E-03
vertex 1.6263001E-02 -1.2022000E-02 -1.1102230E-16
endloop
endfacet
facet normal -3.8247988E-01 -9.2396384E-01 -0.0000000E+00
outer loop
vertex 1.6263001E-02 -1.2022000E-02 -1.1102230E-16
vertex 1.4142000E-02 -1.1144000E-02 -8.9999996E-03
vertex 1.6263001E-02 -1.2022000E-02 -8.9999996E-03
endloop
endfacet
facet normal -9.2387366E-01 -3.8269749E-01 -0.0000000E+00
outer loop
vertex 1.7142000E-02 -1.4144000E-02 -1.1102230E-16
vertex 1.6263001E-02 -1.2022000E-02 -8.9999996E-03
vertex 1.7142000E-02 -1.4144000E-02 -8.9999996E-03
endloop
endfacet
facet normal -9.2380983E-01 3.8285151E-01 0.0000000E+00
outer loop
vertex 1.6263001E-02 -1.6264999E-02 -1.1102230E-16
vertex 1.7142000E-02 -1.4144000E-02 -8.9999996E-03
vertex 1.6263001E-02 -1.6264999E-02 -8.9999996E-03
endloop
endfacet
facet normal -3.8285211E-01 9.2380965E-01 0.0000000E+00
outer loop
vertex 1.4142000E-02 -1.7144000E-02 -1.1102230E-16
vertex 1.6263001E-02 -1.6264999E-02 -8.9999996E-03
vertex 1.4142000E-02 -1.7144000E-02 -8.9999996E-03
endloop
endfacet
facet normal -3.8285211E-01 9.2380965E-01 0.0000000E+00
outer loop
vertex 1.4142000E-02 -1.7144000E-02 -1.1102230E-16
vertex 1.6263001E-02 -1.6264999E-02 -1.1102230E-16
vertex 1.6263001E-02 -1.6264999E-02 -8.9999996E-03
endloop
endfacet
facet normal -9.2380983E-01 3.8285151E-01 0.0000000E+00
outer loop
vertex 1.6263001E-02 -1.6264999E-02 -1.1102230E-16
vertex 1.7142000E-02 -1.4144000E-02 -1.1102230E-16
vertex 1.7142000E-02 -1.4144000E-02 -8.9999996E-03
endloop
endfacet
facet normal -9.2387366E-01 -3.8269749E-01 0.0000000E+00
outer loop
vertex 1.7142000E-02 -1.4144000E-02 -1.1102230E-16
vertex 1.6263001E-02 -1.2022000E-02 -1.1102230E-16
vertex 1.6263001E-02 -1.2022000E-02 -8.9999996E-03
endloop
endfacet
facet normal 3.8285190E-01 9.2380971E-01 0.0000000E+00
outer loop
vertex 2.0000000E-02 -3.0020000E-03 -1.1102230E-16
vertex 2.0000000E-02 -3.0020000E-03 -8.9999996E-03
vertex 1.7879000E-02 -2.1230001E-03 -1.1102230E-16
endloop
endfacet
facet normal 3.8285190E-01 9.2380971E-01 0.0000000E+00
outer loop
vertex 1.7879000E-02 -2.1230001E-03 -1.1102230E-16
vertex 2.0000000E-02 -3.0020000E-03 -8.9999996E-03
vertex 1.7879000E-02 -2.1230001E-03 -8.9999996E-03
endloop
endfacet
facet normal 9.2380995E-01 3.8285145E-01 0.0000000E+00
outer loop
vertex 1.7000001E-02 -2.0000000E-06 -1.1102230E-16
vertex 1.7879000E-02 -2.1230001E-03 -8.9999996E-03
vertex 1.7000001E-02 -2.0000000E-06 -8.9999996E-03
endloop
endfacet
facet normal 9.2387372E-01 -3.8269743E-01 0.0000000E+00
outer loop
vertex 1.7879000E-02 2.1200001E-03 -1.1102230E-16
vertex 1.7000001E-02 -2.0000000E-06 -8.9999996E-03
vertex 1.7879000E-02 2.1200001E-03 -8.9999996E-03
endloop
endfacet
facet normal 3.8248006E-01 -9.2396367E-01 0.0000000E+00
outer loop
vertex 2.0000000E-02 2.9980000E-03 -1.1102230E-16
vertex 1.7879000E-02 2.1200001E-03 -8.9999996E-03
vertex 2.0000000E-02 2.9980000E-03 -8.9999996E-03
endloop
endfacet
facet normal 3.8248006E-01 -9.2396367E-01 0.0000000E+00
outer loop
vertex 2.0000000E-02 2.9980000E-03 -1.1102230E-16
vertex 1.7879000E-02 2.1200001E-03 -1.1102230E-16
vertex 1.7879000E-02 2.1200001E-03 -8.9999996E-03
endloop
endfacet
facet normal 9.2387372E-01 -3.8269743E-01 0.0000000E+00
outer loop
vertex 1.7879000E-02 2.1200001E-03 -1.1102230E-16
vertex 1.7000001E-02 -2.0000000E-06 -1.1102230E-16
vertex 1.7000001E-02 -2.0000000E-06 -8.9999996E-03
endloop
endfacet
facet normal 9.2380995E-01 3.8285145E-01 0.0000000E+00
outer loop
vertex 1.7000001E-02 -2.0000000E-06 -1.1102230E-16
vertex 1.7879000E-02 -2.1230001E-03 -1.1102230E-16
vertex 1.7879000E-02 -2.1230001E-03 -8.9999996E-03
endloop
endfacet
facet normal 3.8266259E-01 -9.2388815E-01 0.0000000E+00
outer loop
vertex 0.0000000E+00 1.2499000E-02 -6.0000001E-03
vertex 0.0000000E+00 1.2499000E-02 -1.1102230E-16
vertex -8.8390000E-03 8.8379998E-03 -6.0000001E-03
endloop
endfacet
facet normal 3.8266259E-01 -9.2388815E-01 0.0000000E+00
outer loop
vertex -8.8390000E-03 8.8379998E-03 -6.0000001E-03
vertex 0.0000000E+00 1.2499000E-02 -1.1102230E-16
vertex -8.8390000E-03 8.8379998E-03 -1.1102230E-16
endloop
endfacet
facet normal 9.2388815E-01 -3.8266259E-01 0.0000000E+00
outer loop
vertex -1.2500000E-02 -1.0000000E-06 -6.0000001E-03
vertex -8.8390000E-03 8.8379998E-03 -1.1102230E-16
vertex -1.2500000E-02 -1.0000000E-06 -1.1102230E-16
endloop
endfacet
facet normal 9.2388815E-01 3.8266259E-01 -0.0000000E+00
outer loop
vertex -8.8390000E-03 -8.8400003E-03 -6.0000001E-03
vertex -1.2500000E-02 -1.0000000E-06 -1.1102230E-16
vertex -8.8390000E-03 -8.8400003E-03 -1.1102230E-16
endloop
endfacet
facet normal 3.8266259E-01 9.2388815E-01 -0.0000000E+00
outer loop
vertex 0.0000000E+00 -1.2501000E-02 -6.0000001E-03
vertex -8.8390000E-03 -8.8400003E-03 -1.1102230E-16
vertex 0.0000000E+00 -1.2501000E-02 -1.1102230E-16
endloop
endfacet
facet normal 3.8266259E-01 9.2388815E-01 0.0000000E+00
outer loop
vertex 0.0000000E+00 -1.2501000E-02 -6.0000001E-03
vertex -8.8390000E-03 -8.8400003E-03 -6.0000001E-03
vertex -8.8390000E-03 -8.8400003E-03 -1.1102230E-16
endloop
endfacet
facet normal 9.2388815E-01 3.8266259E-01 0.0000000E+00
outer loop
vertex -8.8390000E-03 -8.8400003E-03 -6.0000001E-03
vertex -1.2500000E-02 -1.0000000E-06 -6.0000001E-03
vertex -1.2500000E-02 -1.0000000E-06 -1.1102230E-16
endloop
endfacet
facet normal 9.2388815E-01 -3.8266259E-01 0.0000000E+00
outer loop
vertex -1.2500000E-02 -1.0000000E-06 -6.0000001E-03
vertex -8.8390000E-03 8.8379998E-03 -6.0000001E-03
vertex -8.8390000E-03 8.8379998E-03 -1.1102230E-16
endloop
endfacet
facet normal 3.8266256E-01 -9.2388815E-01 0.0000000E+00
outer loop
vertex 0.0000000E+00 -2.5001001E-02 -1.1102230E-16
vertex 0.0000000E+00 -2.5001001E-02 -8.9999996E-03
vertex 1.7678000E-02 -1.7679000E-02 -1.1102230E-16
endloop
endfacet
facet normal 3.8266256E-01 -9.2388815E-01 0.0000000E+00
outer loop
vertex 1.7678000E-02 -1.7679000E-02 -1.1102230E-16
vertex 0.0000000E+00 -2.5001001E-02 -8.9999996E-03
vertex 1.7678000E-02 -1.7679000E-02 -8.9999996E-03
endloop
endfacet
facet normal 9.2388815E-01 -3.8266256E-01 0.0000000E+00
outer loop
vertex 2.5000000E-02 -1.0000000E-06 -1.1102230E-16
vertex 1.7678000E-02 -1.7679000E-02 -8.9999996E-03
vertex 2.5000000E-02 -1.0000000E-06 -8.9999996E-03
endloop
endfacet
facet normal 9.2388052E-01 3.8268107E-01 0.0000000E+00
outer loop
vertex 1.7678000E-02 1.7676000E-02 -1.1102230E-16
vertex 2.5000000E-02 -1.0000000E-06 -8.9999996E-03
vertex 1.7678000E-02 1.7676000E-02 -8.9999996E-03
endloop
endfacet
facet normal 3.8270721E-01 9.2386973E-01 0.0000000E+00
outer loop
vertex 0.0000000E+00 2.4999000E-02 -1.1102230E-16
vertex 1.7678000E-02 1.7676000E-02 -8.9999996E-03
vertex 0.0000000E+00 2.4999000E-02 -8.9999996E-03
endloop
endfacet
facet normal 3.8270721E-01 9.2386973E-01 0.0000000E+00
outer loop
vertex 0.0000000E+00 2.4999000E-02 -1.1102230E-16
vertex 1.7678000E-02 1.7676000E-02 -1.1102230E-16
vertex 1.7678000E-02 1.7676000E-02 -8.9999996E-03
endloop
endfacet
facet normal 9.2388052E-01 3.8268107E-01 0.0000000E+00
outer loop
vertex 1.7678000E-02 1.7676000E-02 -1.1102230E-16
vertex 2.5000000E-02 -1.0000000E-06 -1.1102230E-16
vertex 2.5000000E-02 -1.0000000E-06 -8.9999996E-03
endloop
endfacet
facet normal 9.2388815E-01 -3.8266256E-01 0.0000000E+00
outer loop
vertex 2.5000000E-02 -1.0000000E-06 -1.1102230E-16
vertex 1.7678000E-02 -1.7679000E-02 -1.1102230E-16
vertex 1.7678000E-02 -1.7679000E-02 -8.9999996E-03
endloop
endfacet
facet normal -3.8266259E-01 9.2388815E-01 0.0000000E+00
outer loop
vertex 0.0000000E+00 -1.2501000E-02 -6.0000001E-03
vertex 0.0000000E+00 -1.2501000E-02 -1.1102230E-16
vertex 8.8390000E-03 -8.8400003E-03 -6.0000001E-03
endloop
endfacet
facet normal -3.8266259E-01 9.2388815E-01 0.0000000E+00
outer loop
vertex 8.8390000E-03 -8.8400003E-03 -6.0000001E-03
vertex 0.0000000E+00 -1.2501000E-02 -1.1102230E-16
vertex 8.8390000E-03 -8.8400003E-03 -1.1102230E-16
endloop
endfacet
facet normal -9.2388815E-01 3.8266259E-01 0.0000000E+00
outer loop
vertex 1.2500000E-02 -1.0000000E-06 -6.0000001E-03
vertex 8.8390000E-03 -8.8400003E-03 -1.1102230E-16
vertex 1.2500000E-02 -1.0000000E-06 -1.1102230E-16
endloop
endfacet
facet normal -9.2388815E-01 -3.8266259E-01 0.0000000E+00
outer loop
vertex 8.8390000E-03 8.8379998E-03 -6.0000001E-03
vertex 1.2500000E-02 -1.0000000E-06 -1.1102230E-16
vertex 8.8390000E-03 8.8379998E-03 -1.1102230E-16
endloop
endfacet
facet normal -3.8266259E-01 -9.2388815E-01 0.0000000E+00
outer loop
vertex 0.0000000E+00 1.2499000E-02 -6.0000001E-03
vertex 8.8390000E-03 8.8379998E-03 -1.1102230E-16
vertex 0.0000000E+00 1.2499000E-02 -1.1102230E-16
endloop
endfacet
facet normal -3.8266259E-01 -9.2388815E-01 0.0000000E+00
outer loop
vertex 0.0000000E+00 1.2499000E-02 -6.0000001E-03
vertex 8.8390000E-03 8.8379998E-03 -6.0000001E-03
vertex 8.8390000E-03 8.8379998E-03 -1.1102230E-16
endloop
endfacet
facet normal -9.2388815E-01 -3.8266259E-01 0.0000000E+00
outer loop
vertex 8.8390000E-03 8.8379998E-03 -6.0000001E-03
vertex 1.2500000E-02 -1.0000000E-06 -6.0000001E-03
vertex 1.2500000E-02 -1.0000000E-06 -1.1102230E-16
endloop
endfacet
facet normal -9.2388815E-01 3.8266259E-01 0.0000000E+00
outer loop
vertex 1.2500000E-02 -1.0000000E-06 -6.0000001E-03
vertex 8.8390000E-03 -8.8400003E-03 -6.0000001E-03
vertex 8.8390000E-03 -8.8400003E-03 -1.1102230E-16
endloop
endfacet
facet normal 4.5400715E-01 -8.9099795E-01 0.0000000E+00
outer loop
vertex 1.3980001E-03 -8.8290004E-03 -2.8999999E-02
vertex 6.3200002E-03 -6.3209999E-03 -2.8999999E-02
vertex 1.3980001E-03 -8.8290004E-03 -8.9999996E-03
endloop
endfacet
facet normal 4.5400715E-01 -8.9099795E-01 0.0000000E+00
outer loop
vertex 1.3980001E-03 -8.8290004E-03 -8.9999996E-03
vertex 6.3200002E-03 -6.3209999E-03 -2.8999999E-02
vertex 6.3200002E-03 -6.3209999E-03 -8.9999996E-03
endloop
endfacet
facet normal 8.9103401E-01 -4.5393664E-01 0.0000000E+00
outer loop
vertex 6.3200002E-03 -6.3209999E-03 -2.8999999E-02
vertex 8.8269999E-03 -1.4000000E-03 -2.8999999E-02
vertex 6.3200002E-03 -6.3209999E-03 -8.9999996E-03
endloop
endfacet
facet normal 8.9103401E-01 -4.5393664E-01 0.0000000E+00
outer loop
vertex 6.3200002E-03 -6.3209999E-03 -8.9999996E-03
vertex 8.8269999E-03 -1.4000000E-03 -2.8999999E-02
vertex 8.8269999E-03 -1.4000000E-03 -8.9999996E-03
endloop
endfacet
facet normal -8.9107126E-01 4.5386338E-01 0.0000000E+00
outer loop
vertex -6.3200002E-03 6.3189999E-03 -8.9999996E-03
vertex -6.3200002E-03 6.3189999E-03 -2.8999999E-02
vertex -8.8269999E-03 1.3970000E-03 -8.9999996E-03
endloop
endfacet
facet normal -8.9107126E-01 4.5386338E-01 0.0000000E+00
outer loop
vertex -8.8269999E-03 1.3970000E-03 -8.9999996E-03
vertex -6.3200002E-03 6.3189999E-03 -2.8999999E-02
vertex -8.8269999E-03 1.3970000E-03 -2.8999999E-02
endloop
endfacet
facet normal 1.5640879E-01 9.8769248E-01 0.0000000E+00
outer loop
vertex 4.0580002E-03 7.9619996E-03 -8.9999996E-03
vertex 4.0580002E-03 7.9619996E-03 -2.8999999E-02
vertex -1.3980001E-03 8.8259997E-03 -8.9999996E-03
endloop
endfacet
facet normal 1.5640879E-01 9.8769248E-01 0.0000000E+00
outer loop
vertex -1.3980001E-03 8.8259997E-03 -8.9999996E-03
vertex 4.0580002E-03 7.9619996E-03 -2.8999999E-02
vertex -1.3980001E-03 8.8259997E-03 -2.8999999E-02
endloop
endfacet
facet normal 9.8769248E-01 1.5640879E-01 0.0000000E+00
outer loop
vertex 8.8269999E-03 -1.4000000E-03 -8.9999996E-03
vertex 8.8269999E-03 -1.4000000E-03 -2.8999999E-02
vertex 7.9629999E-03 4.0560002E-03 -8.9999996E-03
endloop
endfacet
facet normal 9.8769248E-01 1.5640879E-01 0.0000000E+00
outer loop
vertex 7.9629999E-03 4.0560002E-03 -8.9999996E-03
vertex 8.8269999E-03 -1.4000000E-03 -2.8999999E-02
vertex 7.9629999E-03 4.0560002E-03 -2.8999999E-02
endloop
endfacet
facet normal -1.5658541E-01 -9.8766446E-01 -0.0000000E+00
outer loop
vertex -4.0580002E-03 -7.9640001E-03 -8.9999996E-03
vertex -4.0580002E-03 -7.9640001E-03 -2.8999999E-02
vertex 1.3980001E-03 -8.8290004E-03 -8.9999996E-03
endloop
endfacet
facet normal -1.5658541E-01 -9.8766446E-01 -0.0000000E+00
outer loop
vertex 1.3980001E-03 -8.8290004E-03 -8.9999996E-03
vertex -4.0580002E-03 -7.9640001E-03 -2.8999999E-02
vertex 1.3980001E-03 -8.8290004E-03 -2.8999999E-02
endloop
endfacet
facet normal -9.8768795E-01 -1.5643674E-01 -0.0000000E+00
outer loop
vertex -8.8269999E-03 1.3970000E-03 -8.9999996E-03
vertex -8.8269999E-03 1.3970000E-03 -2.8999999E-02
vertex -7.9629999E-03 -4.0580002E-03 -8.9999996E-03
endloop
endfacet
facet normal -9.8768795E-01 -1.5643674E-01 -0.0000000E+00
outer loop
vertex -7.9629999E-03 -4.0580002E-03 -8.9999996E-03
vertex -8.8269999E-03 1.3970000E-03 -2.8999999E-02
vertex -7.9629999E-03 -4.0580002E-03 -2.8999999E-02
endloop
endfacet
facet normal -4.5386338E-01 8.9107132E-01 0.0000000E+00
outer loop
vertex -1.3980001E-03 8.8259997E-03 -8.9999996E-03
vertex -1.3980001E-03 8.8259997E-03 -2.8999999E-02
vertex -6.3200002E-03 6.3189999E-03 -8.9999996E-03
endloop
endfacet
facet normal -4.5386338E-01 8.9107132E-01 0.0000000E+00
outer loop
vertex -6.3200002E-03 6.3189999E-03 -8.9999996E-03
vertex -1.3980001E-03 8.8259997E-03 -2.8999999E-02
vertex -6.3200002E-03 6.3189999E-03 -2.8999999E-02
endloop
endfacet
facet normal 7.0719725E-01 7.0701629E-01 0.0000000E+00
outer loop
vertex 7.9629999E-03 4.0560002E-03 -8.9999996E-03
vertex 7.9629999E-03 4.0560002E-03 -2.8999999E-02
vertex 4.0580002E-03 7.9619996E-03 -8.9999996E-03
endloop
endfacet
facet normal 7.0719725E-01 7.0701629E-01 0.0000000E+00
outer loop
vertex 4.0580002E-03 7.9619996E-03 -8.9999996E-03
vertex 7.9629999E-03 4.0560002E-03 -2.8999999E-02
vertex 4.0580002E-03 7.9619996E-03 -2.8999999E-02
endloop
endfacet
facet normal -7.0719731E-01 -7.0701617E-01 -0.0000000E+00
outer loop
vertex -7.9629999E-03 -4.0580002E-03 -8.9999996E-03
vertex -7.9629999E-03 -4.0580002E-03 -2.8999999E-02
vertex -4.0580002E-03 -7.9640001E-03 -8.9999996E-03
endloop
endfacet
facet normal -7.0719731E-01 -7.0701617E-01 -0.0000000E+00
outer loop
vertex -4.0580002E-03 -7.9640001E-03 -8.9999996E-03
vertex -7.9629999E-03 -4.0580002E-03 -2.8999999E-02
vertex -4.0580002E-03 -7.9640001E-03 -2.8999999E-02
endloop
endfacet
facet normal -0.0000000E+00 0.0000000E+00 1.0000000E+00
outer loop
vertex -8.8390000E-03 8.8379998E-03 -6.0000001E-03
vertex -8.8390000E-03 -8.8400003E-03 -6.0000001E-03
vertex 0.0000000E+00 1.2499000E-02 -6.0000001E-03
endloop
endfacet
facet normal 0.0000000E+00 0.0000000E+00 1.0000000E+00
outer loop
vertex -8.8390000E-03 8.8379998E-03 -6.0000001E-03
vertex -1.2500000E-02 -1.0000000E-06 -6.0000001E-03
vertex -8.8390000E-03 -8.8400003E-03 -6.0000001E-03
endloop
endfacet
facet normal -0.0000000E+00 0.0000000E+00 1.0000000E+00
outer loop
vertex -8.8390000E-03 -8.8400003E-03 -6.0000001E-03
vertex 0.0000000E+00 -1.2501000E-02 -6.0000001E-03
vertex 0.0000000E+00 1.2499000E-02 -6.0000001E-03
endloop
endfacet
facet normal 0.0000000E+00 0.0000000E+00 9.9999994E-01
outer loop
vertex 0.0000000E+00 1.2499000E-02 -6.0000001E-03
vertex 0.0000000E+00 -1.2501000E-02 -6.0000001E-03
vertex 8.8390000E-03 8.8379998E-03 -6.0000001E-03
endloop
endfacet
facet normal 0.0000000E+00 0.0000000E+00 1.0000000E+00
outer loop
vertex 8.8390000E-03 8.8379998E-03 -6.0000001E-03
vertex 0.0000000E+00 -1.2501000E-02 -6.0000001E-03
vertex 8.8390000E-03 -8.8400003E-03 -6.0000001E-03
endloop
endfacet
facet normal 0.0000000E+00 0.0000000E+00 1.0000000E+00
outer loop
vertex 1.2500000E-02 -1.0000000E-06 -6.0000001E-03
vertex 8.8390000E-03 8.8379998E-03 -6.0000001E-03
vertex 8.8390000E-03 -8.8400003E-03 -6.0000001E-03
endloop
endfacet
facet normal -0.0000000E+00 0.0000000E+00 -1.0000000E+00
outer loop
vertex 8.8269999E-03 -1.4000000E-03 -2.8999999E-02
vertex 6.3200002E-03 -6.3209999E-03 -2.8999999E-02
vertex 7.9629999E-03 4.0560002E-03 -2.8999999E-02
endloop
endfacet
facet normal -0.0000000E+00 0.0000000E+00 -9.9999994E-01
outer loop
vertex 7.9629999E-03 4.0560002E-03 -2.8999999E-02
vertex 6.3200002E-03 -6.3209999E-03 -2.8999999E-02
vertex 4.0580002E-03 7.9619996E-03 -2.8999999E-02
endloop
endfacet
facet normal 0.0000000E+00 -0.0000000E+00 -1.0000000E+00
outer loop
vertex 4.0580002E-03 7.9619996E-03 -2.8999999E-02
vertex 6.3200002E-03 -6.3209999E-03 -2.8999999E-02
vertex 1.3980001E-03 -8.8290004E-03 -2.8999999E-02
endloop
endfacet
facet normal 0.0000000E+00 -0.0000000E+00 -9.9999994E-01
outer loop
vertex -1.3980001E-03 8.8259997E-03 -2.8999999E-02
vertex 1.3980001E-03 -8.8290004E-03 -2.8999999E-02
vertex -4.0580002E-03 -7.9640001E-03 -2.8999999E-02
endloop
endfacet
facet normal 0.0000000E+00 -0.0000000E+00 -9.9999994E-01
outer loop
vertex -6.3200002E-03 6.3189999E-03 -2.8999999E-02
vertex -4.0580002E-03 -7.9640001E-03 -2.8999999E-02
vertex -7.9629999E-03 -4.0580002E-03 -2.8999999E-02
endloop
endfacet
facet normal 0.0000000E+00 0.0000000E+00 -1.0000000E+00
outer loop
vertex -8.8269999E-03 1.3970000E-03 -2.8999999E-02
vertex -6.3200002E-03 6.3189999E-03 -2.8999999E-02
vertex -7.9629999E-03 -4.0580002E-03 -2.8999999E-02
endloop
endfacet
facet normal 0.0000000E+00 0.0000000E+00 -1.0000000E+00
outer loop
vertex -6.3200002E-03 6.3189999E-03 -2.8999999E-02
vertex -1.3980001E-03 8.8259997E-03 -2.8999999E-02
vertex -4.0580002E-03 -7.9640001E-03 -2.8999999E-02
endloop
endfacet
facet normal 0.0000000E+00 0.0000000E+00 -1.0000000E+00
outer loop
vertex -1.3980001E-03 8.8259997E-03 -2.8999999E-02
vertex 4.0580002E-03 7.9619996E-03 -2.8999999E-02
vertex 1.3980001E-03 -8.8290004E-03 -2.8999999E-02
endloop
endfacet
endsolid Created by stlwrite.m 09-Jan-2012 13:16:32
