solid Created by stlwrite.m 09-Jan-2012 13:09:48
facet normal -9.6593112E-01 1.4891733E-04 2.5879925E-01
outer loop
vertex -3.9138000E-02 8.0000004E-03 1.6210999E-02
vertex -3.9136998E-02 1.4500000E-02 1.6210999E-02
vertex -4.1999999E-02 8.0000004E-03 5.5290000E-03
endloop
endfacet
facet normal -9.6590847E-01 0.0000000E+00 2.5888380E-01
outer loop
vertex -4.1999999E-02 8.0000004E-03 5.5290000E-03
vertex -3.9136998E-02 1.4500000E-02 1.6210999E-02
vertex -4.1999999E-02 1.4500000E-02 5.5290000E-03
endloop
endfacet
facet normal -9.9999994E-01 0.0000000E+00 0.0000000E+00
outer loop
vertex -4.1999999E-02 8.0000004E-03 5.5290000E-03
vertex -4.1999999E-02 1.4500000E-02 5.5290000E-03
vertex -4.1999999E-02 8.0000004E-03 -5.5290000E-03
endloop
endfacet
facet normal -9.9999994E-01 0.0000000E+00 0.0000000E+00
outer loop
vertex -4.1999999E-02 8.0000004E-03 -5.5290000E-03
vertex -4.1999999E-02 1.4500000E-02 5.5290000E-03
vertex -4.1999999E-02 1.4500000E-02 -5.5290000E-03
endloop
endfacet
facet normal -0.0000000E+00 -9.9999994E-01 0.0000000E+00
outer loop
vertex -2.0000000E-02 7.9990001E-03 2.8723000E-02
vertex -2.0000000E-02 7.9990001E-03 3.6950000E-02
vertex -2.3634000E-02 7.9990001E-03 2.6192000E-02
endloop
endfacet
facet normal 0.0000000E+00 -1.0000000E+00 0.0000000E+00
outer loop
vertex -2.3634000E-02 7.9990001E-03 2.6192000E-02
vertex -2.0000000E-02 7.9990001E-03 3.6950000E-02
vertex -2.5788000E-02 7.9990001E-03 3.3608001E-02
endloop
endfacet
facet normal -8.5311774E-05 -1.0000000E+00 -4.2601652E-05
outer loop
vertex -3.0074000E-02 8.0000004E-03 1.8712001E-02
vertex -2.5788000E-02 7.9990001E-03 3.3608001E-02
vertex -3.3608001E-02 8.0000004E-03 2.5789000E-02
endloop
endfacet
facet normal 0.0000000E+00 -1.0000000E+00 0.0000000E+00
outer loop
vertex -3.3939000E-02 8.0000004E-03 9.6290000E-03
vertex -3.3608001E-02 8.0000004E-03 2.5789000E-02
vertex -3.9138000E-02 8.0000004E-03 1.6210999E-02
endloop
endfacet
facet normal 0.0000000E+00 -1.0000000E+00 0.0000000E+00
outer loop
vertex -3.4604002E-02 8.0000004E-03 5.2510002E-03
vertex -3.9138000E-02 8.0000004E-03 1.6210999E-02
vertex -3.9999999E-02 8.0000004E-03 5.2510002E-03
endloop
endfacet
facet normal 0.0000000E+00 -1.0000000E+00 0.0000000E+00
outer loop
vertex -3.4604002E-02 8.0000004E-03 5.2510002E-03
vertex -3.3939000E-02 8.0000004E-03 9.6290000E-03
vertex -3.9138000E-02 8.0000004E-03 1.6210999E-02
endloop
endfacet
facet normal 0.0000000E+00 -1.0000000E+00 0.0000000E+00
outer loop
vertex -3.9138000E-02 8.0000004E-03 1.6210999E-02
vertex -4.1999999E-02 8.0000004E-03 5.5290000E-03
vertex -3.9999999E-02 8.0000004E-03 5.2510002E-03
endloop
endfacet
facet normal -0.0000000E+00 -1.0000000E+00 0.0000000E+00
outer loop
vertex -3.9999999E-02 8.0000004E-03 5.2510002E-03
vertex -4.1999999E-02 8.0000004E-03 5.5290000E-03
vertex -4.1999999E-02 8.0000004E-03 -5.5290000E-03
endloop
endfacet
facet normal 0.0000000E+00 -1.0000000E+00 -0.0000000E+00
outer loop
vertex -3.9999999E-02 8.0000004E-03 -5.2510002E-03
vertex -4.1999999E-02 8.0000004E-03 -5.5290000E-03
vertex -3.9138000E-02 8.0000004E-03 -1.6210999E-02
endloop
endfacet
facet normal 0.0000000E+00 -1.0000000E+00 -0.0000000E+00
outer loop
vertex -3.4604002E-02 8.0000004E-03 -5.2510002E-03
vertex -3.9138000E-02 8.0000004E-03 -1.6210999E-02
vertex -3.3000000E-02 8.0000004E-03 -1.1662000E-02
endloop
endfacet
facet normal -0.0000000E+00 -1.0000000E+00 0.0000000E+00
outer loop
vertex -3.4604002E-02 8.0000004E-03 -5.2510002E-03
vertex -3.9999999E-02 8.0000004E-03 -5.2510002E-03
vertex -3.9138000E-02 8.0000004E-03 -1.6210999E-02
endloop
endfacet
facet normal 0.0000000E+00 -9.9999994E-01 0.0000000E+00
outer loop
vertex -3.9138000E-02 8.0000004E-03 -1.6210999E-02
vertex -3.3608001E-02 8.0000004E-03 -2.5789000E-02
vertex -3.3000000E-02 8.0000004E-03 -1.1662000E-02
endloop
endfacet
facet normal 0.0000000E+00 -1.0000000E+00 -0.0000000E+00
outer loop
vertex -3.3000000E-02 8.0000004E-03 -1.1662000E-02
vertex -3.3608001E-02 8.0000004E-03 -2.5789000E-02
vertex -3.3000000E-02 8.0000004E-03 -2.6396999E-02
endloop
endfacet
facet normal -0.0000000E+00 -1.0000000E+00 0.0000000E+00
outer loop
vertex -3.9999999E-02 8.0000004E-03 -5.2510002E-03
vertex -3.9999999E-02 8.0000004E-03 5.2510002E-03
vertex -4.1999999E-02 8.0000004E-03 -5.5290000E-03
endloop
endfacet
facet normal 0.0000000E+00 -1.0000000E+00 0.0000000E+00
outer loop
vertex -3.3939000E-02 8.0000004E-03 9.6290000E-03
vertex -3.0074000E-02 8.0000004E-03 1.8712001E-02
vertex -3.3608001E-02 8.0000004E-03 2.5789000E-02
endloop
endfacet
facet normal -1.1613702E-04 -1.0000000E+00 -3.3732351E-05
outer loop
vertex -3.0074000E-02 8.0000004E-03 1.8712001E-02
vertex -2.3634000E-02 7.9990001E-03 2.6192000E-02
vertex -2.5788000E-02 7.9990001E-03 3.3608001E-02
endloop
endfacet
facet normal 0.0000000E+00 1.0000000E+00 0.0000000E+00
outer loop
vertex 4.1999999E-02 1.4498000E-02 5.5290000E-03
vertex 4.1999999E-02 1.4498000E-02 -5.5290000E-03
vertex 3.9138000E-02 1.4498000E-02 1.6210999E-02
endloop
endfacet
facet normal 0.0000000E+00 9.9999994E-01 0.0000000E+00
outer loop
vertex 3.9138000E-02 1.4498000E-02 1.6210999E-02
vertex 4.1999999E-02 1.4498000E-02 -5.5290000E-03
vertex 3.9138000E-02 1.4498000E-02 -1.6210999E-02
endloop
endfacet
facet normal 0.0000000E+00 1.0000000E+00 0.0000000E+00
outer loop
vertex 3.3608999E-02 1.4498000E-02 2.5789000E-02
vertex 3.9138000E-02 1.4498000E-02 -1.6210999E-02
vertex 3.3608999E-02 1.4498000E-02 -2.5789000E-02
endloop
endfacet
facet normal 0.0000000E+00 1.0000000E+00 0.0000000E+00
outer loop
vertex 2.5789000E-02 1.4498000E-02 3.3608001E-02
vertex 3.3608999E-02 1.4498000E-02 -2.5789000E-02
vertex 2.5789000E-02 1.4498000E-02 -3.3608001E-02
endloop
endfacet
facet normal 0.0000000E+00 9.9999994E-01 0.0000000E+00
outer loop
vertex 1.6212000E-02 1.4498000E-02 3.9138000E-02
vertex 2.5789000E-02 1.4498000E-02 -3.3608001E-02
vertex 1.6212000E-02 1.4498000E-02 -3.9138000E-02
endloop
endfacet
facet normal 9.3637929E-05 9.9999994E-01 0.0000000E+00
outer loop
vertex 5.5300002E-03 1.4499000E-02 4.1999999E-02
vertex 1.6212000E-02 1.4498000E-02 -3.9138000E-02
vertex 5.5300002E-03 1.4499000E-02 -4.1999999E-02
endloop
endfacet
facet normal 0.0000000E+00 9.9999994E-01 0.0000000E+00
outer loop
vertex -5.5290000E-03 1.4499000E-02 4.1999999E-02
vertex 5.5300002E-03 1.4499000E-02 -4.1999999E-02
vertex -5.5290000E-03 1.4499000E-02 -4.1999999E-02
endloop
endfacet
facet normal 0.0000000E+00 1.0000000E+00 0.0000000E+00
outer loop
vertex -1.6210999E-02 1.4499000E-02 3.9138000E-02
vertex -5.5290000E-03 1.4499000E-02 -4.1999999E-02
vertex -1.6210999E-02 1.4499000E-02 -3.9138000E-02
endloop
endfacet
facet normal 0.0000000E+00 1.0000000E+00 0.0000000E+00
outer loop
vertex -2.5788000E-02 1.4499000E-02 3.3608001E-02
vertex -1.6210999E-02 1.4499000E-02 -3.9138000E-02
vertex -2.5788000E-02 1.4499000E-02 -3.3608001E-02
endloop
endfacet
facet normal 1.2778888E-04 1.0000000E+00 0.0000000E+00
outer loop
vertex -3.3608001E-02 1.4500000E-02 2.5789000E-02
vertex -2.5788000E-02 1.4499000E-02 -3.3608001E-02
vertex -3.3608001E-02 1.4500000E-02 -2.5789000E-02
endloop
endfacet
facet normal 0.0000000E+00 9.9999994E-01 0.0000000E+00
outer loop
vertex -3.9136998E-02 1.4500000E-02 1.6210999E-02
vertex -3.3608001E-02 1.4500000E-02 -2.5789000E-02
vertex -3.9136998E-02 1.4500000E-02 -1.6210999E-02
endloop
endfacet
facet normal 0.0000000E+00 1.0000000E+00 0.0000000E+00
outer loop
vertex -4.1999999E-02 1.4500000E-02 5.5290000E-03
vertex -3.9136998E-02 1.4500000E-02 -1.6210999E-02
vertex -4.1999999E-02 1.4500000E-02 -5.5290000E-03
endloop
endfacet
facet normal -0.0000000E+00 1.0000000E+00 0.0000000E+00
outer loop
vertex -4.1999999E-02 1.4500000E-02 5.5290000E-03
vertex -3.9136998E-02 1.4500000E-02 1.6210999E-02
vertex -3.9136998E-02 1.4500000E-02 -1.6210999E-02
endloop
endfacet
facet normal -0.0000000E+00 1.0000000E+00 0.0000000E+00
outer loop
vertex -3.9136998E-02 1.4500000E-02 1.6210999E-02
vertex -3.3608001E-02 1.4500000E-02 2.5789000E-02
vertex -3.3608001E-02 1.4500000E-02 -2.5789000E-02
endloop
endfacet
facet normal 1.2778888E-04 1.0000000E+00 0.0000000E+00
outer loop
vertex -3.3608001E-02 1.4500000E-02 2.5789000E-02
vertex -2.5788000E-02 1.4499000E-02 3.3608001E-02
vertex -2.5788000E-02 1.4499000E-02 -3.3608001E-02
endloop
endfacet
facet normal -0.0000000E+00 9.9999994E-01 0.0000000E+00
outer loop
vertex -2.5788000E-02 1.4499000E-02 3.3608001E-02
vertex -1.6210999E-02 1.4499000E-02 3.9138000E-02
vertex -1.6210999E-02 1.4499000E-02 -3.9138000E-02
endloop
endfacet
facet normal -0.0000000E+00 9.9999994E-01 0.0000000E+00
outer loop
vertex -1.6210999E-02 1.4499000E-02 3.9138000E-02
vertex -5.5290000E-03 1.4499000E-02 4.1999999E-02
vertex -5.5290000E-03 1.4499000E-02 -4.1999999E-02
endloop
endfacet
facet normal -0.0000000E+00 9.9999994E-01 0.0000000E+00
outer loop
vertex -5.5290000E-03 1.4499000E-02 4.1999999E-02
vertex 5.5300002E-03 1.4499000E-02 4.1999999E-02
vertex 5.5300002E-03 1.4499000E-02 -4.1999999E-02
endloop
endfacet
facet normal 9.3637944E-05 1.0000000E+00 0.0000000E+00
outer loop
vertex 5.5300002E-03 1.4499000E-02 4.1999999E-02
vertex 1.6212000E-02 1.4498000E-02 3.9138000E-02
vertex 1.6212000E-02 1.4498000E-02 -3.9138000E-02
endloop
endfacet
facet normal 0.0000000E+00 1.0000000E+00 0.0000000E+00
outer loop
vertex 1.6212000E-02 1.4498000E-02 3.9138000E-02
vertex 2.5789000E-02 1.4498000E-02 3.3608001E-02
vertex 2.5789000E-02 1.4498000E-02 -3.3608001E-02
endloop
endfacet
facet normal 0.0000000E+00 1.0000000E+00 0.0000000E+00
outer loop
vertex 2.5789000E-02 1.4498000E-02 3.3608001E-02
vertex 3.3608999E-02 1.4498000E-02 2.5789000E-02
vertex 3.3608999E-02 1.4498000E-02 -2.5789000E-02
endloop
endfacet
facet normal 0.0000000E+00 1.0000000E+00 0.0000000E+00
outer loop
vertex 3.3608999E-02 1.4498000E-02 2.5789000E-02
vertex 3.9138000E-02 1.4498000E-02 1.6210999E-02
vertex 3.9138000E-02 1.4498000E-02 -1.6210999E-02
endloop
endfacet
facet normal -8.6601996E-01 0.0000000E+00 5.0000936E-01
outer loop
vertex -3.3608001E-02 8.0000004E-03 2.5789000E-02
vertex -3.3608001E-02 1.4500000E-02 2.5789000E-02
vertex -3.9138000E-02 8.0000004E-03 1.6210999E-02
endloop
endfacet
facet normal -8.6605918E-01 1.3352011E-04 4.9994144E-01
outer loop
vertex -3.9138000E-02 8.0000004E-03 1.6210999E-02
vertex -3.3608001E-02 1.4500000E-02 2.5789000E-02
vertex -3.9136998E-02 1.4500000E-02 1.6210999E-02
endloop
endfacet
facet normal -9.6590847E-01 -0.0000000E+00 -2.5888380E-01
outer loop
vertex -4.1999999E-02 1.4500000E-02 -5.5290000E-03
vertex -3.9136998E-02 1.4500000E-02 -1.6210999E-02
vertex -4.1999999E-02 8.0000004E-03 -5.5290000E-03
endloop
endfacet
facet normal -9.6593112E-01 1.4894664E-04 -2.5879925E-01
outer loop
vertex -4.1999999E-02 8.0000004E-03 -5.5290000E-03
vertex -3.9136998E-02 1.4500000E-02 -1.6210999E-02
vertex -3.9138000E-02 8.0000004E-03 -1.6210999E-02
endloop
endfacet
facet normal -9.8869312E-01 0.0000000E+00 1.4995326E-01
outer loop
vertex -3.4604002E-02 -8.0000004E-03 5.2510002E-03
vertex -3.3939999E-02 -8.0000004E-03 9.6290000E-03
vertex -3.4604002E-02 8.0000004E-03 5.2510002E-03
endloop
endfacet
facet normal -9.8865962E-01 6.1689665E-05 1.5017365E-01
outer loop
vertex -3.4604002E-02 8.0000004E-03 5.2510002E-03
vertex -3.3939999E-02 -8.0000004E-03 9.6290000E-03
vertex -3.3939000E-02 8.0000004E-03 9.6290000E-03
endloop
endfacet
facet normal -1.0000000E+00 0.0000000E+00 0.0000000E+00
outer loop
vertex -2.0000000E-02 -8.0009997E-03 3.6950000E-02
vertex -2.0000000E-02 7.9990001E-03 3.6950000E-02
vertex -2.0000000E-02 -8.0009997E-03 2.8723000E-02
endloop
endfacet
facet normal -1.0000000E+00 0.0000000E+00 0.0000000E+00
outer loop
vertex -2.0000000E-02 -8.0009997E-03 2.8723000E-02
vertex -2.0000000E-02 7.9990001E-03 3.6950000E-02
vertex -2.0000000E-02 7.9990001E-03 2.8723000E-02
endloop
endfacet
facet normal -5.7152081E-01 0.0000000E+00 8.2058752E-01
outer loop
vertex -2.3634000E-02 -8.0009997E-03 2.6192000E-02
vertex -2.0000000E-02 -8.0009997E-03 2.8723000E-02
vertex -2.3634000E-02 7.9990001E-03 2.6192000E-02
endloop
endfacet
facet normal -5.7152081E-01 0.0000000E+00 8.2058752E-01
outer loop
vertex -2.3634000E-02 7.9990001E-03 2.6192000E-02
vertex -2.0000000E-02 -8.0009997E-03 2.8723000E-02
vertex -2.0000000E-02 7.9990001E-03 2.8723000E-02
endloop
endfacet
facet normal -1.0000000E+00 0.0000000E+00 0.0000000E+00
outer loop
vertex -3.3000000E-02 -8.0000004E-03 -2.6396999E-02
vertex -3.3000000E-02 -8.0000004E-03 -1.1662000E-02
vertex -3.3000000E-02 8.0000004E-03 -2.6396999E-02
endloop
endfacet
facet normal -1.0000000E+00 0.0000000E+00 0.0000000E+00
outer loop
vertex -3.3000000E-02 8.0000004E-03 -2.6396999E-02
vertex -3.3000000E-02 -8.0000004E-03 -1.1662000E-02
vertex -3.3000000E-02 8.0000004E-03 -1.1662000E-02
endloop
endfacet
facet normal -8.6605918E-01 1.3352011E-04 -4.9994138E-01
outer loop
vertex -3.9136998E-02 1.4500000E-02 -1.6210999E-02
vertex -3.3608001E-02 1.4500000E-02 -2.5789000E-02
vertex -3.9138000E-02 8.0000004E-03 -1.6210999E-02
endloop
endfacet
facet normal -8.6601996E-01 0.0000000E+00 -5.0000936E-01
outer loop
vertex -3.9138000E-02 8.0000004E-03 -1.6210999E-02
vertex -3.3608001E-02 1.4500000E-02 -2.5789000E-02
vertex -3.3608001E-02 8.0000004E-03 -2.5789000E-02
endloop
endfacet
facet normal -7.0706153E-01 0.0000000E+00 7.0715195E-01
outer loop
vertex -2.5788000E-02 7.9990001E-03 3.3608001E-02
vertex -2.5788000E-02 1.4499000E-02 3.3608001E-02
vertex -3.3608001E-02 8.0000004E-03 2.5789000E-02
endloop
endfacet
facet normal -7.0706159E-01 0.0000000E+00 7.0715201E-01
outer loop
vertex -3.3608001E-02 8.0000004E-03 2.5789000E-02
vertex -2.5788000E-02 1.4499000E-02 3.3608001E-02
vertex -3.3608001E-02 1.4500000E-02 2.5789000E-02
endloop
endfacet
facet normal -1.0000000E+00 0.0000000E+00 0.0000000E+00
outer loop
vertex -3.9999999E-02 -8.0000004E-03 -5.2510002E-03
vertex -3.9999999E-02 -8.0000004E-03 5.2510002E-03
vertex -3.9999999E-02 8.0000004E-03 -5.2510002E-03
endloop
endfacet
facet normal -1.0000000E+00 0.0000000E+00 0.0000000E+00
outer loop
vertex -3.9999999E-02 8.0000004E-03 -5.2510002E-03
vertex -3.9999999E-02 -8.0000004E-03 5.2510002E-03
vertex -3.9999999E-02 8.0000004E-03 5.2510002E-03
endloop
endfacet
facet normal -9.7009790E-01 0.0000000E+00 -2.4271393E-01
outer loop
vertex -3.4604002E-02 -8.0000004E-03 -5.2510002E-03
vertex -3.4604002E-02 8.0000004E-03 -5.2510002E-03
vertex -3.3000000E-02 -8.0000004E-03 -1.1662000E-02
endloop
endfacet
facet normal -9.7009790E-01 0.0000000E+00 -2.4271393E-01
outer loop
vertex -3.3000000E-02 -8.0000004E-03 -1.1662000E-02
vertex -3.4604002E-02 8.0000004E-03 -5.2510002E-03
vertex -3.3000000E-02 8.0000004E-03 -1.1662000E-02
endloop
endfacet
facet normal 0.0000000E+00 -0.0000000E+00 1.0000000E+00
outer loop
vertex -3.4604002E-02 -8.0000004E-03 5.2510002E-03
vertex -3.4604002E-02 8.0000004E-03 5.2510002E-03
vertex -3.9999999E-02 -8.0000004E-03 5.2510002E-03
endloop
endfacet
facet normal 0.0000000E+00 0.0000000E+00 1.0000000E+00
outer loop
vertex -3.9999999E-02 -8.0000004E-03 5.2510002E-03
vertex -3.4604002E-02 8.0000004E-03 5.2510002E-03
vertex -3.9999999E-02 8.0000004E-03 5.2510002E-03
endloop
endfacet
facet normal -5.0003314E-01 0.0000000E+00 8.6600626E-01
outer loop
vertex -2.5788000E-02 7.9990001E-03 3.3608001E-02
vertex -2.0000000E-02 7.9990001E-03 3.6950000E-02
vertex -2.5788000E-02 1.4499000E-02 3.3608001E-02
endloop
endfacet
facet normal -5.0004852E-01 -1.8270106E-05 8.6599731E-01
outer loop
vertex -2.5788000E-02 1.4499000E-02 3.3608001E-02
vertex -2.0000000E-02 7.9990001E-03 3.6950000E-02
vertex -1.6210999E-02 1.4499000E-02 3.9138000E-02
endloop
endfacet
facet normal -5.0007206E-01 0.0000000E+00 8.6598378E-01
outer loop
vertex -1.6210999E-02 1.4499000E-02 3.9138000E-02
vertex -2.0000000E-02 7.9990001E-03 3.6950000E-02
vertex -2.0000000E-02 -8.0009997E-03 3.6950000E-02
endloop
endfacet
facet normal -5.0004852E-01 9.5247473E-05 8.6599731E-01
outer loop
vertex -1.6212000E-02 -1.4501000E-02 3.9138000E-02
vertex -2.0000000E-02 -8.0009997E-03 3.6950000E-02
vertex -2.5789000E-02 -1.4501000E-02 3.3608001E-02
endloop
endfacet
facet normal -5.0014895E-01 1.7250662E-05 8.6593944E-01
outer loop
vertex -1.6212000E-02 -1.4501000E-02 3.9138000E-02
vertex -1.6210999E-02 1.4499000E-02 3.9138000E-02
vertex -2.0000000E-02 -8.0009997E-03 3.6950000E-02
endloop
endfacet
facet normal -4.9996832E-01 0.0000000E+00 8.6604369E-01
outer loop
vertex -2.0000000E-02 -8.0009997E-03 3.6950000E-02
vertex -2.5789000E-02 -8.0009997E-03 3.3608001E-02
vertex -2.5789000E-02 -1.4501000E-02 3.3608001E-02
endloop
endfacet
facet normal -9.2015862E-01 5.7416612E-05 3.9154583E-01
outer loop
vertex -3.3939999E-02 -8.0000004E-03 9.6290000E-03
vertex -3.0075001E-02 -8.0000004E-03 1.8712001E-02
vertex -3.3939000E-02 8.0000004E-03 9.6290000E-03
endloop
endfacet
facet normal -9.2015851E-01 5.7516438E-05 3.9154598E-01
outer loop
vertex -3.3939000E-02 8.0000004E-03 9.6290000E-03
vertex -3.0075001E-02 -8.0000004E-03 1.8712001E-02
vertex -3.0074000E-02 8.0000004E-03 1.8712001E-02
endloop
endfacet
facet normal 0.0000000E+00 0.0000000E+00 -1.0000000E+00
outer loop
vertex -3.4604002E-02 -8.0000004E-03 -5.2510002E-03
vertex -3.9999999E-02 -8.0000004E-03 -5.2510002E-03
vertex -3.4604002E-02 8.0000004E-03 -5.2510002E-03
endloop
endfacet
facet normal -0.0000000E+00 0.0000000E+00 -1.0000000E+00
outer loop
vertex -3.4604002E-02 8.0000004E-03 -5.2510002E-03
vertex -3.9999999E-02 -8.0000004E-03 -5.2510002E-03
vertex -3.9999999E-02 8.0000004E-03 -5.2510002E-03
endloop
endfacet
facet normal -7.5777429E-01 4.7372276E-05 6.5251672E-01
outer loop
vertex -3.0075001E-02 -8.0000004E-03 1.8712001E-02
vertex -2.3634000E-02 -8.0009997E-03 2.6192000E-02
vertex -3.0074000E-02 8.0000004E-03 1.8712001E-02
endloop
endfacet
facet normal -7.5782436E-01 0.0000000E+00 6.5245855E-01
outer loop
vertex -3.0074000E-02 8.0000004E-03 1.8712001E-02
vertex -2.3634000E-02 -8.0009997E-03 2.6192000E-02
vertex -2.3634000E-02 7.9990001E-03 2.6192000E-02
endloop
endfacet
facet normal -7.0709586E-01 2.4388479E-05 -7.0711768E-01
outer loop
vertex -2.5788000E-02 1.4499000E-02 -3.3608001E-02
vertex -2.5789000E-02 -1.4501000E-02 -3.3608001E-02
vertex -3.3000000E-02 -8.0000004E-03 -2.6396999E-02
endloop
endfacet
facet normal -7.0705783E-01 -0.0000000E+00 -7.0715570E-01
outer loop
vertex -3.3000000E-02 8.0000004E-03 -2.6396999E-02
vertex -2.5788000E-02 1.4499000E-02 -3.3608001E-02
vertex -3.3000000E-02 -8.0000004E-03 -2.6396999E-02
endloop
endfacet
facet normal -7.0706159E-01 8.2561683E-06 -7.0715201E-01
outer loop
vertex -3.3000000E-02 8.0000004E-03 -2.6396999E-02
vertex -3.3608001E-02 1.4500000E-02 -2.5789000E-02
vertex -2.5788000E-02 1.4499000E-02 -3.3608001E-02
endloop
endfacet
facet normal -7.0710570E-01 0.0000000E+00 -7.0710790E-01
outer loop
vertex -3.3000000E-02 8.0000004E-03 -2.6396999E-02
vertex -3.3608001E-02 8.0000004E-03 -2.5789000E-02
vertex -3.3608001E-02 1.4500000E-02 -2.5789000E-02
endloop
endfacet
facet normal -7.0652539E-01 -0.0000000E+00 -7.0768768E-01
outer loop
vertex -3.3608999E-02 -8.0000004E-03 -2.5789000E-02
vertex -3.3000000E-02 -8.0000004E-03 -2.6396999E-02
vertex -3.3608999E-02 -1.4500000E-02 -2.5789000E-02
endloop
endfacet
facet normal -7.0706165E-01 1.0036225E-04 -7.0715195E-01
outer loop
vertex -3.3608999E-02 -1.4500000E-02 -2.5789000E-02
vertex -3.3000000E-02 -8.0000004E-03 -2.6396999E-02
vertex -2.5789000E-02 -1.4501000E-02 -3.3608001E-02
endloop
endfacet
facet normal 0.0000000E+00 0.0000000E+00 -1.0000000E+00
outer loop
vertex -5.5290000E-03 6.8490002E-03 -4.1999999E-02
vertex -5.5290000E-03 1.4499000E-02 -4.1999999E-02
vertex -5.2530002E-03 7.2289999E-03 -4.1999999E-02
endloop
endfacet
facet normal 0.0000000E+00 0.0000000E+00 -1.0000000E+00
outer loop
vertex -5.2530002E-03 7.2289999E-03 -4.1999999E-02
vertex -5.5290000E-03 1.4499000E-02 -4.1999999E-02
vertex 0.0000000E+00 8.9360001E-03 -4.1999999E-02
endloop
endfacet
facet normal 0.0000000E+00 0.0000000E+00 -1.0000000E+00
outer loop
vertex 0.0000000E+00 8.9360001E-03 -4.1999999E-02
vertex -5.5290000E-03 1.4499000E-02 -4.1999999E-02
vertex 5.5300002E-03 1.4499000E-02 -4.1999999E-02
endloop
endfacet
facet normal 0.0000000E+00 0.0000000E+00 -1.0000000E+00
outer loop
vertex 5.2530002E-03 7.2289999E-03 -4.1999999E-02
vertex 5.5300002E-03 1.4499000E-02 -4.1999999E-02
vertex 5.5300002E-03 6.8490002E-03 -4.1999999E-02
endloop
endfacet
facet normal 0.0000000E+00 0.0000000E+00 -1.0000000E+00
outer loop
vertex 5.2530002E-03 7.2289999E-03 -4.1999999E-02
vertex 0.0000000E+00 8.9360001E-03 -4.1999999E-02
vertex 5.5300002E-03 1.4499000E-02 -4.1999999E-02
endloop
endfacet
facet normal 2.5879490E-01 0.0000000E+00 -9.6593225E-01
outer loop
vertex 5.5290000E-03 -6.8520000E-03 -4.1999999E-02
vertex 8.5000005E-03 -2.7630001E-03 -4.1204002E-02
vertex 5.5290000E-03 -1.4501000E-02 -4.1999999E-02
endloop
endfacet
facet normal 2.5879931E-01 -1.1840666E-06 -9.6593118E-01
outer loop
vertex 5.5290000E-03 -1.4501000E-02 -4.1999999E-02
vertex 8.5000005E-03 -2.7630001E-03 -4.1204002E-02
vertex 1.6210999E-02 -1.4502000E-02 -3.9138000E-02
endloop
endfacet
facet normal 2.5880098E-01 0.0000000E+00 -9.6593064E-01
outer loop
vertex 1.6210999E-02 -1.4502000E-02 -3.9138000E-02
vertex 8.5000005E-03 -2.7630001E-03 -4.1204002E-02
vertex 8.5000005E-03 2.7600001E-03 -4.1204002E-02
endloop
endfacet
facet normal 2.5879925E-01 -2.0864001E-05 -9.6593112E-01
outer loop
vertex 1.6212000E-02 1.4498000E-02 -3.9138000E-02
vertex 8.5000005E-03 2.7600001E-03 -4.1204002E-02
vertex 5.5300002E-03 1.4499000E-02 -4.1999999E-02
endloop
endfacet
facet normal 2.5878236E-01 -8.9256755E-06 -9.6593571E-01
outer loop
vertex 1.6212000E-02 1.4498000E-02 -3.9138000E-02
vertex 1.6210999E-02 -1.4502000E-02 -3.9138000E-02
vertex 8.5000005E-03 2.7600001E-03 -4.1204002E-02
endloop
endfacet
facet normal 2.5887626E-01 0.0000000E+00 -9.6591055E-01
outer loop
vertex 8.5000005E-03 2.7600001E-03 -4.1204002E-02
vertex 5.5300002E-03 6.8490002E-03 -4.1999999E-02
vertex 5.5300002E-03 1.4499000E-02 -4.1999999E-02
endloop
endfacet
facet normal 7.0526725E-01 0.0000000E+00 -7.0894146E-01
outer loop
vertex 3.3608999E-02 7.9979999E-03 -2.5789000E-02
vertex 3.3415999E-02 7.9979999E-03 -2.5981000E-02
vertex 3.3608999E-02 1.4498000E-02 -2.5789000E-02
endloop
endfacet
facet normal 7.0706165E-01 -1.0613794E-04 -7.0715195E-01
outer loop
vertex 3.3608999E-02 1.4498000E-02 -2.5789000E-02
vertex 3.3415999E-02 7.9979999E-03 -2.5981000E-02
vertex 2.5789000E-02 1.4498000E-02 -3.3608001E-02
endloop
endfacet
facet normal 7.0710689E-01 0.0000000E+00 -7.0710671E-01
outer loop
vertex 2.5789000E-02 1.4498000E-02 -3.3608001E-02
vertex 3.3415999E-02 7.9979999E-03 -2.5981000E-02
vertex 3.3415999E-02 -8.0019999E-03 -2.5981000E-02
endloop
endfacet
facet normal 7.0706153E-01 -2.4293718E-06 -7.0715195E-01
outer loop
vertex 2.5788000E-02 -1.4502000E-02 -3.3608001E-02
vertex 3.3415999E-02 -8.0019999E-03 -2.5981000E-02
vertex 3.3608001E-02 -1.4502000E-02 -2.5789000E-02
endloop
endfacet
facet normal 7.0707089E-01 -2.4387618E-05 -7.0714265E-01
outer loop
vertex 2.5788000E-02 -1.4502000E-02 -3.3608001E-02
vertex 2.5789000E-02 1.4498000E-02 -3.3608001E-02
vertex 3.3415999E-02 -8.0019999E-03 -2.5981000E-02
endloop
endfacet
facet normal 7.0710337E-01 0.0000000E+00 -7.0711029E-01
outer loop
vertex 3.3415999E-02 -8.0019999E-03 -2.5981000E-02
vertex 3.3608001E-02 -8.0019999E-03 -2.5789000E-02
vertex 3.3608001E-02 -1.4502000E-02 -2.5789000E-02
endloop
endfacet
facet normal -2.5887623E-01 0.0000000E+00 9.6591049E-01
outer loop
vertex -5.5300002E-03 -6.8520000E-03 4.1999999E-02
vertex -8.5000005E-03 -2.7630001E-03 4.1204002E-02
vertex -5.5300002E-03 -1.4501000E-02 4.1999999E-02
endloop
endfacet
facet normal -2.5879928E-01 2.0872294E-05 9.6593118E-01
outer loop
vertex -5.5300002E-03 -1.4501000E-02 4.1999999E-02
vertex -8.5000005E-03 -2.7630001E-03 4.1204002E-02
vertex -1.6212000E-02 -1.4501000E-02 3.9138000E-02
endloop
endfacet
facet normal -2.5876966E-01 0.0000000E+00 9.6593899E-01
outer loop
vertex -1.6212000E-02 -1.4501000E-02 3.9138000E-02
vertex -8.5000005E-03 -2.7630001E-03 4.1204002E-02
vertex -8.5000005E-03 2.7610001E-03 4.1204002E-02
endloop
endfacet
facet normal -2.5879925E-01 1.1911009E-06 9.6593112E-01
outer loop
vertex -1.6210999E-02 1.4499000E-02 3.9138000E-02
vertex -8.5000005E-03 2.7610001E-03 4.1204002E-02
vertex -5.5290000E-03 1.4499000E-02 4.1999999E-02
endloop
endfacet
facet normal -2.5878829E-01 8.9258801E-06 9.6593404E-01
outer loop
vertex -1.6210999E-02 1.4499000E-02 3.9138000E-02
vertex -1.6212000E-02 -1.4501000E-02 3.9138000E-02
vertex -8.5000005E-03 2.7610001E-03 4.1204002E-02
endloop
endfacet
facet normal -2.5879487E-01 0.0000000E+00 9.6593225E-01
outer loop
vertex -8.5000005E-03 2.7610001E-03 4.1204002E-02
vertex -5.5290000E-03 6.8490002E-03 4.1999999E-02
vertex -5.5290000E-03 1.4499000E-02 4.1999999E-02
endloop
endfacet
facet normal 0.0000000E+00 0.0000000E+00 1.0000000E+00
outer loop
vertex -5.5290000E-03 6.8490002E-03 4.1999999E-02
vertex -5.2530002E-03 7.2289999E-03 4.1999999E-02
vertex -5.5290000E-03 1.4499000E-02 4.1999999E-02
endloop
endfacet
facet normal 0.0000000E+00 0.0000000E+00 1.0000000E+00
outer loop
vertex -5.5290000E-03 1.4499000E-02 4.1999999E-02
vertex -5.2530002E-03 7.2289999E-03 4.1999999E-02
vertex 0.0000000E+00 8.9360001E-03 4.1999999E-02
endloop
endfacet
facet normal 0.0000000E+00 0.0000000E+00 1.0000000E+00
outer loop
vertex 5.5300002E-03 1.4499000E-02 4.1999999E-02
vertex 0.0000000E+00 8.9360001E-03 4.1999999E-02
vertex 5.2530002E-03 7.2289999E-03 4.1999999E-02
endloop
endfacet
facet normal 0.0000000E+00 -0.0000000E+00 1.0000000E+00
outer loop
vertex 5.5300002E-03 6.8490002E-03 4.1999999E-02
vertex 5.5300002E-03 1.4499000E-02 4.1999999E-02
vertex 5.2530002E-03 7.2289999E-03 4.1999999E-02
endloop
endfacet
facet normal 0.0000000E+00 0.0000000E+00 1.0000000E+00
outer loop
vertex 5.5300002E-03 1.4499000E-02 4.1999999E-02
vertex -5.5290000E-03 1.4499000E-02 4.1999999E-02
vertex 0.0000000E+00 8.9360001E-03 4.1999999E-02
endloop
endfacet
facet normal -2.5879928E-01 2.0872294E-05 -9.6593118E-01
outer loop
vertex -5.5300002E-03 -1.4501000E-02 -4.1999999E-02
vertex -1.6212000E-02 -1.4501000E-02 -3.9138000E-02
vertex -8.5000005E-03 -2.7630001E-03 -4.1204002E-02
endloop
endfacet
facet normal -2.5887623E-01 -0.0000000E+00 -9.6591049E-01
outer loop
vertex -5.5300002E-03 -6.8520000E-03 -4.1999999E-02
vertex -5.5300002E-03 -1.4501000E-02 -4.1999999E-02
vertex -8.5000005E-03 -2.7630001E-03 -4.1204002E-02
endloop
endfacet
facet normal -2.5879925E-01 1.1840945E-06 -9.6593112E-01
outer loop
vertex -5.5290000E-03 1.4499000E-02 -4.1999999E-02
vertex -8.5000005E-03 2.7610001E-03 -4.1204002E-02
vertex -1.6210999E-02 1.4499000E-02 -3.9138000E-02
endloop
endfacet
facet normal -2.5879490E-01 -0.0000000E+00 -9.6593225E-01
outer loop
vertex -5.5290000E-03 1.4499000E-02 -4.1999999E-02
vertex -5.5290000E-03 6.8490002E-03 -4.1999999E-02
vertex -8.5000005E-03 2.7610001E-03 -4.1204002E-02
endloop
endfacet
facet normal -2.5880098E-01 -0.0000000E+00 -9.6593064E-01
outer loop
vertex -8.5000005E-03 2.7610001E-03 -4.1204002E-02
vertex -8.5000005E-03 -2.7630001E-03 -4.1204002E-02
vertex -1.6210999E-02 1.4499000E-02 -3.9138000E-02
endloop
endfacet
facet normal -2.5878233E-01 8.9256746E-06 -9.6593565E-01
outer loop
vertex -1.6210999E-02 1.4499000E-02 -3.9138000E-02
vertex -8.5000005E-03 -2.7630001E-03 -4.1204002E-02
vertex -1.6212000E-02 -1.4501000E-02 -3.9138000E-02
endloop
endfacet
facet normal 9.6593118E-01 0.0000000E+00 -2.5879928E-01
outer loop
vertex 3.9138000E-02 7.9979999E-03 -1.6210999E-02
vertex 3.9138000E-02 1.4498000E-02 -1.6210999E-02
vertex 4.1999999E-02 7.9979999E-03 -5.5290000E-03
endloop
endfacet
facet normal 9.6593118E-01 0.0000000E+00 -2.5879928E-01
outer loop
vertex 4.1999999E-02 7.9979999E-03 -5.5290000E-03
vertex 3.9138000E-02 1.4498000E-02 -1.6210999E-02
vertex 4.1999999E-02 1.4498000E-02 -5.5290000E-03
endloop
endfacet
facet normal 9.6593118E-01 0.0000000E+00 2.5879928E-01
outer loop
vertex 4.1999999E-02 1.4498000E-02 5.5290000E-03
vertex 3.9138000E-02 1.4498000E-02 1.6210999E-02
vertex 4.1999999E-02 7.9979999E-03 5.5290000E-03
endloop
endfacet
facet normal 9.6593118E-01 0.0000000E+00 2.5879928E-01
outer loop
vertex 4.1999999E-02 7.9979999E-03 5.5290000E-03
vertex 3.9138000E-02 1.4498000E-02 1.6210999E-02
vertex 3.9138000E-02 7.9979999E-03 1.6210999E-02
endloop
endfacet
facet normal 7.0706165E-01 -0.0000000E+00 7.0715195E-01
outer loop
vertex 3.3608999E-02 7.9979999E-03 2.5789000E-02
vertex 3.3608999E-02 1.4498000E-02 2.5789000E-02
vertex 2.5789000E-02 7.9979999E-03 3.3608001E-02
endloop
endfacet
facet normal 7.0706165E-01 -0.0000000E+00 7.0715195E-01
outer loop
vertex 2.5789000E-02 7.9979999E-03 3.3608001E-02
vertex 3.3608999E-02 1.4498000E-02 2.5789000E-02
vertex 2.5789000E-02 1.4498000E-02 3.3608001E-02
endloop
endfacet
facet normal 2.5879931E-01 -1.1840666E-06 9.6593118E-01
outer loop
vertex 5.5290000E-03 -1.4501000E-02 4.1999999E-02
vertex 1.6210999E-02 -1.4502000E-02 3.9138000E-02
vertex 8.5000005E-03 -2.7630001E-03 4.1204002E-02
endloop
endfacet
facet normal 2.5879490E-01 0.0000000E+00 9.6593225E-01
outer loop
vertex 5.5290000E-03 -6.8520000E-03 4.1999999E-02
vertex 5.5290000E-03 -1.4501000E-02 4.1999999E-02
vertex 8.5000005E-03 -2.7630001E-03 4.1204002E-02
endloop
endfacet
facet normal 2.5879925E-01 -2.0871006E-05 9.6593112E-01
outer loop
vertex 5.5300002E-03 1.4499000E-02 4.1999999E-02
vertex 8.5000005E-03 2.7600001E-03 4.1204002E-02
vertex 1.6212000E-02 1.4498000E-02 3.9138000E-02
endloop
endfacet
facet normal 2.5887623E-01 0.0000000E+00 9.6591049E-01
outer loop
vertex 5.5300002E-03 1.4499000E-02 4.1999999E-02
vertex 5.5300002E-03 6.8490002E-03 4.1999999E-02
vertex 8.5000005E-03 2.7600001E-03 4.1204002E-02
endloop
endfacet
facet normal 2.5876966E-01 0.0000000E+00 9.6593904E-01
outer loop
vertex 8.5000005E-03 2.7600001E-03 4.1204002E-02
vertex 8.5000005E-03 -2.7630001E-03 4.1204002E-02
vertex 1.6212000E-02 1.4498000E-02 3.9138000E-02
endloop
endfacet
facet normal 2.5878829E-01 -8.9258801E-06 9.6593404E-01
outer loop
vertex 1.6212000E-02 1.4498000E-02 3.9138000E-02
vertex 8.5000005E-03 -2.7630001E-03 4.1204002E-02
vertex 1.6210999E-02 -1.4502000E-02 3.9138000E-02
endloop
endfacet
facet normal -5.0004858E-01 1.7247201E-05 -8.6599737E-01
outer loop
vertex -2.5788000E-02 1.4499000E-02 -3.3608001E-02
vertex -1.6210999E-02 1.4499000E-02 -3.9138000E-02
vertex -2.5789000E-02 -1.4501000E-02 -3.3608001E-02
endloop
endfacet
facet normal -5.0004858E-01 1.7242208E-05 -8.6599737E-01
outer loop
vertex -2.5789000E-02 -1.4501000E-02 -3.3608001E-02
vertex -1.6210999E-02 1.4499000E-02 -3.9138000E-02
vertex -1.6212000E-02 -1.4501000E-02 -3.9138000E-02
endloop
endfacet
facet normal 5.0004858E-01 -1.7247201E-05 -8.6599737E-01
outer loop
vertex 1.6210999E-02 -1.4502000E-02 -3.9138000E-02
vertex 1.6212000E-02 1.4498000E-02 -3.9138000E-02
vertex 2.5788000E-02 -1.4502000E-02 -3.3608001E-02
endloop
endfacet
facet normal 5.0004858E-01 -1.7247199E-05 -8.6599737E-01
outer loop
vertex 2.5788000E-02 -1.4502000E-02 -3.3608001E-02
vertex 1.6212000E-02 1.4498000E-02 -3.9138000E-02
vertex 2.5789000E-02 1.4498000E-02 -3.3608001E-02
endloop
endfacet
facet normal 1.0000000E+00 0.0000000E+00 -0.0000000E+00
outer loop
vertex 4.1999999E-02 1.4498000E-02 -5.5290000E-03
vertex 4.1999999E-02 1.4498000E-02 5.5290000E-03
vertex 4.1999999E-02 7.9979999E-03 -5.5290000E-03
endloop
endfacet
facet normal 1.0000000E+00 0.0000000E+00 0.0000000E+00
outer loop
vertex 4.1999999E-02 7.9979999E-03 -5.5290000E-03
vertex 4.1999999E-02 1.4498000E-02 5.5290000E-03
vertex 4.1999999E-02 7.9979999E-03 5.5290000E-03
endloop
endfacet
facet normal 8.6605906E-01 0.0000000E+00 4.9994165E-01
outer loop
vertex 3.9138000E-02 1.4498000E-02 1.6210999E-02
vertex 3.3608999E-02 1.4498000E-02 2.5789000E-02
vertex 3.9138000E-02 7.9979999E-03 1.6210999E-02
endloop
endfacet
facet normal 8.6605906E-01 0.0000000E+00 4.9994165E-01
outer loop
vertex 3.9138000E-02 7.9979999E-03 1.6210999E-02
vertex 3.3608999E-02 1.4498000E-02 2.5789000E-02
vertex 3.3608999E-02 7.9979999E-03 2.5789000E-02
endloop
endfacet
facet normal 4.9996564E-01 3.9719795E-05 8.6604530E-01
outer loop
vertex 2.1686001E-02 -8.0019999E-03 3.5976999E-02
vertex 1.7000001E-02 -3.3150001E-03 3.8681999E-02
vertex 1.6210999E-02 -1.4502000E-02 3.9138000E-02
endloop
endfacet
facet normal 5.0004852E-01 -5.3393243E-05 8.6599731E-01
outer loop
vertex 2.5788000E-02 -1.4502000E-02 3.3608001E-02
vertex 2.1686001E-02 -8.0019999E-03 3.5976999E-02
vertex 1.6210999E-02 -1.4502000E-02 3.9138000E-02
endloop
endfacet
facet normal 5.0011200E-01 -0.0000000E+00 8.6596072E-01
outer loop
vertex 2.5788000E-02 -1.4502000E-02 3.3608001E-02
vertex 2.5788000E-02 -8.0019999E-03 3.3608001E-02
vertex 2.1686001E-02 -8.0019999E-03 3.5976999E-02
endloop
endfacet
facet normal 5.0038791E-01 -0.0000000E+00 8.6580139E-01
outer loop
vertex 1.7000001E-02 -3.3150001E-03 3.8681999E-02
vertex 1.7000001E-02 3.3120001E-03 3.8681999E-02
vertex 1.6210999E-02 -1.4502000E-02 3.9138000E-02
endloop
endfacet
facet normal 5.0068015E-01 -1.7268983E-05 8.6563241E-01
outer loop
vertex 1.6210999E-02 -1.4502000E-02 3.9138000E-02
vertex 1.7000001E-02 3.3120001E-03 3.8681999E-02
vertex 1.6212000E-02 1.4498000E-02 3.9138000E-02
endloop
endfacet
facet normal 4.9992231E-01 -8.8500310E-05 8.6607021E-01
outer loop
vertex 1.6212000E-02 1.4498000E-02 3.9138000E-02
vertex 1.7000001E-02 3.3120001E-03 3.8681999E-02
vertex 2.1686999E-02 7.9979999E-03 3.5976999E-02
endloop
endfacet
facet normal 5.0011182E-01 0.0000000E+00 8.6596084E-01
outer loop
vertex 2.5789000E-02 1.4498000E-02 3.3608001E-02
vertex 2.1686999E-02 7.9979999E-03 3.5976999E-02
vertex 2.5789000E-02 7.9979999E-03 3.3608001E-02
endloop
endfacet
facet normal 5.0004852E-01 5.3266718E-05 8.6599731E-01
outer loop
vertex 2.5789000E-02 1.4498000E-02 3.3608001E-02
vertex 1.6212000E-02 1.4498000E-02 3.9138000E-02
vertex 2.1686999E-02 7.9979999E-03 3.5976999E-02
endloop
endfacet
facet normal 8.6605906E-01 0.0000000E+00 -4.9994165E-01
outer loop
vertex 3.3608999E-02 7.9979999E-03 -2.5789000E-02
vertex 3.3608999E-02 1.4498000E-02 -2.5789000E-02
vertex 3.9138000E-02 7.9979999E-03 -1.6210999E-02
endloop
endfacet
facet normal 8.6605906E-01 0.0000000E+00 -4.9994165E-01
outer loop
vertex 3.9138000E-02 7.9979999E-03 -1.6210999E-02
vertex 3.3608999E-02 1.4498000E-02 -2.5789000E-02
vertex 3.9138000E-02 1.4498000E-02 -1.6210999E-02
endloop
endfacet
facet normal 0.0000000E+00 1.0000000E+00 0.0000000E+00
outer loop
vertex -2.0000000E-02 -8.0009997E-03 3.6950000E-02
vertex -2.3634000E-02 -8.0009997E-03 2.6192000E-02
vertex -2.5789000E-02 -8.0009997E-03 3.3608001E-02
endloop
endfacet
facet normal 0.0000000E+00 9.9999994E-01 0.0000000E+00
outer loop
vertex -2.0000000E-02 -8.0009997E-03 3.6950000E-02
vertex -2.0000000E-02 -8.0009997E-03 2.8723000E-02
vertex -2.3634000E-02 -8.0009997E-03 2.6192000E-02
endloop
endfacet
facet normal 1.1600184E-04 1.0000000E+00 3.3708737E-05
outer loop
vertex -2.3634000E-02 -8.0009997E-03 2.6192000E-02
vertex -3.0075001E-02 -8.0000004E-03 1.8712001E-02
vertex -2.5789000E-02 -8.0009997E-03 3.3608001E-02
endloop
endfacet
facet normal 8.5232365E-05 1.0000000E+00 4.2561973E-05
outer loop
vertex -2.5789000E-02 -8.0009997E-03 3.3608001E-02
vertex -3.0075001E-02 -8.0000004E-03 1.8712001E-02
vertex -3.3608999E-02 -8.0000004E-03 2.5789000E-02
endloop
endfacet
facet normal 0.0000000E+00 1.0000000E+00 0.0000000E+00
outer loop
vertex -3.3608999E-02 -8.0000004E-03 2.5789000E-02
vertex -3.0075001E-02 -8.0000004E-03 1.8712001E-02
vertex -3.3939999E-02 -8.0000004E-03 9.6290000E-03
endloop
endfacet
facet normal 0.0000000E+00 1.0000000E+00 0.0000000E+00
outer loop
vertex -3.9138000E-02 -8.0000004E-03 1.6210999E-02
vertex -3.3939999E-02 -8.0000004E-03 9.6290000E-03
vertex -3.4604002E-02 -8.0000004E-03 5.2510002E-03
endloop
endfacet
facet normal 0.0000000E+00 1.0000000E+00 0.0000000E+00
outer loop
vertex -3.9999999E-02 -8.0000004E-03 5.2510002E-03
vertex -3.9138000E-02 -8.0000004E-03 1.6210999E-02
vertex -3.4604002E-02 -8.0000004E-03 5.2510002E-03
endloop
endfacet
facet normal 0.0000000E+00 1.0000000E+00 -0.0000000E+00
outer loop
vertex -3.9999999E-02 -8.0000004E-03 5.2510002E-03
vertex -4.1999999E-02 -8.0000004E-03 5.5290000E-03
vertex -3.9138000E-02 -8.0000004E-03 1.6210999E-02
endloop
endfacet
facet normal 0.0000000E+00 1.0000000E+00 0.0000000E+00
outer loop
vertex -3.9999999E-02 -8.0000004E-03 5.2510002E-03
vertex -3.9999999E-02 -8.0000004E-03 -5.2510002E-03
vertex -4.1999999E-02 -8.0000004E-03 5.5290000E-03
endloop
endfacet
facet normal 0.0000000E+00 1.0000000E+00 0.0000000E+00
outer loop
vertex -4.1999999E-02 -8.0000004E-03 5.5290000E-03
vertex -3.9999999E-02 -8.0000004E-03 -5.2510002E-03
vertex -4.1999999E-02 -8.0000004E-03 -5.5290000E-03
endloop
endfacet
facet normal -0.0000000E+00 1.0000000E+00 0.0000000E+00
outer loop
vertex -4.1999999E-02 -8.0000004E-03 -5.5290000E-03
vertex -3.9999999E-02 -8.0000004E-03 -5.2510002E-03
vertex -3.9138000E-02 -8.0000004E-03 -1.6210999E-02
endloop
endfacet
facet normal 0.0000000E+00 1.0000000E+00 -0.0000000E+00
outer loop
vertex -3.9138000E-02 -8.0000004E-03 -1.6210999E-02
vertex -3.9999999E-02 -8.0000004E-03 -5.2510002E-03
vertex -3.4604002E-02 -8.0000004E-03 -5.2510002E-03
endloop
endfacet
facet normal 0.0000000E+00 1.0000000E+00 0.0000000E+00
outer loop
vertex -3.3000000E-02 -8.0000004E-03 -1.1662000E-02
vertex -3.9138000E-02 -8.0000004E-03 -1.6210999E-02
vertex -3.4604002E-02 -8.0000004E-03 -5.2510002E-03
endloop
endfacet
facet normal 0.0000000E+00 1.0000000E+00 0.0000000E+00
outer loop
vertex -3.3000000E-02 -8.0000004E-03 -1.1662000E-02
vertex -3.3608999E-02 -8.0000004E-03 -2.5789000E-02
vertex -3.9138000E-02 -8.0000004E-03 -1.6210999E-02
endloop
endfacet
facet normal 0.0000000E+00 1.0000000E+00 0.0000000E+00
outer loop
vertex -3.3000000E-02 -8.0000004E-03 -1.1662000E-02
vertex -3.3000000E-02 -8.0000004E-03 -2.6396999E-02
vertex -3.3608999E-02 -8.0000004E-03 -2.5789000E-02
endloop
endfacet
facet normal -0.0000000E+00 1.0000000E+00 0.0000000E+00
outer loop
vertex -3.9138000E-02 -8.0000004E-03 1.6210999E-02
vertex -3.3608999E-02 -8.0000004E-03 2.5789000E-02
vertex -3.3939999E-02 -8.0000004E-03 9.6290000E-03
endloop
endfacet
facet normal -0.0000000E+00 -1.0000000E+00 0.0000000E+00
outer loop
vertex 4.1999999E-02 -1.4502000E-02 -5.5290000E-03
vertex 4.1999999E-02 -1.4502000E-02 5.5290000E-03
vertex 3.9136998E-02 -1.4502000E-02 -1.6210999E-02
endloop
endfacet
facet normal 0.0000000E+00 -1.0000000E+00 0.0000000E+00
outer loop
vertex 3.9136998E-02 -1.4502000E-02 -1.6210999E-02
vertex 4.1999999E-02 -1.4502000E-02 5.5290000E-03
vertex 3.9136998E-02 -1.4502000E-02 1.6210999E-02
endloop
endfacet
facet normal 0.0000000E+00 -1.0000000E+00 0.0000000E+00
outer loop
vertex 3.3608001E-02 -1.4502000E-02 -2.5789000E-02
vertex 3.9136998E-02 -1.4502000E-02 1.6210999E-02
vertex 3.3608001E-02 -1.4502000E-02 2.5789000E-02
endloop
endfacet
facet normal 0.0000000E+00 -1.0000000E+00 0.0000000E+00
outer loop
vertex 2.5788000E-02 -1.4502000E-02 -3.3608001E-02
vertex 3.3608001E-02 -1.4502000E-02 2.5789000E-02
vertex 2.5788000E-02 -1.4502000E-02 3.3608001E-02
endloop
endfacet
facet normal 0.0000000E+00 -9.9999994E-01 0.0000000E+00
outer loop
vertex 1.6210999E-02 -1.4502000E-02 -3.9138000E-02
vertex 2.5788000E-02 -1.4502000E-02 3.3608001E-02
vertex 1.6210999E-02 -1.4502000E-02 3.9138000E-02
endloop
endfacet
facet normal -9.3637929E-05 -9.9999994E-01 0.0000000E+00
outer loop
vertex 5.5290000E-03 -1.4501000E-02 -4.1999999E-02
vertex 1.6210999E-02 -1.4502000E-02 3.9138000E-02
vertex 5.5290000E-03 -1.4501000E-02 4.1999999E-02
endloop
endfacet
facet normal 0.0000000E+00 -9.9999994E-01 0.0000000E+00
outer loop
vertex -5.5300002E-03 -1.4501000E-02 -4.1999999E-02
vertex 5.5290000E-03 -1.4501000E-02 4.1999999E-02
vertex -5.5300002E-03 -1.4501000E-02 4.1999999E-02
endloop
endfacet
facet normal 0.0000000E+00 -1.0000000E+00 0.0000000E+00
outer loop
vertex -1.6212000E-02 -1.4501000E-02 -3.9138000E-02
vertex -5.5300002E-03 -1.4501000E-02 4.1999999E-02
vertex -1.6212000E-02 -1.4501000E-02 3.9138000E-02
endloop
endfacet
facet normal 0.0000000E+00 -1.0000000E+00 0.0000000E+00
outer loop
vertex -2.5789000E-02 -1.4501000E-02 -3.3608001E-02
vertex -1.6212000E-02 -1.4501000E-02 3.9138000E-02
vertex -2.5789000E-02 -1.4501000E-02 3.3608001E-02
endloop
endfacet
facet normal -1.2790800E-04 -1.0000000E+00 0.0000000E+00
outer loop
vertex -3.3608999E-02 -1.4500000E-02 -2.5789000E-02
vertex -2.5789000E-02 -1.4501000E-02 3.3608001E-02
vertex -3.3608999E-02 -1.4500000E-02 2.5789000E-02
endloop
endfacet
facet normal 0.0000000E+00 -1.0000000E+00 0.0000000E+00
outer loop
vertex -3.9138000E-02 -1.4500000E-02 -1.6210999E-02
vertex -3.3608999E-02 -1.4500000E-02 2.5789000E-02
vertex -3.9138000E-02 -1.4500000E-02 1.6210999E-02
endloop
endfacet
facet normal 0.0000000E+00 -1.0000000E+00 0.0000000E+00
outer loop
vertex -4.1999999E-02 -1.4500000E-02 -5.5290000E-03
vertex -3.9138000E-02 -1.4500000E-02 1.6210999E-02
vertex -4.1999999E-02 -1.4500000E-02 5.5290000E-03
endloop
endfacet
facet normal 0.0000000E+00 -9.9999994E-01 0.0000000E+00
outer loop
vertex -4.1999999E-02 -1.4500000E-02 -5.5290000E-03
vertex -3.9138000E-02 -1.4500000E-02 -1.6210999E-02
vertex -3.9138000E-02 -1.4500000E-02 1.6210999E-02
endloop
endfacet
facet normal 0.0000000E+00 -1.0000000E+00 0.0000000E+00
outer loop
vertex 3.3608001E-02 -1.4502000E-02 -2.5789000E-02
vertex 3.9136998E-02 -1.4502000E-02 -1.6210999E-02
vertex 3.9136998E-02 -1.4502000E-02 1.6210999E-02
endloop
endfacet
facet normal 0.0000000E+00 -1.0000000E+00 0.0000000E+00
outer loop
vertex -3.9138000E-02 -1.4500000E-02 -1.6210999E-02
vertex -3.3608999E-02 -1.4500000E-02 -2.5789000E-02
vertex -3.3608999E-02 -1.4500000E-02 2.5789000E-02
endloop
endfacet
facet normal -1.2790802E-04 -1.0000000E+00 0.0000000E+00
outer loop
vertex -3.3608999E-02 -1.4500000E-02 -2.5789000E-02
vertex -2.5789000E-02 -1.4501000E-02 -3.3608001E-02
vertex -2.5789000E-02 -1.4501000E-02 3.3608001E-02
endloop
endfacet
facet normal 0.0000000E+00 -9.9999994E-01 0.0000000E+00
outer loop
vertex -2.5789000E-02 -1.4501000E-02 -3.3608001E-02
vertex -1.6212000E-02 -1.4501000E-02 -3.9138000E-02
vertex -1.6212000E-02 -1.4501000E-02 3.9138000E-02
endloop
endfacet
facet normal 0.0000000E+00 -9.9999994E-01 0.0000000E+00
outer loop
vertex -1.6212000E-02 -1.4501000E-02 -3.9138000E-02
vertex -5.5300002E-03 -1.4501000E-02 -4.1999999E-02
vertex -5.5300002E-03 -1.4501000E-02 4.1999999E-02
endloop
endfacet
facet normal 0.0000000E+00 -9.9999994E-01 0.0000000E+00
outer loop
vertex -5.5300002E-03 -1.4501000E-02 -4.1999999E-02
vertex 5.5290000E-03 -1.4501000E-02 -4.1999999E-02
vertex 5.5290000E-03 -1.4501000E-02 4.1999999E-02
endloop
endfacet
facet normal -9.3637944E-05 -1.0000000E+00 0.0000000E+00
outer loop
vertex 5.5290000E-03 -1.4501000E-02 -4.1999999E-02
vertex 1.6210999E-02 -1.4502000E-02 -3.9138000E-02
vertex 1.6210999E-02 -1.4502000E-02 3.9138000E-02
endloop
endfacet
facet normal 0.0000000E+00 -1.0000000E+00 0.0000000E+00
outer loop
vertex 1.6210999E-02 -1.4502000E-02 -3.9138000E-02
vertex 2.5788000E-02 -1.4502000E-02 -3.3608001E-02
vertex 2.5788000E-02 -1.4502000E-02 3.3608001E-02
endloop
endfacet
facet normal 0.0000000E+00 -1.0000000E+00 -0.0000000E+00
outer loop
vertex 3.3608001E-02 -1.4502000E-02 2.5789000E-02
vertex 2.5788000E-02 -1.4502000E-02 -3.3608001E-02
vertex 3.3608001E-02 -1.4502000E-02 -2.5789000E-02
endloop
endfacet
facet normal -7.0706165E-01 0.0000000E+00 7.0715195E-01
outer loop
vertex -2.5789000E-02 -1.4501000E-02 3.3608001E-02
vertex -2.5789000E-02 -8.0009997E-03 3.3608001E-02
vertex -3.3608999E-02 -1.4500000E-02 2.5789000E-02
endloop
endfacet
facet normal -7.0706165E-01 0.0000000E+00 7.0715195E-01
outer loop
vertex -3.3608999E-02 -1.4500000E-02 2.5789000E-02
vertex -2.5789000E-02 -8.0009997E-03 3.3608001E-02
vertex -3.3608999E-02 -8.0000004E-03 2.5789000E-02
endloop
endfacet
facet normal -8.6605906E-01 0.0000000E+00 -4.9994168E-01
outer loop
vertex -3.3608999E-02 -1.4500000E-02 -2.5789000E-02
vertex -3.9138000E-02 -1.4500000E-02 -1.6210999E-02
vertex -3.3608999E-02 -8.0000004E-03 -2.5789000E-02
endloop
endfacet
facet normal -8.6605906E-01 0.0000000E+00 -4.9994168E-01
outer loop
vertex -3.3608999E-02 -8.0000004E-03 -2.5789000E-02
vertex -3.9138000E-02 -1.4500000E-02 -1.6210999E-02
vertex -3.9138000E-02 -8.0000004E-03 -1.6210999E-02
endloop
endfacet
facet normal 3.0904922E-01 -9.5104599E-01 0.0000000E+00
outer loop
vertex -5.2530002E-03 7.2289999E-03 4.1999999E-02
vertex -5.2530002E-03 7.2289999E-03 -4.1999999E-02
vertex 0.0000000E+00 8.9360001E-03 4.1999999E-02
endloop
endfacet
facet normal 3.0904922E-01 -9.5104599E-01 0.0000000E+00
outer loop
vertex 0.0000000E+00 8.9360001E-03 4.1999999E-02
vertex -5.2530002E-03 7.2289999E-03 -4.1999999E-02
vertex 0.0000000E+00 8.9360001E-03 -4.1999999E-02
endloop
endfacet
facet normal -3.0904922E-01 -9.5104599E-01 -0.0000000E+00
outer loop
vertex 0.0000000E+00 8.9360001E-03 4.1999999E-02
vertex 0.0000000E+00 8.9360001E-03 -4.1999999E-02
vertex 5.2530002E-03 7.2289999E-03 4.1999999E-02
endloop
endfacet
facet normal -3.0904922E-01 -9.5104599E-01 -0.0000000E+00
outer loop
vertex 5.2530002E-03 7.2289999E-03 4.1999999E-02
vertex 0.0000000E+00 8.9360001E-03 -4.1999999E-02
vertex 5.2530002E-03 7.2289999E-03 -4.1999999E-02
endloop
endfacet
facet normal 8.0893284E-01 -5.8790112E-01 0.0000000E+00
outer loop
vertex -8.5000005E-03 2.7610001E-03 4.1204002E-02
vertex -8.5000005E-03 2.7610001E-03 -4.1204002E-02
vertex -5.5290000E-03 6.8490002E-03 4.1999999E-02
endloop
endfacet
facet normal 8.0893284E-01 -5.8790112E-01 0.0000000E+00
outer loop
vertex -5.5290000E-03 6.8490002E-03 4.1999999E-02
vertex -8.5000005E-03 2.7610001E-03 -4.1204002E-02
vertex -5.5290000E-03 6.8490002E-03 -4.1999999E-02
endloop
endfacet
facet normal 8.0910414E-01 -5.8766520E-01 0.0000000E+00
outer loop
vertex -5.2530002E-03 7.2289999E-03 4.1999999E-02
vertex -5.5290000E-03 6.8490002E-03 -4.1999999E-02
vertex -5.2530002E-03 7.2289999E-03 -4.1999999E-02
endloop
endfacet
facet normal 8.0910414E-01 -5.8766520E-01 0.0000000E+00
outer loop
vertex -5.2530002E-03 7.2289999E-03 4.1999999E-02
vertex -5.5290000E-03 6.8490002E-03 4.1999999E-02
vertex -5.5290000E-03 6.8490002E-03 -4.1999999E-02
endloop
endfacet
facet normal -8.0809164E-01 -5.8905691E-01 -0.0000000E+00
outer loop
vertex 5.2530002E-03 7.2289999E-03 4.1999999E-02
vertex 5.2530002E-03 7.2289999E-03 -4.1999999E-02
vertex 5.5300002E-03 6.8490002E-03 4.1999999E-02
endloop
endfacet
facet normal -8.0809164E-01 -5.8905691E-01 -0.0000000E+00
outer loop
vertex 5.5300002E-03 6.8490002E-03 4.1999999E-02
vertex 5.2530002E-03 7.2289999E-03 -4.1999999E-02
vertex 5.5300002E-03 6.8490002E-03 -4.1999999E-02
endloop
endfacet
facet normal -8.0909532E-01 -5.8767754E-01 -0.0000000E+00
outer loop
vertex 8.5000005E-03 2.7600001E-03 4.1204002E-02
vertex 5.5300002E-03 6.8490002E-03 -4.1999999E-02
vertex 8.5000005E-03 2.7600001E-03 -4.1204002E-02
endloop
endfacet
facet normal -8.0909532E-01 -5.8767748E-01 0.0000000E+00
outer loop
vertex 8.5000005E-03 2.7600001E-03 4.1204002E-02
vertex 5.5300002E-03 6.8490002E-03 4.1999999E-02
vertex 5.5300002E-03 6.8490002E-03 -4.1999999E-02
endloop
endfacet
facet normal -9.9999994E-01 0.0000000E+00 0.0000000E+00
outer loop
vertex 8.5000005E-03 2.7600001E-03 -4.1204002E-02
vertex 8.5000005E-03 -2.7630001E-03 -4.1204002E-02
vertex 8.5000005E-03 2.7600001E-03 4.1204002E-02
endloop
endfacet
facet normal -9.9999994E-01 -0.0000000E+00 0.0000000E+00
outer loop
vertex 8.5000005E-03 2.7600001E-03 4.1204002E-02
vertex 8.5000005E-03 -2.7630001E-03 -4.1204002E-02
vertex 8.5000005E-03 -2.7630001E-03 4.1204002E-02
endloop
endfacet
facet normal 0.0000000E+00 -0.0000000E+00 -1.0000000E+00
outer loop
vertex 5.5290000E-03 -6.8520000E-03 -4.1999999E-02
vertex 5.5290000E-03 -1.4501000E-02 -4.1999999E-02
vertex 5.2530002E-03 -7.2320001E-03 -4.1999999E-02
endloop
endfacet
facet normal 0.0000000E+00 -0.0000000E+00 -1.0000000E+00
outer loop
vertex 5.2530002E-03 -7.2320001E-03 -4.1999999E-02
vertex 5.5290000E-03 -1.4501000E-02 -4.1999999E-02
vertex 0.0000000E+00 -8.9389998E-03 -4.1999999E-02
endloop
endfacet
facet normal 0.0000000E+00 -0.0000000E+00 -1.0000000E+00
outer loop
vertex 0.0000000E+00 -8.9389998E-03 -4.1999999E-02
vertex 5.5290000E-03 -1.4501000E-02 -4.1999999E-02
vertex -5.5300002E-03 -1.4501000E-02 -4.1999999E-02
endloop
endfacet
facet normal -0.0000000E+00 0.0000000E+00 -1.0000000E+00
outer loop
vertex -5.2530002E-03 -7.2320001E-03 -4.1999999E-02
vertex -5.5300002E-03 -1.4501000E-02 -4.1999999E-02
vertex -5.5300002E-03 -6.8520000E-03 -4.1999999E-02
endloop
endfacet
facet normal 0.0000000E+00 -0.0000000E+00 -1.0000000E+00
outer loop
vertex -5.2530002E-03 -7.2320001E-03 -4.1999999E-02
vertex 0.0000000E+00 -8.9389998E-03 -4.1999999E-02
vertex -5.5300002E-03 -1.4501000E-02 -4.1999999E-02
endloop
endfacet
facet normal -8.0900115E-01 5.8780706E-01 0.0000000E+00
outer loop
vertex 8.5000005E-03 -2.7630001E-03 4.1204002E-02
vertex 8.5000005E-03 -2.7630001E-03 -4.1204002E-02
vertex 5.5290000E-03 -6.8520000E-03 4.1999999E-02
endloop
endfacet
facet normal -8.0900109E-01 5.8780700E-01 0.0000000E+00
outer loop
vertex 5.5290000E-03 -6.8520000E-03 4.1999999E-02
vertex 8.5000005E-03 -2.7630001E-03 -4.1204002E-02
vertex 5.5290000E-03 -6.8520000E-03 -4.1999999E-02
endloop
endfacet
facet normal -8.0910450E-01 5.8766472E-01 0.0000000E+00
outer loop
vertex 5.2530002E-03 -7.2320001E-03 4.1999999E-02
vertex 5.5290000E-03 -6.8520000E-03 -4.1999999E-02
vertex 5.2530002E-03 -7.2320001E-03 -4.1999999E-02
endloop
endfacet
facet normal -8.0910450E-01 5.8766472E-01 0.0000000E+00
outer loop
vertex 5.2530002E-03 -7.2320001E-03 4.1999999E-02
vertex 5.5290000E-03 -6.8520000E-03 4.1999999E-02
vertex 5.5290000E-03 -6.8520000E-03 -4.1999999E-02
endloop
endfacet
facet normal 0.0000000E+00 -1.0000000E+00 -0.0000000E+00
outer loop
vertex 2.5789000E-02 7.9979999E-03 3.3608001E-02
vertex 2.1686999E-02 7.9979999E-03 4.9999999E-03
vertex 3.3608999E-02 7.9979999E-03 2.5789000E-02
endloop
endfacet
facet normal -0.0000000E+00 -1.0000000E+00 0.0000000E+00
outer loop
vertex 2.5789000E-02 7.9979999E-03 3.3608001E-02
vertex 2.1686999E-02 7.9979999E-03 3.5976999E-02
vertex 2.1686999E-02 7.9979999E-03 4.9999999E-03
endloop
endfacet
facet normal 0.0000000E+00 -1.0000000E+00 0.0000000E+00
outer loop
vertex 2.1686999E-02 7.9979999E-03 4.9999999E-03
vertex 3.9999999E-02 7.9979999E-03 4.9999999E-03
vertex 3.3608999E-02 7.9979999E-03 2.5789000E-02
endloop
endfacet
facet normal 0.0000000E+00 -1.0000000E+00 0.0000000E+00
outer loop
vertex 3.3608999E-02 7.9979999E-03 2.5789000E-02
vertex 3.9999999E-02 7.9979999E-03 4.9999999E-03
vertex 3.9138000E-02 7.9979999E-03 1.6210999E-02
endloop
endfacet
facet normal 0.0000000E+00 -1.0000000E+00 0.0000000E+00
outer loop
vertex 3.9138000E-02 7.9979999E-03 1.6210999E-02
vertex 3.9999999E-02 7.9979999E-03 4.9999999E-03
vertex 4.1999999E-02 7.9979999E-03 5.5290000E-03
endloop
endfacet
facet normal 0.0000000E+00 -1.0000000E+00 0.0000000E+00
outer loop
vertex 4.1999999E-02 7.9979999E-03 5.5290000E-03
vertex 3.9999999E-02 7.9979999E-03 4.9999999E-03
vertex 3.9999999E-02 7.9979999E-03 -5.2399999E-03
endloop
endfacet
facet normal -0.0000000E+00 -1.0000000E+00 0.0000000E+00
outer loop
vertex 4.1999999E-02 7.9979999E-03 -5.5290000E-03
vertex 3.9999999E-02 7.9979999E-03 -5.2399999E-03
vertex 3.9138000E-02 7.9979999E-03 -1.6210999E-02
endloop
endfacet
facet normal 0.0000000E+00 -1.0000000E+00 0.0000000E+00
outer loop
vertex 4.1999999E-02 7.9979999E-03 -5.5290000E-03
vertex 4.1999999E-02 7.9979999E-03 5.5290000E-03
vertex 3.9999999E-02 7.9979999E-03 -5.2399999E-03
endloop
endfacet
facet normal -0.0000000E+00 -1.0000000E+00 0.0000000E+00
outer loop
vertex 3.9999999E-02 7.9979999E-03 -5.2399999E-03
vertex 3.3000000E-02 7.9979999E-03 -5.2399999E-03
vertex 3.9138000E-02 7.9979999E-03 -1.6210999E-02
endloop
endfacet
facet normal -0.0000000E+00 -1.0000000E+00 0.0000000E+00
outer loop
vertex 3.9138000E-02 7.9979999E-03 -1.6210999E-02
vertex 3.3000000E-02 7.9979999E-03 -5.2399999E-03
vertex 3.3608999E-02 7.9979999E-03 -2.5789000E-02
endloop
endfacet
facet normal -0.0000000E+00 -9.9999994E-01 0.0000000E+00
outer loop
vertex 3.3608999E-02 7.9979999E-03 -2.5789000E-02
vertex 3.3000000E-02 7.9979999E-03 -5.2399999E-03
vertex 3.3000000E-02 7.9979999E-03 -2.5981000E-02
endloop
endfacet
facet normal 0.0000000E+00 -1.0000000E+00 0.0000000E+00
outer loop
vertex 3.3415999E-02 7.9979999E-03 -2.5981000E-02
vertex 3.3608999E-02 7.9979999E-03 -2.5789000E-02
vertex 3.3000000E-02 7.9979999E-03 -2.5981000E-02
endloop
endfacet
facet normal 8.6601996E-01 -1.3351404E-04 -5.0000936E-01
outer loop
vertex 3.9138000E-02 -8.0019999E-03 -1.6210999E-02
vertex 3.9136998E-02 -1.4502000E-02 -1.6210999E-02
vertex 3.3608001E-02 -8.0019999E-03 -2.5789000E-02
endloop
endfacet
facet normal 8.6605924E-01 0.0000000E+00 -4.9994144E-01
outer loop
vertex 3.3608001E-02 -8.0019999E-03 -2.5789000E-02
vertex 3.9136998E-02 -1.4502000E-02 -1.6210999E-02
vertex 3.3608001E-02 -1.4502000E-02 -2.5789000E-02
endloop
endfacet
facet normal 0.0000000E+00 -0.0000000E+00 1.0000000E+00
outer loop
vertex 3.3415999E-02 -8.0019999E-03 -2.5981000E-02
vertex 3.3415999E-02 7.9979999E-03 -2.5981000E-02
vertex 3.3000000E-02 -8.0019999E-03 -2.5981000E-02
endloop
endfacet
facet normal 0.0000000E+00 0.0000000E+00 1.0000000E+00
outer loop
vertex 3.3000000E-02 -8.0019999E-03 -2.5981000E-02
vertex 3.3415999E-02 7.9979999E-03 -2.5981000E-02
vertex 3.3000000E-02 7.9979999E-03 -2.5981000E-02
endloop
endfacet
facet normal 0.0000000E+00 9.9999994E-01 0.0000000E+00
outer loop
vertex 2.1686001E-02 -8.0019999E-03 3.5976999E-02
vertex 2.5788000E-02 -8.0019999E-03 3.3608001E-02
vertex 2.1686001E-02 -8.0019999E-03 4.9999999E-03
endloop
endfacet
facet normal 0.0000000E+00 1.0000000E+00 0.0000000E+00
outer loop
vertex 2.1686001E-02 -8.0019999E-03 4.9999999E-03
vertex 2.5788000E-02 -8.0019999E-03 3.3608001E-02
vertex 3.3608001E-02 -8.0019999E-03 2.5789000E-02
endloop
endfacet
facet normal 0.0000000E+00 1.0000000E+00 0.0000000E+00
outer loop
vertex 3.9999999E-02 -8.0019999E-03 4.9999999E-03
vertex 3.3608001E-02 -8.0019999E-03 2.5789000E-02
vertex 3.9138000E-02 -8.0019999E-03 1.6210999E-02
endloop
endfacet
facet normal 0.0000000E+00 1.0000000E+00 0.0000000E+00
outer loop
vertex 4.1999999E-02 -8.0019999E-03 5.5290000E-03
vertex 3.9999999E-02 -8.0019999E-03 4.9999999E-03
vertex 3.9138000E-02 -8.0019999E-03 1.6210999E-02
endloop
endfacet
facet normal 0.0000000E+00 1.0000000E+00 0.0000000E+00
outer loop
vertex 4.1999999E-02 -8.0019999E-03 5.5290000E-03
vertex 4.1999999E-02 -8.0019999E-03 -5.5290000E-03
vertex 3.9999999E-02 -8.0019999E-03 4.9999999E-03
endloop
endfacet
facet normal 0.0000000E+00 1.0000000E+00 0.0000000E+00
outer loop
vertex 3.9999999E-02 -8.0019999E-03 4.9999999E-03
vertex 4.1999999E-02 -8.0019999E-03 -5.5290000E-03
vertex 3.9999999E-02 -8.0019999E-03 -5.2399999E-03
endloop
endfacet
facet normal 0.0000000E+00 1.0000000E+00 0.0000000E+00
outer loop
vertex 3.9999999E-02 -8.0019999E-03 -5.2399999E-03
vertex 4.1999999E-02 -8.0019999E-03 -5.5290000E-03
vertex 3.9138000E-02 -8.0019999E-03 -1.6210999E-02
endloop
endfacet
facet normal 0.0000000E+00 9.9999994E-01 0.0000000E+00
outer loop
vertex 3.3000000E-02 -8.0019999E-03 -5.2399999E-03
vertex 3.9138000E-02 -8.0019999E-03 -1.6210999E-02
vertex 3.3608001E-02 -8.0019999E-03 -2.5789000E-02
endloop
endfacet
facet normal 0.0000000E+00 1.0000000E+00 0.0000000E+00
outer loop
vertex 3.3000000E-02 -8.0019999E-03 -2.5981000E-02
vertex 3.3608001E-02 -8.0019999E-03 -2.5789000E-02
vertex 3.3415999E-02 -8.0019999E-03 -2.5981000E-02
endloop
endfacet
facet normal 0.0000000E+00 1.0000000E+00 0.0000000E+00
outer loop
vertex 3.3000000E-02 -8.0019999E-03 -2.5981000E-02
vertex 3.3000000E-02 -8.0019999E-03 -5.2399999E-03
vertex 3.3608001E-02 -8.0019999E-03 -2.5789000E-02
endloop
endfacet
facet normal -0.0000000E+00 1.0000000E+00 0.0000000E+00
outer loop
vertex 3.3000000E-02 -8.0019999E-03 -5.2399999E-03
vertex 3.9999999E-02 -8.0019999E-03 -5.2399999E-03
vertex 3.9138000E-02 -8.0019999E-03 -1.6210999E-02
endloop
endfacet
facet normal 0.0000000E+00 1.0000000E+00 0.0000000E+00
outer loop
vertex 3.9999999E-02 -8.0019999E-03 4.9999999E-03
vertex 2.1686001E-02 -8.0019999E-03 4.9999999E-03
vertex 3.3608001E-02 -8.0019999E-03 2.5789000E-02
endloop
endfacet
facet normal 1.0000000E+00 -0.0000000E+00 0.0000000E+00
outer loop
vertex -8.5000005E-03 -2.7630001E-03 4.1204002E-02
vertex -8.5000005E-03 -2.7630001E-03 -4.1204002E-02
vertex -8.5000005E-03 2.7610001E-03 4.1204002E-02
endloop
endfacet
facet normal 1.0000000E+00 0.0000000E+00 0.0000000E+00
outer loop
vertex -8.5000005E-03 2.7610001E-03 4.1204002E-02
vertex -8.5000005E-03 -2.7630001E-03 -4.1204002E-02
vertex -8.5000005E-03 2.7610001E-03 -4.1204002E-02
endloop
endfacet
facet normal 8.0809200E-01 5.8905637E-01 0.0000000E+00
outer loop
vertex -5.2530002E-03 -7.2320001E-03 4.1999999E-02
vertex -5.2530002E-03 -7.2320001E-03 -4.1999999E-02
vertex -5.5300002E-03 -6.8520000E-03 4.1999999E-02
endloop
endfacet
facet normal 8.0809200E-01 5.8905637E-01 0.0000000E+00
outer loop
vertex -5.5300002E-03 -6.8520000E-03 4.1999999E-02
vertex -5.2530002E-03 -7.2320001E-03 -4.1999999E-02
vertex -5.5300002E-03 -6.8520000E-03 -4.1999999E-02
endloop
endfacet
facet normal 8.0909526E-01 5.8767754E-01 0.0000000E+00
outer loop
vertex -8.5000005E-03 -2.7630001E-03 4.1204002E-02
vertex -5.5300002E-03 -6.8520000E-03 -4.1999999E-02
vertex -8.5000005E-03 -2.7630001E-03 -4.1204002E-02
endloop
endfacet
facet normal 8.0909526E-01 5.8767754E-01 0.0000000E+00
outer loop
vertex -8.5000005E-03 -2.7630001E-03 4.1204002E-02
vertex -5.5300002E-03 -6.8520000E-03 4.1999999E-02
vertex -5.5300002E-03 -6.8520000E-03 -4.1999999E-02
endloop
endfacet
facet normal 0.0000000E+00 0.0000000E+00 1.0000000E+00
outer loop
vertex 5.5290000E-03 -6.8520000E-03 4.1999999E-02
vertex 5.2530002E-03 -7.2320001E-03 4.1999999E-02
vertex 5.5290000E-03 -1.4501000E-02 4.1999999E-02
endloop
endfacet
facet normal 0.0000000E+00 0.0000000E+00 1.0000000E+00
outer loop
vertex 5.5290000E-03 -1.4501000E-02 4.1999999E-02
vertex 5.2530002E-03 -7.2320001E-03 4.1999999E-02
vertex 0.0000000E+00 -8.9389998E-03 4.1999999E-02
endloop
endfacet
facet normal 0.0000000E+00 0.0000000E+00 1.0000000E+00
outer loop
vertex -5.5300002E-03 -1.4501000E-02 4.1999999E-02
vertex 0.0000000E+00 -8.9389998E-03 4.1999999E-02
vertex -5.2530002E-03 -7.2320001E-03 4.1999999E-02
endloop
endfacet
facet normal 0.0000000E+00 0.0000000E+00 1.0000000E+00
outer loop
vertex -5.5300002E-03 -6.8520000E-03 4.1999999E-02
vertex -5.5300002E-03 -1.4501000E-02 4.1999999E-02
vertex -5.2530002E-03 -7.2320001E-03 4.1999999E-02
endloop
endfacet
facet normal 0.0000000E+00 0.0000000E+00 1.0000000E+00
outer loop
vertex -5.5300002E-03 -1.4501000E-02 4.1999999E-02
vertex 5.5290000E-03 -1.4501000E-02 4.1999999E-02
vertex 0.0000000E+00 -8.9389998E-03 4.1999999E-02
endloop
endfacet
facet normal 7.0706153E-01 0.0000000E+00 7.0715195E-01
outer loop
vertex 2.5788000E-02 -8.0019999E-03 3.3608001E-02
vertex 2.5788000E-02 -1.4502000E-02 3.3608001E-02
vertex 3.3608001E-02 -8.0019999E-03 2.5789000E-02
endloop
endfacet
facet normal 7.0706153E-01 0.0000000E+00 7.0715195E-01
outer loop
vertex 3.3608001E-02 -8.0019999E-03 2.5789000E-02
vertex 2.5788000E-02 -1.4502000E-02 3.3608001E-02
vertex 3.3608001E-02 -1.4502000E-02 2.5789000E-02
endloop
endfacet
facet normal 7.0703155E-01 -7.0718217E-01 0.0000000E+00
outer loop
vertex 2.1686999E-02 7.9979999E-03 4.9999999E-03
vertex 2.1686999E-02 7.9979999E-03 3.5976999E-02
vertex 1.7000001E-02 3.3120001E-03 4.9999999E-03
endloop
endfacet
facet normal 7.0703143E-01 -7.0718205E-01 0.0000000E+00
outer loop
vertex 1.7000001E-02 3.3120001E-03 4.9999999E-03
vertex 2.1686999E-02 7.9979999E-03 3.5976999E-02
vertex 1.7000001E-02 3.3120001E-03 3.8681999E-02
endloop
endfacet
facet normal 9.9999994E-01 0.0000000E+00 -0.0000000E+00
outer loop
vertex 1.7000001E-02 3.3120001E-03 4.9999999E-03
vertex 1.7000001E-02 3.3120001E-03 3.8681999E-02
vertex 1.7000001E-02 -3.3150001E-03 4.9999999E-03
endloop
endfacet
facet normal 9.9999994E-01 0.0000000E+00 0.0000000E+00
outer loop
vertex 1.7000001E-02 -3.3150001E-03 4.9999999E-03
vertex 1.7000001E-02 3.3120001E-03 3.8681999E-02
vertex 1.7000001E-02 -3.3150001E-03 3.8681999E-02
endloop
endfacet
facet normal 7.0718223E-01 7.0703131E-01 -0.0000000E+00
outer loop
vertex 1.7000001E-02 -3.3150001E-03 4.9999999E-03
vertex 1.7000001E-02 -3.3150001E-03 3.8681999E-02
vertex 2.1686001E-02 -8.0019999E-03 4.9999999E-03
endloop
endfacet
facet normal 7.0718223E-01 7.0703131E-01 -0.0000000E+00
outer loop
vertex 2.1686001E-02 -8.0019999E-03 4.9999999E-03
vertex 1.7000001E-02 -3.3150001E-03 3.8681999E-02
vertex 2.1686001E-02 -8.0019999E-03 3.5976999E-02
endloop
endfacet
facet normal -9.9999994E-01 0.0000000E+00 0.0000000E+00
outer loop
vertex -4.1999999E-02 -1.4500000E-02 5.5290000E-03
vertex -4.1999999E-02 -8.0000004E-03 5.5290000E-03
vertex -4.1999999E-02 -1.4500000E-02 -5.5290000E-03
endloop
endfacet
facet normal -9.9999994E-01 0.0000000E+00 0.0000000E+00
outer loop
vertex -4.1999999E-02 -1.4500000E-02 -5.5290000E-03
vertex -4.1999999E-02 -8.0000004E-03 5.5290000E-03
vertex -4.1999999E-02 -8.0000004E-03 -5.5290000E-03
endloop
endfacet
facet normal -9.6593112E-01 0.0000000E+00 -2.5879925E-01
outer loop
vertex -3.9138000E-02 -1.4500000E-02 -1.6210999E-02
vertex -4.1999999E-02 -1.4500000E-02 -5.5290000E-03
vertex -3.9138000E-02 -8.0000004E-03 -1.6210999E-02
endloop
endfacet
facet normal -9.6593112E-01 0.0000000E+00 -2.5879925E-01
outer loop
vertex -3.9138000E-02 -8.0000004E-03 -1.6210999E-02
vertex -4.1999999E-02 -1.4500000E-02 -5.5290000E-03
vertex -4.1999999E-02 -8.0000004E-03 -5.5290000E-03
endloop
endfacet
facet normal -9.6593112E-01 0.0000000E+00 2.5879925E-01
outer loop
vertex -3.9138000E-02 -1.4500000E-02 1.6210999E-02
vertex -3.9138000E-02 -8.0000004E-03 1.6210999E-02
vertex -4.1999999E-02 -1.4500000E-02 5.5290000E-03
endloop
endfacet
facet normal -9.6593112E-01 0.0000000E+00 2.5879925E-01
outer loop
vertex -4.1999999E-02 -1.4500000E-02 5.5290000E-03
vertex -3.9138000E-02 -8.0000004E-03 1.6210999E-02
vertex -4.1999999E-02 -8.0000004E-03 5.5290000E-03
endloop
endfacet
facet normal -8.6605906E-01 0.0000000E+00 4.9994168E-01
outer loop
vertex -3.3608999E-02 -1.4500000E-02 2.5789000E-02
vertex -3.3608999E-02 -8.0000004E-03 2.5789000E-02
vertex -3.9138000E-02 -1.4500000E-02 1.6210999E-02
endloop
endfacet
facet normal -8.6605906E-01 0.0000000E+00 4.9994168E-01
outer loop
vertex -3.9138000E-02 -1.4500000E-02 1.6210999E-02
vertex -3.3608999E-02 -8.0000004E-03 2.5789000E-02
vertex -3.9138000E-02 -8.0000004E-03 1.6210999E-02
endloop
endfacet
facet normal 9.6593118E-01 0.0000000E+00 -2.5879928E-01
outer loop
vertex 4.1999999E-02 -8.0019999E-03 -5.5290000E-03
vertex 4.1999999E-02 -1.4502000E-02 -5.5290000E-03
vertex 3.9138000E-02 -8.0019999E-03 -1.6210999E-02
endloop
endfacet
facet normal 9.6590847E-01 -1.4891381E-04 -2.5888383E-01
outer loop
vertex 3.9138000E-02 -8.0019999E-03 -1.6210999E-02
vertex 4.1999999E-02 -1.4502000E-02 -5.5290000E-03
vertex 3.9136998E-02 -1.4502000E-02 -1.6210999E-02
endloop
endfacet
facet normal 9.6590847E-01 -1.4891381E-04 2.5888383E-01
outer loop
vertex 3.9136998E-02 -1.4502000E-02 1.6210999E-02
vertex 4.1999999E-02 -1.4502000E-02 5.5290000E-03
vertex 3.9138000E-02 -8.0019999E-03 1.6210999E-02
endloop
endfacet
facet normal 9.6593118E-01 0.0000000E+00 2.5879928E-01
outer loop
vertex 3.9138000E-02 -8.0019999E-03 1.6210999E-02
vertex 4.1999999E-02 -1.4502000E-02 5.5290000E-03
vertex 4.1999999E-02 -8.0019999E-03 5.5290000E-03
endloop
endfacet
facet normal 8.6605924E-01 -0.0000000E+00 4.9994144E-01
outer loop
vertex 3.3608001E-02 -1.4502000E-02 2.5789000E-02
vertex 3.9136998E-02 -1.4502000E-02 1.6210999E-02
vertex 3.3608001E-02 -8.0019999E-03 2.5789000E-02
endloop
endfacet
facet normal 8.6601996E-01 -1.3349796E-04 5.0000936E-01
outer loop
vertex 3.3608001E-02 -8.0019999E-03 2.5789000E-02
vertex 3.9136998E-02 -1.4502000E-02 1.6210999E-02
vertex 3.9138000E-02 -8.0019999E-03 1.6210999E-02
endloop
endfacet
facet normal 1.0000000E+00 -0.0000000E+00 0.0000000E+00
outer loop
vertex 4.1999999E-02 -1.4502000E-02 5.5290000E-03
vertex 4.1999999E-02 -1.4502000E-02 -5.5290000E-03
vertex 4.1999999E-02 -8.0019999E-03 5.5290000E-03
endloop
endfacet
facet normal 1.0000000E+00 0.0000000E+00 0.0000000E+00
outer loop
vertex 4.1999999E-02 -8.0019999E-03 5.5290000E-03
vertex 4.1999999E-02 -1.4502000E-02 -5.5290000E-03
vertex 4.1999999E-02 -8.0019999E-03 -5.5290000E-03
endloop
endfacet
facet normal -3.0904916E-01 9.5104599E-01 0.0000000E+00
outer loop
vertex 5.2530002E-03 -7.2320001E-03 -4.1999999E-02
vertex 0.0000000E+00 -8.9389998E-03 -4.1999999E-02
vertex 5.2530002E-03 -7.2320001E-03 4.1999999E-02
endloop
endfacet
facet normal -3.0904916E-01 9.5104599E-01 0.0000000E+00
outer loop
vertex 5.2530002E-03 -7.2320001E-03 4.1999999E-02
vertex 0.0000000E+00 -8.9389998E-03 -4.1999999E-02
vertex 0.0000000E+00 -8.9389998E-03 4.1999999E-02
endloop
endfacet
facet normal 3.0904916E-01 9.5104599E-01 0.0000000E+00
outer loop
vertex 0.0000000E+00 -8.9389998E-03 4.1999999E-02
vertex 0.0000000E+00 -8.9389998E-03 -4.1999999E-02
vertex -5.2530002E-03 -7.2320001E-03 4.1999999E-02
endloop
endfacet
facet normal 3.0904916E-01 9.5104599E-01 0.0000000E+00
outer loop
vertex -5.2530002E-03 -7.2320001E-03 4.1999999E-02
vertex 0.0000000E+00 -8.9389998E-03 -4.1999999E-02
vertex -5.2530002E-03 -7.2320001E-03 -4.1999999E-02
endloop
endfacet
facet normal 1.0000000E+00 0.0000000E+00 0.0000000E+00
outer loop
vertex 3.9999999E-02 7.9979999E-03 4.9999999E-03
vertex 3.9999999E-02 -8.0019999E-03 4.9999999E-03
vertex 3.9999999E-02 7.9979999E-03 -5.2399999E-03
endloop
endfacet
facet normal 1.0000000E+00 0.0000000E+00 0.0000000E+00
outer loop
vertex 3.9999999E-02 7.9979999E-03 -5.2399999E-03
vertex 3.9999999E-02 -8.0019999E-03 4.9999999E-03
vertex 3.9999999E-02 -8.0019999E-03 -5.2399999E-03
endloop
endfacet
facet normal 1.0000000E+00 0.0000000E+00 -0.0000000E+00
outer loop
vertex 3.3000000E-02 7.9979999E-03 -2.5981000E-02
vertex 3.3000000E-02 7.9979999E-03 -5.2399999E-03
vertex 3.3000000E-02 -8.0019999E-03 -2.5981000E-02
endloop
endfacet
facet normal 1.0000000E+00 0.0000000E+00 0.0000000E+00
outer loop
vertex 3.3000000E-02 -8.0019999E-03 -2.5981000E-02
vertex 3.3000000E-02 7.9979999E-03 -5.2399999E-03
vertex 3.3000000E-02 -8.0019999E-03 -5.2399999E-03
endloop
endfacet
facet normal 0.0000000E+00 0.0000000E+00 -1.0000000E+00
outer loop
vertex 3.3000000E-02 -8.0019999E-03 -5.2399999E-03
vertex 3.3000000E-02 7.9979999E-03 -5.2399999E-03
vertex 3.9999999E-02 -8.0019999E-03 -5.2399999E-03
endloop
endfacet
facet normal 0.0000000E+00 0.0000000E+00 -1.0000000E+00
outer loop
vertex 3.9999999E-02 -8.0019999E-03 -5.2399999E-03
vertex 3.3000000E-02 7.9979999E-03 -5.2399999E-03
vertex 3.9999999E-02 7.9979999E-03 -5.2399999E-03
endloop
endfacet
facet normal 0.0000000E+00 0.0000000E+00 1.0000000E+00
outer loop
vertex 3.2000002E-02 -2.2760001E-03 4.9999999E-03
vertex 2.9325999E-02 -5.9570000E-03 4.9999999E-03
vertex 3.9999999E-02 -8.0019999E-03 4.9999999E-03
endloop
endfacet
facet normal -0.0000000E+00 0.0000000E+00 1.0000000E+00
outer loop
vertex 3.2000002E-02 2.2720001E-03 4.9999999E-03
vertex 3.9999999E-02 -8.0019999E-03 4.9999999E-03
vertex 3.9999999E-02 7.9979999E-03 4.9999999E-03
endloop
endfacet
facet normal 0.0000000E+00 -0.0000000E+00 9.9999994E-01
outer loop
vertex 2.9325999E-02 5.9529999E-03 4.9999999E-03
vertex 3.9999999E-02 7.9979999E-03 4.9999999E-03
vertex 2.5000000E-02 7.3580001E-03 4.9999999E-03
endloop
endfacet
facet normal -0.0000000E+00 0.0000000E+00 1.0000000E+00
outer loop
vertex 2.9325999E-02 5.9529999E-03 4.9999999E-03
vertex 3.2000002E-02 2.2720001E-03 4.9999999E-03
vertex 3.9999999E-02 7.9979999E-03 4.9999999E-03
endloop
endfacet
facet normal 0.0000000E+00 0.0000000E+00 1.0000000E+00
outer loop
vertex 3.9999999E-02 -8.0019999E-03 4.9999999E-03
vertex 2.5000000E-02 -7.3620002E-03 4.9999999E-03
vertex 2.1686001E-02 -8.0019999E-03 4.9999999E-03
endloop
endfacet
facet normal 0.0000000E+00 0.0000000E+00 9.9999994E-01
outer loop
vertex 3.9999999E-02 -8.0019999E-03 4.9999999E-03
vertex 2.9325999E-02 -5.9570000E-03 4.9999999E-03
vertex 2.5000000E-02 -7.3620002E-03 4.9999999E-03
endloop
endfacet
facet normal 0.0000000E+00 0.0000000E+00 1.0000000E+00
outer loop
vertex 3.9999999E-02 7.9979999E-03 4.9999999E-03
vertex 2.1686999E-02 7.9979999E-03 4.9999999E-03
vertex 2.5000000E-02 7.3580001E-03 4.9999999E-03
endloop
endfacet
facet normal 0.0000000E+00 0.0000000E+00 1.0000000E+00
outer loop
vertex 2.5000000E-02 7.3580001E-03 4.9999999E-03
vertex 2.1686999E-02 7.9979999E-03 4.9999999E-03
vertex 2.0674000E-02 5.9529999E-03 4.9999999E-03
endloop
endfacet
facet normal 0.0000000E+00 -0.0000000E+00 1.0000000E+00
outer loop
vertex 2.0674000E-02 5.9529999E-03 4.9999999E-03
vertex 2.1686999E-02 7.9979999E-03 4.9999999E-03
vertex 1.7000001E-02 3.3120001E-03 4.9999999E-03
endloop
endfacet
facet normal 0.0000000E+00 0.0000000E+00 1.0000000E+00
outer loop
vertex 1.7999999E-02 2.2730001E-03 4.9999999E-03
vertex 1.7000001E-02 3.3120001E-03 4.9999999E-03
vertex 1.7000001E-02 -3.3150001E-03 4.9999999E-03
endloop
endfacet
facet normal 0.0000000E+00 0.0000000E+00 1.0000000E+00
outer loop
vertex 1.7999999E-02 -2.2760001E-03 4.9999999E-03
vertex 1.7000001E-02 -3.3150001E-03 4.9999999E-03
vertex 2.0674000E-02 -5.9560002E-03 4.9999999E-03
endloop
endfacet
facet normal 0.0000000E+00 -0.0000000E+00 1.0000000E+00
outer loop
vertex 1.7999999E-02 -2.2760001E-03 4.9999999E-03
vertex 1.7999999E-02 2.2730001E-03 4.9999999E-03
vertex 1.7000001E-02 -3.3150001E-03 4.9999999E-03
endloop
endfacet
facet normal 0.0000000E+00 0.0000000E+00 1.0000000E+00
outer loop
vertex 3.2000002E-02 2.2720001E-03 4.9999999E-03
vertex 3.2000002E-02 -2.2760001E-03 4.9999999E-03
vertex 3.9999999E-02 -8.0019999E-03 4.9999999E-03
endloop
endfacet
facet normal 0.0000000E+00 0.0000000E+00 9.9999994E-01
outer loop
vertex 2.5000000E-02 -7.3620002E-03 4.9999999E-03
vertex 2.0674000E-02 -5.9560002E-03 4.9999999E-03
vertex 2.1686001E-02 -8.0019999E-03 4.9999999E-03
endloop
endfacet
facet normal 0.0000000E+00 0.0000000E+00 1.0000000E+00
outer loop
vertex 2.1686001E-02 -8.0019999E-03 4.9999999E-03
vertex 2.0674000E-02 -5.9560002E-03 4.9999999E-03
vertex 1.7000001E-02 -3.3150001E-03 4.9999999E-03
endloop
endfacet
facet normal 0.0000000E+00 -0.0000000E+00 1.0000000E+00
outer loop
vertex 1.7999999E-02 2.2730001E-03 4.9999999E-03
vertex 2.0674000E-02 5.9529999E-03 4.9999999E-03
vertex 1.7000001E-02 3.3120001E-03 4.9999999E-03
endloop
endfacet
facet normal 3.0889729E-01 9.5109540E-01 0.0000000E+00
outer loop
vertex 2.9325999E-02 5.9529999E-03 9.4999997E-03
vertex 2.9325999E-02 5.9529999E-03 4.9999999E-03
vertex 2.5000000E-02 7.3580001E-03 9.4999997E-03
endloop
endfacet
facet normal 3.0889729E-01 9.5109540E-01 0.0000000E+00
outer loop
vertex 2.5000000E-02 7.3580001E-03 9.4999997E-03
vertex 2.9325999E-02 5.9529999E-03 4.9999999E-03
vertex 2.5000000E-02 7.3580001E-03 4.9999999E-03
endloop
endfacet
facet normal 8.0905885E-01 5.8772761E-01 0.0000000E+00
outer loop
vertex 3.2000002E-02 2.2720001E-03 9.4999997E-03
vertex 3.2000002E-02 2.2720001E-03 4.9999999E-03
vertex 2.9325999E-02 5.9529999E-03 9.4999997E-03
endloop
endfacet
facet normal 8.0905885E-01 5.8772761E-01 0.0000000E+00
outer loop
vertex 2.9325999E-02 5.9529999E-03 9.4999997E-03
vertex 3.2000002E-02 2.2720001E-03 4.9999999E-03
vertex 2.9325999E-02 5.9529999E-03 4.9999999E-03
endloop
endfacet
facet normal -3.0909598E-01 -9.5103091E-01 -0.0000000E+00
outer loop
vertex 2.0674000E-02 -5.9560002E-03 9.4999997E-03
vertex 2.0674000E-02 -5.9560002E-03 4.9999999E-03
vertex 2.5000000E-02 -7.3620002E-03 9.4999997E-03
endloop
endfacet
facet normal -3.0909598E-01 -9.5103091E-01 -0.0000000E+00
outer loop
vertex 2.5000000E-02 -7.3620002E-03 9.4999997E-03
vertex 2.0674000E-02 -5.9560002E-03 4.9999999E-03
vertex 2.5000000E-02 -7.3620002E-03 4.9999999E-03
endloop
endfacet
facet normal -8.0898315E-01 -5.8783185E-01 -0.0000000E+00
outer loop
vertex 1.7999999E-02 -2.2760001E-03 9.4999997E-03
vertex 1.7999999E-02 -2.2760001E-03 4.9999999E-03
vertex 2.0674000E-02 -5.9560002E-03 9.4999997E-03
endloop
endfacet
facet normal -8.0898315E-01 -5.8783185E-01 -0.0000000E+00
outer loop
vertex 2.0674000E-02 -5.9560002E-03 9.4999997E-03
vertex 1.7999999E-02 -2.2760001E-03 4.9999999E-03
vertex 2.0674000E-02 -5.9560002E-03 4.9999999E-03
endloop
endfacet
facet normal -8.0898315E-01 5.8783185E-01 0.0000000E+00
outer loop
vertex 2.0674000E-02 5.9529999E-03 9.4999997E-03
vertex 2.0674000E-02 5.9529999E-03 4.9999999E-03
vertex 1.7999999E-02 2.2730001E-03 9.4999997E-03
endloop
endfacet
facet normal -8.0898315E-01 5.8783185E-01 0.0000000E+00
outer loop
vertex 1.7999999E-02 2.2730001E-03 9.4999997E-03
vertex 2.0674000E-02 5.9529999E-03 4.9999999E-03
vertex 1.7999999E-02 2.2730001E-03 4.9999999E-03
endloop
endfacet
facet normal -1.0000000E+00 -0.0000000E+00 -0.0000000E+00
outer loop
vertex 1.7999999E-02 2.2730001E-03 9.4999997E-03
vertex 1.7999999E-02 2.2730001E-03 4.9999999E-03
vertex 1.7999999E-02 -2.2760001E-03 9.4999997E-03
endloop
endfacet
facet normal -1.0000000E+00 0.0000000E+00 0.0000000E+00
outer loop
vertex 1.7999999E-02 -2.2760001E-03 9.4999997E-03
vertex 1.7999999E-02 2.2730001E-03 4.9999999E-03
vertex 1.7999999E-02 -2.2760001E-03 4.9999999E-03
endloop
endfacet
facet normal 1.0000000E+00 0.0000000E+00 0.0000000E+00
outer loop
vertex 3.2000002E-02 -2.2760001E-03 4.9999999E-03
vertex 3.2000002E-02 2.2720001E-03 4.9999999E-03
vertex 3.2000002E-02 -2.2760001E-03 9.4999997E-03
endloop
endfacet
facet normal 1.0000000E+00 -0.0000000E+00 0.0000000E+00
outer loop
vertex 3.2000002E-02 -2.2760001E-03 9.4999997E-03
vertex 3.2000002E-02 2.2720001E-03 4.9999999E-03
vertex 3.2000002E-02 2.2720001E-03 9.4999997E-03
endloop
endfacet
facet normal 3.0889729E-01 -9.5109540E-01 0.0000000E+00
outer loop
vertex 2.5000000E-02 -7.3620002E-03 4.9999999E-03
vertex 2.9325999E-02 -5.9570000E-03 4.9999999E-03
vertex 2.5000000E-02 -7.3620002E-03 9.4999997E-03
endloop
endfacet
facet normal 3.0889729E-01 -9.5109540E-01 0.0000000E+00
outer loop
vertex 2.5000000E-02 -7.3620002E-03 9.4999997E-03
vertex 2.9325999E-02 -5.9570000E-03 4.9999999E-03
vertex 2.9325999E-02 -5.9570000E-03 9.4999997E-03
endloop
endfacet
facet normal -3.0889717E-01 9.5109546E-01 0.0000000E+00
outer loop
vertex 2.5000000E-02 7.3580001E-03 9.4999997E-03
vertex 2.5000000E-02 7.3580001E-03 4.9999999E-03
vertex 2.0674000E-02 5.9529999E-03 9.4999997E-03
endloop
endfacet
facet normal -3.0889717E-01 9.5109546E-01 0.0000000E+00
outer loop
vertex 2.0674000E-02 5.9529999E-03 9.4999997E-03
vertex 2.5000000E-02 7.3580001E-03 4.9999999E-03
vertex 2.0674000E-02 5.9529999E-03 4.9999999E-03
endloop
endfacet
facet normal 8.0905885E-01 -5.8772761E-01 0.0000000E+00
outer loop
vertex 2.9325999E-02 -5.9570000E-03 4.9999999E-03
vertex 3.2000002E-02 -2.2760001E-03 4.9999999E-03
vertex 2.9325999E-02 -5.9570000E-03 9.4999997E-03
endloop
endfacet
facet normal 8.0905885E-01 -5.8772761E-01 0.0000000E+00
outer loop
vertex 2.9325999E-02 -5.9570000E-03 9.4999997E-03
vertex 3.2000002E-02 -2.2760001E-03 4.9999999E-03
vertex 3.2000002E-02 -2.2760001E-03 9.4999997E-03
endloop
endfacet
facet normal 0.0000000E+00 0.0000000E+00 9.9999994E-01
outer loop
vertex 3.2000002E-02 -2.2760001E-03 9.4999997E-03
vertex 2.9325999E-02 5.9529999E-03 9.4999997E-03
vertex 2.9325999E-02 -5.9570000E-03 9.4999997E-03
endloop
endfacet
facet normal 0.0000000E+00 -0.0000000E+00 1.0000000E+00
outer loop
vertex 3.2000002E-02 -2.2760001E-03 9.4999997E-03
vertex 3.2000002E-02 2.2720001E-03 9.4999997E-03
vertex 2.9325999E-02 5.9529999E-03 9.4999997E-03
endloop
endfacet
facet normal 0.0000000E+00 0.0000000E+00 1.0000000E+00
outer loop
vertex 2.9325999E-02 -5.9570000E-03 9.4999997E-03
vertex 2.5000000E-02 7.3580001E-03 9.4999997E-03
vertex 2.5000000E-02 -7.3620002E-03 9.4999997E-03
endloop
endfacet
facet normal 0.0000000E+00 -0.0000000E+00 1.0000000E+00
outer loop
vertex 2.9325999E-02 -5.9570000E-03 9.4999997E-03
vertex 2.9325999E-02 5.9529999E-03 9.4999997E-03
vertex 2.5000000E-02 7.3580001E-03 9.4999997E-03
endloop
endfacet
facet normal 0.0000000E+00 0.0000000E+00 1.0000000E+00
outer loop
vertex 2.5000000E-02 7.3580001E-03 9.4999997E-03
vertex 2.0674000E-02 5.9529999E-03 9.4999997E-03
vertex 2.5000000E-02 -7.3620002E-03 9.4999997E-03
endloop
endfacet
facet normal 0.0000000E+00 0.0000000E+00 1.0000000E+00
outer loop
vertex 2.5000000E-02 -7.3620002E-03 9.4999997E-03
vertex 2.0674000E-02 5.9529999E-03 9.4999997E-03
vertex 2.0674000E-02 -5.9560002E-03 9.4999997E-03
endloop
endfacet
facet normal 0.0000000E+00 -0.0000000E+00 1.0000000E+00
outer loop
vertex 2.0674000E-02 -5.9560002E-03 9.4999997E-03
vertex 2.0674000E-02 5.9529999E-03 9.4999997E-03
vertex 1.7999999E-02 2.2730001E-03 9.4999997E-03
endloop
endfacet
facet normal -0.0000000E+00 0.0000000E+00 9.9999994E-01
outer loop
vertex 1.7999999E-02 -2.2760001E-03 9.4999997E-03
vertex 2.0674000E-02 -5.9560002E-03 9.4999997E-03
vertex 1.7999999E-02 2.2730001E-03 9.4999997E-03
endloop
endfacet
endsolid Created by stlwrite.m 09-Jan-2012 13:09:48
